SplineFontDB: 3.2
FontName: FragmentCoreRom
FullName: Fragment Core Roman
FamilyName: Fragment Core
Weight: Normal
Copyright: Copyright (c) 2009 by sugargliderz. All rights reserved.
Version: 001.001
ItalicAngle: 0
UnderlinePosition: -100
UnderlineWidth: 50
Ascent: 750
Descent: 250
InvalidEm: 0
sfntRevision: 0x00010042
LayerCount: 2
Layer: 0 0 "Back" 1
Layer: 1 0 "Fore" 0
XUID: [1021 470 1585402902 17976]
StyleMap: 0x0040
FSType: 0
OS2Version: 2
OS2_WeightWidthSlopeOnly: 0
OS2_UseTypoMetrics: 0
CreationTime: 1250545642
ModificationTime: 1597373822
PfmFamily: 17
TTFWeight: 400
TTFWidth: 5
LineGap: 0
VLineGap: 0
Panose: 2 0 5 4 4 0 0 2 0 3
OS2TypoAscent: 750
OS2TypoAOffset: 0
OS2TypoDescent: -250
OS2TypoDOffset: 0
OS2TypoLinegap: 0
OS2WinAscent: 964
OS2WinAOffset: 0
OS2WinDescent: 301
OS2WinDOffset: 0
HheadAscent: 750
HheadAOffset: 0
HheadDescent: -250
HheadDOffset: 0
OS2SubXSize: 700
OS2SubYSize: 650
OS2SubXOff: 0
OS2SubYOff: 140
OS2SupXSize: 700
OS2SupYSize: 650
OS2SupXOff: 0
OS2SupYOff: 477
OS2StrikeYSize: 50
OS2StrikeYPos: 250
OS2CapHeight: 705
OS2XHeight: 411
OS2FamilyClass: 1285
OS2Vendor: 'pyrs'
OS2CodePages: 20000003.00000000
OS2UnicodeRanges: 8000002f.0000004b.00000000.00000000
Lookup: 1 0 0 "'case' Case-Sensitive Forms in Latin lookup 0" { "'case' Case-Sensitive Forms in Latin lookup 0 subtable"  } ['case' ('latn' <'dflt' > ) ]
Lookup: 1 0 0 "'smcp' Lowercase to Small Capitals in Latin lookup 1" { "'smcp' Lowercase to Small Capitals in Latin lookup 1 subtable"  } ['smcp' ('latn' <'dflt' > ) ]
Lookup: 1 0 0 "'onum' Oldstyle Figures in Latin lookup 2" { "'onum' Oldstyle Figures in Latin lookup 2 subtable" ("oldstyle") } ['onum' ('latn' <'dflt' > ) ]
Lookup: 1 0 0 "'lnum' Lining Figures in Latin lookup 3" { "'lnum' Lining Figures in Latin lookup 3 subtable"  } ['lnum' ('latn' <'dflt' > ) ]
Lookup: 1 0 0 "'sups' Superscript in Latin lookup 4" { "'sups' Superscript in Latin lookup 4 subtable" ("superior") } ['sups' ('latn' <'dflt' > ) ]

StartChar: B
Encoding: 66 66 1
Width: 529
Flags: MW
HStem: 0 30<24 116 24 116 150 307> 374 33<150 302 150 328 150 302> 675 28<24 320 150 320 36 329 150 150>
VStem: 116 34<30 374 407 670 670 670>
LayerCount: 2
Fore
SplineSet
24 0 m 1
 24 30 l 1
 116 30 l 1
 116 670 l 1
 24 675 l 1
 24 697 l 1
 36 703 l 1
 320 703 l 1
 377 693 l 1
 425 669 l 1
 456 629 l 1
 475 553 l 1
 465 486 l 1
 432 435 l 1
 378 395 l 1
 378 390 l 1
 419 368 l 1
 460 326 l 1
 492 262 l 1
 499 191 l 1
 486 101 l 1
 463 64 l 1
 422 22 l 1
 343 0 l 1
 24 0 l 1
150 30 m 1
 307 30 l 1
 353 34 l 1
 357 34 l 1
 395 45 l 1
 429 67 l 1
 451 106 l 1
 463 153 l 1
 463 234 l 1
 450 283 l 1
 414 334 l 1
 378 356 l 1
 328 374 l 1
 150 374 l 1
 150 30 l 1
150 675 m 1
 150 407 l 1
 302 407 l 1
 341 414 l 1
 387 437 l 1
 419 468 l 1
 438 513 l 1
 438 586 l 1
 428 617 l 1
 395 651 l 1
 329 675 l 1
 150 675 l 1
EndSplineSet
EndChar

StartChar: C
Encoding: 67 67 2
Width: 646
Flags: MW
HStem: -13 21G<353 353> -9 30 687 30<335 406 335 335>
VStem: 26 30<319 381 319 399 319 399> 581 29<39 69 69 69 140 140 629 691 691 691>
LayerCount: 2
Fore
SplineSet
251 6 m 1xb8
 181 42 l 1
 113 103 l 1
 77 156 l 1
 38 241 l 1
 26 305 l 1
 26 399 l 1
 44 483 l 1
 77 551 l 1
 125 618 l 1
 196 675 l 1
 287 711 l 1
 327 717 l 1
 415 717 l 1
 494 694 l 1
 543 662 l 1
 581 629 l 1
 581 691 l 1
 594 703 l 1
 603 703 l 1
 610 696 l 1
 610 562 l 1
 595 554 l 1
 585 560 l 1
 557 605 l 1
 539 623 l 1
 484 663 l 1
 406 687 l 1
 335 687 l 1
 309 682 l 1
 294 682 l 1
 198 638 l 1
 183 623 l 1
 142 590 l 1
 107 538 l 1
 102 530 l 1
 87 508 l 1
 59 420 l 1
 59 416 l 1
 56 381 l 1
 56 319 l 1
 72 234 l 1
 114 149 l 1
 192 73 l 1
 268 34 l 1
 327 21 l 1
 433 21 l 1x78
 496 43 l 1
 525 60 l 1
 560 100 l 1
 581 140 l 1
 595 155 l 1
 610 146 l 1
 610 13 l 1
 603 4 l 1
 587 4 l 1
 581 39 l 1
 581 69 l 1
 527 24 l 1
 452 -6 l 1
 353 -13 l 1
 251 6 l 1xb8
EndSplineSet
EndChar

StartChar: D
Encoding: 68 68 3
Width: 681
Flags: MW
HStem: 0 34<153 391 125 141> 675 28<40 125 40 40 153 153 153 403>
VStem: 125 28<34 675> 619 30<310 447 447 447>
LayerCount: 2
Fore
SplineSet
26 4 m 1
 26 21 l 1
 35 30 l 1
 125 34 l 1
 125 675 l 1
 40 675 l 1
 26 687 l 1
 26 696 l 1
 35 703 l 1
 403 703 l 1
 493 688 l 1
 557 657 l 1
 598 615 l 1
 628 556 l 1
 649 454 l 1
 649 301 l 1
 628 185 l 1
 585 106 l 1
 527 46 l 1
 476 21 l 1
 391 0 l 1
 141 0 l 1
 26 4 l 1
153 34 m 1
 408 34 l 1
 472 51 l 1
 536 98 l 1
 569 140 l 1
 604 210 l 1
 619 310 l 1
 619 447 l 1
 607 505 l 1
 607 510 l 1
 585 583 l 1
 527 639 l 1
 454 666 l 1
 403 675 l 1
 153 675 l 1
 153 34 l 1
EndSplineSet
EndChar

StartChar: E
Encoding: 69 69 4
Width: 534
Flags: MW
HStem: 4 30<112 112 154 473> 375 29 676 27
VStem: 120 34<43 374 407 673 673 673>
LayerCount: 2
Fore
SplineSet
23 4 m 1
 23 30 l 1
 112 34 l 1
 120 43 l 1
 120 673 l 1
 23 679 l 1
 23 703 l 1
 464 703 l 1
 473 696 l 1
 473 678 l 1
 154 675 l 1
 154 407 l 1
 418 402 l 1
 427 393 l 1
 419 377 l 1
 154 374 l 1
 154 34 l 1
 473 34 l 1
 498 170 l 1
 505 179 l 1
 523 179 l 1
 523 145 l 1
 501 12 l 1
 494 4 l 1
 23 4 l 1
EndSplineSet
EndChar

StartChar: F
Encoding: 70 70 5
Width: 474
Flags: MW
HStem: 0 32 349 32 675 28<34 119 34 34 154 154 154 463 27 465>
VStem: 119 35<34 347 381 675>
LayerCount: 2
Fore
SplineSet
34 0 m 1
 21 15 l 1
 28 30 l 1
 119 34 l 1
 119 675 l 1
 34 675 l 1
 27 682 l 1
 27 703 l 1
 463 703 l 1
 474 693 l 1
 465 675 l 1
 154 675 l 1
 154 381 l 1
 414 381 l 1
 423 364 l 1
 411 352 l 1
 154 347 l 1
 154 34 l 1
 289 30 l 1
 300 19 l 1
 291 0 l 1
 34 0 l 1
EndSplineSet
EndChar

StartChar: G
Encoding: 71 71 6
Width: 671
Flags: MW
HStem: -12 33<353 430 353 353> 337 28 697 20G<345 403 403 403>
VStem: 598 35<67 67 130 335 13 335 623 623>
LayerCount: 2
Fore
SplineSet
257 7 m 1
 174 52 l 1
 107 119 l 1
 69 174 l 1
 35 252 l 1
 26 314 l 1
 26 395 l 1
 47 489 l 1
 98 580 l 1
 141 623 l 1
 209 675 l 1
 294 709 l 1
 345 717 l 1
 403 717 l 1
 488 700 l 1
 557 666 l 1
 598 623 l 1
 603 691 l 1
 612 700 l 1
 628 700 l 1
 633 662 l 1
 633 565 l 1
 624 556 l 1
 609 556 l 1
 578 602 l 1
 540 641 l 1
 470 675 l 1
 400 687 l 1
 350 687 l 1
 285 675 l 1
 198 633 l 1
 129 565 l 1
 89 505 l 1
 62 432 l 1
 55 352 l 1
 60 292 l 1
 84 207 l 1
 132 136 l 1
 192 76 l 1
 235 55 l 1
 262 37 l 1
 332 21 l 1
 458 21 l 1
 537 52 l 1
 576 91 l 1
 598 130 l 1
 598 335 l 1
 463 340 l 1
 455 347 l 1
 455 356 l 1
 463 365 l 1
 628 365 l 1
 633 335 l 1
 633 13 l 1
 618 -1 l 1
 603 13 l 1
 598 67 l 1
 554 28 l 1
 513 9 l 1
 430 -12 l 1
 353 -12 l 1
 257 7 l 1
EndSplineSet
EndChar

StartChar: H
Encoding: 72 72 7
Width: 781
Flags: MW
HStem: 0 30<50 148 183 293 43 148 487 601 631 746 487 487> 374 28<183 475 183 595> 672 30 685 20G<476 485>
VStem: 153 30<94 374 402 670> 601 30<30 370 370 370 417 417>
LayerCount: 2
Fore
SplineSet
29 6 m 1xec
 29 25 l 1
 50 30 l 1
 148 30 l 1
 153 94 l 1
 153 670 l 1
 35 675 l 1
 25 696 l 1
 50 703 l 1
 293 703 l 1
 305 691 l 1
 305 681 l 1
 293 675 l 1
 183 670 l 1
 183 402 l 1
 595 402 l 1
 601 417 l 1
 597 670 l 1
 487 675 l 1
 476 685 l 1
 485 705 l 1xdc
 746 700 l 1
 755 691 l 1
 755 682 l 1
 746 675 l 1
 631 670 l 1
 631 30 l 1
 747 30 l 1
 756 12 l 1
 746 0 l 1
 487 0 l 1
 476 12 l 1
 485 30 l 1
 601 30 l 1
 601 370 l 1
 475 374 l 1
 183 374 l 1
 183 30 l 1
 293 30 l 1
 305 18 l 1
 305 6 l 1
 293 0 l 1
 43 0 l 1
 29 6 l 1xec
EndSplineSet
EndChar

StartChar: I
Encoding: 73 73 8
Width: 296
Flags: MW
HStem: 0 27 672 28
VStem: 130 34<30 670 30 670>
LayerCount: 2
Fore
SplineSet
8 9 m 1
 8 18 l 1
 17 25 l 1
 130 30 l 1
 130 670 l 1
 20 670 l 1
 8 682 l 1
 8 693 l 1
 20 700 l 1
 275 700 l 1
 284 691 l 1
 284 675 l 1
 199 670 l 1
 164 670 l 1
 164 30 l 1
 279 25 l 1
 288 9 l 1
 279 0 l 1
 17 0 l 1
 8 9 l 1
EndSplineSet
EndChar

StartChar: J
Encoding: 74 74 9
Width: 355
Flags: MW
HStem: -12 30<115 193 115 195 115 193> 670 30<63 230 63 273>
VStem: 255 30<104 665 665 665>
LayerCount: 2
Fore
SplineSet
75 0 m 1
 24 49 l 1
 9 94 l 1
 5 127 l 1
 14 136 l 1
 29 136 l 1
 35 124 l 1
 46 69 l 1
 82 34 l 1
 115 18 l 1
 193 18 l 1
 225 34 l 1
 243 60 l 1
 255 104 l 1
 255 665 l 1
 230 670 l 1
 63 670 l 1
 55 685 l 1
 63 700 l 1
 273 700 l 1
 285 687 l 1
 285 95 l 1
 270 42 l 1
 243 9 l 1
 195 -12 l 1
 115 -12 l 1
 75 0 l 1
EndSplineSet
EndChar

StartChar: K
Encoding: 75 75 10
Width: 650
Flags: MW
HStem: -4 31 677 26
VStem: 123 35<30 294 420 627>
LayerCount: 2
Fore
SplineSet
26 3 m 1
 26 19 l 1
 38 25 l 1
 123 30 l 1
 123 675 l 1
 38 675 l 1
 31 682 l 1
 31 703 l 1
 256 703 l 1
 256 679 l 1
 196 675 l 1
 162 675 l 1
 158 627 l 1
 158 420 l 1
 166 402 l 1
 162 395 l 1
 162 346 l 1
 174 352 l 1
 509 675 l 1
 339 679 l 1
 339 703 l 1
 564 703 l 1
 564 682 l 1
 265 396 l 1
 272 381 l 1
 534 30 l 1
 633 25 l 1
 640 18 l 1
 640 9 l 1
 628 -4 l 1
 424 -4 l 1
 417 4 l 1
 417 18 l 1
 424 25 l 1
 494 30 l 1
 244 365 l 1
 233 365 l 1
 158 294 l 1
 158 30 l 1
 247 25 l 1
 256 18 l 1
 256 0 l 1
 208 -4 l 1
 47 -4 l 1
 26 3 l 1
EndSplineSet
EndChar

StartChar: L
Encoding: 76 76 11
Width: 578
Flags: MW
HStem: -4 21G<71 71> -2 32 677 26
VStem: 117 34<30 675 30 675>
LayerCount: 2
Fore
SplineSet
25 0 m 1xb0
 25 25 l 1
 117 30 l 1
 117 675 l 1
 25 679 l 1
 25 703 l 1
 244 703 l 1
 244 679 l 1
 151 675 l 1
 151 30 l 1
 518 30 l 1x70
 542 167 l 1
 554 179 l 1
 564 179 l 1
 573 162 l 1
 545 9 l 1
 537 0 l 1
 71 -4 l 1
 25 0 l 1xb0
EndSplineSet
EndChar

StartChar: M
Encoding: 77 77 12
Width: 830
Flags: MW
HStem: 0 27 677 31
VStem: 141 35<39 632 39 675> 647 32<30 636 636 636>
LayerCount: 2
Fore
SplineSet
27 0 m 1
 27 25 l 1
 116 30 l 1
 141 30 l 1
 141 675 l 1
 27 679 l 1
 27 702 l 1
 45 708 l 1
 170 703 l 1
 247 602 l 1
 252 593 l 1
 256 590 l 1
 413 380 l 1
 657 708 l 1
 796 708 l 1
 804 693 l 1
 790 679 l 1
 679 675 l 1
 679 30 l 1
 790 30 l 1
 804 16 l 1
 796 0 l 1
 527 0 l 1
 527 25 l 1
 594 30 l 1
 647 30 l 1
 647 636 l 1
 642 636 l 1
 591 568 l 1
 587 565 l 1
 422 344 l 1
 408 340 l 1
 387 361 l 1
 378 374 l 1
 374 377 l 1
 307 471 l 1
 302 475 l 1
 182 638 l 1
 176 632 l 1
 176 39 l 1
 183 30 l 1
 290 25 l 1
 301 15 l 1
 293 0 l 1
 27 0 l 1
EndSplineSet
EndChar

StartChar: N
Encoding: 78 78 13
Width: 769
Flags: MW
HStem: 0 30<40 145 180 290 40 145> 678 30<40 145 35 171 490 595 628 628 628 738>
VStem: 145 35<30 627 30 678> 595 31
LayerCount: 2
Fore
SplineSet
26 6 m 1
 26 24 l 1
 40 30 l 1
 145 30 l 1
 145 678 l 1
 35 678 l 1
 26 687 l 1
 26 700 l 1
 40 708 l 1
 171 708 l 1
 510 195 l 1
 515 191 l 1
 582 89 l 1
 595 76 l 1
 595 678 l 1
 485 678 l 1
 476 687 l 1
 476 702 l 1
 490 708 l 1
 738 708 l 1
 747 700 l 1
 747 687 l 1
 738 678 l 1
 628 678 l 1
 625 9 l 1
 616 0 l 1
 603 0 l 1
 442 241 l 1
 437 246 l 1
 434 255 l 1
 187 627 l 1
 180 627 l 1
 180 30 l 1
 290 30 l 1
 299 21 l 1
 299 0 l 1
 40 0 l 1
 26 6 l 1
EndSplineSet
EndChar

StartChar: O
Encoding: 79 79 14
Width: 757
Flags: MW
HStem: -13 21G<377 377> -4 21G<287 307 287 287 451 451> 697 20G<438 442 442 442> 704 20G<375 375>
VStem: 27 30<310 365 297 395>
LayerCount: 2
Fore
SplineSet
307 -4 m 1x68
 287 -4 l 1
 201 36 l 1
 128 94 l 1
 91 140 l 1
 52 212 l 1
 31 280 l 1
 31 285 l 1
 27 310 l 1
 27 395 l 1
 48 487 l 1
 79 557 l 1
 134 623 l 1
 206 675 l 1
 280 709 l 1
 375 724 l 1x58
 438 717 l 1
 442 717 l 1
 527 690 l 1
 599 641 l 1
 647 593 l 1
 691 532 l 1
 714 471 l 1
 730 390 l 1
 730 302 l 1
 699 194 l 1
 658 128 l 1
 599 69 l 1
 518 15 l 1
 451 -4 l 1x68
 377 -13 l 1xa8
 307 -4 l 1x68
268 39 m 1
 332 21 l 1
 426 21 l 1
 477 34 l 1
 548 66 l 1
 630 140 l 1
 675 219 l 1
 675 229 l 1
 690 259 l 1
 702 350 l 1
 697 407 l 1
 697 411 l 1
 687 460 l 1
 638 560 l 1
 571 626 l 1
 509 662 l 1
 447 682 l 1
 381 693 l 1
 307 682 l 1
 256 666 l 1
 197 636 l 1
 128 568 l 1
 89 510 l 1
 77 475 l 1
 73 466 l 1
 61 429 l 1
 61 411 l 1
 57 365 l 1
 57 297 l 1
 88 204 l 1
 133 136 l 1
 188 82 l 1
 268 39 l 1
EndSplineSet
EndChar

StartChar: P
Encoding: 80 80 15
Width: 536
Flags: MW
HStem: 0 30<50 117 151 286 32 117> 299 32 678 30<36 117 32 374 151 151 151 373>
VStem: 117 34<30 297 331 678>
LayerCount: 2
Fore
SplineSet
24 9 m 1
 24 25 l 1
 50 30 l 1
 117 30 l 1
 117 678 l 1
 32 678 l 1
 24 687 l 1
 24 702 l 1
 36 708 l 1
 374 708 l 1
 431 691 l 1
 474 666 l 1
 494 636 l 1
 516 590 l 1
 525 513 l 1
 519 441 l 1
 501 387 l 1
 461 340 l 1
 397 310 l 1
 333 301 l 1
 151 297 l 1
 151 30 l 1
 288 30 l 1
 298 12 l 1
 286 0 l 1
 32 0 l 1
 24 9 l 1
151 331 m 1
 355 331 l 1
 415 346 l 1
 452 377 l 1
 474 408 l 1
 491 465 l 1
 491 560 l 1
 468 623 l 1
 437 656 l 1
 373 678 l 1
 151 678 l 1
 151 331 l 1
EndSplineSet
EndChar

StartChar: Q
Encoding: 81 81 16
Width: 746
Flags: MW
HStem: -140 21G<407 407> -12 21G -9 21G<301 317 301 301> 0 21G 687 30<335 416 326 430 335 335> 692 20G<441 445 445 445>
VStem: 693 32
LayerCount: 2
Fore
SplineSet
395 -134 m 1xc6
 359 -12 l 1
 344 -12 l 1xca
 317 -9 l 1
 301 -9 l 1xaa
 284 0 l 1
 273 0 l 1
 204 30 l 1
 199 34 l 1
 121 91 l 1
 71 156 l 1
 43 221 l 1
 21 295 l 1
 21 399 l 1
 39 486 l 1
 76 556 l 1
 110 602 l 1
 156 645 l 1
 225 690 l 1
 267 703 l 1
 326 717 l 1
 416 717 l 1x9a
 441 712 l 1
 445 712 l 1
 526 685 l 1
 597 636 l 1
 654 580 l 1
 691 513 l 1
 696 501 l 1
 711 469 l 1
 725 386 l 1
 725 304 l 1
 712 246 l 1
 673 161 l 1
 645 119 l 1
 576 51 l 1
 502 9 l 1
 393 -15 l 1
 422 -124 l 1
 416 -136 l 1
 407 -140 l 1
 395 -134 l 1xc6
283 28 m 1
 326 21 l 1
 416 21 l 1x9a
 466 30 l 1
 560 76 l 1
 611 128 l 1
 655 186 l 1
 690 277 l 1
 697 368 l 1
 682 457 l 1
 638 547 l 1
 585 611 l 1
 518 654 l 1
 430 687 l 1
 335 687 l 1
 289 678 l 1
 211 645 l 1
 165 611 l 1
 124 568 l 1
 82 508 l 1
 55 420 l 1
 48 356 l 1
 56 274 l 1
 91 185 l 1
 144 115 l 1
 197 70 l 1
 283 28 l 1
EndSplineSet
EndChar

StartChar: R
Encoding: 82 82 17
Width: 647
Flags: MW
HStem: 0 27 347 34<157 283 157 353 327 327> 675 28<157 387 157 157>
VStem: 123 34<30 347 381 673 673 673> 497 30<505 572 484 572>
LayerCount: 2
Fore
SplineSet
31 0 m 1
 31 25 l 1
 52 30 l 1
 123 30 l 1
 123 673 l 1
 40 678 l 1
 25 688 l 1
 32 703 l 1
 394 703 l 1
 458 682 l 1
 506 635 l 1
 518 606 l 1
 522 602 l 1
 522 597 l 1
 527 572 l 1
 527 484 l 1
 502 432 l 1
 476 402 l 1
 429 368 l 1
 366 352 l 1
 327 347 l 1
 327 340 l 1
 332 335 l 1
 348 310 l 1
 353 305 l 1
 548 30 l 1
 619 25 l 1
 628 18 l 1
 628 9 l 1
 619 0 l 1
 403 0 l 1
 403 25 l 1
 508 30 l 1
 314 305 l 1
 311 310 l 1
 283 347 l 1
 157 347 l 1
 157 30 l 1
 251 25 l 1
 251 0 l 1
 31 0 l 1
157 381 m 1
 353 381 l 1
 394 390 l 1
 438 411 l 1
 479 454 l 1
 497 505 l 1
 497 572 l 1
 482 617 l 1
 443 656 l 1
 387 675 l 1
 157 675 l 1
 157 381 l 1
EndSplineSet
EndChar

StartChar: S
Encoding: 83 83 18
Width: 489
Flags: MW
HStem: -12 30<216 281 216 287> 0 21G<41 56 41 41 170 170> 697 20G<200 263 263 263>
VStem: 32 34 428 30<159 226 226 226>
LayerCount: 2
Fore
SplineSet
170 0 m 1x78
 111 33 l 1
 69 89 l 1
 63 9 l 1
 56 0 l 1
 41 0 l 1x78
 35 13 l 1
 30 128 l 1
 35 191 l 1
 44 200 l 1
 66 200 l 1
 96 104 l 1
 124 66 l 1
 163 36 l 1
 216 18 l 1
 287 18 l 1
 343 33 l 1
 380 58 l 1
 412 101 l 1
 428 159 l 1
 428 226 l 1
 413 283 l 1
 373 322 l 1
 327 347 l 1
 216 381 l 1
 208 381 l 1
 138 413 l 1
 88 451 l 1
 64 498 l 1
 59 568 l 1
 67 620 l 1
 105 675 l 1
 120 682 l 1
 124 687 l 1
 157 703 l 1
 200 717 l 1
 263 717 l 1
 330 706 l 1
 370 682 l 1
 373 678 l 1
 403 657 l 1
 407 696 l 1
 416 703 l 1
 425 703 l 1
 433 696 l 1
 433 556 l 1
 410 556 l 1
 386 624 l 1
 352 657 l 1
 306 681 l 1
 243 688 l 1
 181 681 l 1
 140 662 l 1
 111 632 l 1
 97 605 l 1
 90 557 l 1
 96 511 l 1
 115 469 l 1
 164 434 l 1
 365 368 l 1
 409 335 l 1
 443 289 l 1
 458 229 l 1
 458 142 l 1
 436 80 l 1
 397 27 l 1
 331 -6 l 1
 281 -12 l 1
 216 -12 l 1xb8
 170 0 l 1x78
EndSplineSet
EndChar

StartChar: T
Encoding: 84 84 19
Width: 539
Flags: MW
HStem: -4 31 675 28<80 254 80 80 294 294 294 463>
VStem: 254 33<30 662 30 675 30 675>
LayerCount: 2
Fore
SplineSet
135 3 m 1
 135 25 l 1
 254 30 l 1
 254 675 l 1
 80 675 l 1
 71 666 l 1
 47 511 l 1
 37 499 l 1
 17 508 l 1
 44 693 l 1
 55 703 l 1
 491 703 l 1
 500 678 l 1
 522 516 l 1
 515 501 l 1
 500 501 l 1
 491 517 l 1
 473 656 l 1
 463 675 l 1
 294 675 l 1
 287 662 l 1
 287 30 l 1
 397 25 l 1
 406 18 l 1
 406 1 l 1
 390 -4 l 1
 147 -4 l 1
 135 3 l 1
EndSplineSet
EndChar

StartChar: U
Encoding: 85 85 20
Width: 747
Flags: MW
HStem: -16 29<328 422 324 426 328 328> 672 31
VStem: 134 33<241 496 505 670> 583 39<280 670 280 670 280 670>
LayerCount: 2
Fore
SplineSet
266 -6 m 1
 203 25 l 1
 164 77 l 1
 146 136 l 1
 134 231 l 1
 134 670 l 1
 17 675 l 1
 9 690 l 1
 24 703 l 1
 285 703 l 1
 292 688 l 1
 285 675 l 1
 181 670 l 1
 167 670 l 1
 167 505 l 1
 172 501 l 1
 167 496 l 1
 167 241 l 1
 176 145 l 1
 197 80 l 1
 243 34 l 1
 324 13 l 1
 422 13 l 1
 496 30 l 1
 541 58 l 1
 562 94 l 1
 583 162 l 1
 583 670 l 1
 471 675 l 1
 462 690 l 1
 477 703 l 1
 732 703 l 1
 739 696 l 1
 739 682 l 1
 732 675 l 1
 622 670 l 1
 622 280 l 1
 608 136 l 1
 583 64 l 1
 528 9 l 1
 491 -4 l 1
 426 -16 l 1
 328 -16 l 1
 266 -6 l 1
EndSplineSet
EndChar

StartChar: V
Encoding: 86 86 21
Width: 738
Flags: MW
HStem: -4 21G<365 378 365 365> 675 28<18 271 18 271 179 179 179 271 466 466 466 560 611 611 611 721>
LayerCount: 2
Fore
SplineSet
354 6 m 1
 132 670 l 1
 22 675 l 1
 18 675 l 1
 9 682 l 1
 9 697 l 1
 22 703 l 1
 271 703 l 1
 280 696 l 1
 280 682 l 1
 271 675 l 1
 179 675 l 1
 170 666 l 1
 368 64 l 1
 404 165 l 1
 404 170 l 1
 407 179 l 1
 569 670 l 1
 560 675 l 1
 466 675 l 1
 453 688 l 1
 460 703 l 1
 721 703 l 1
 730 696 l 1
 730 682 l 1
 721 675 l 1
 611 675 l 1
 602 666 l 1
 378 -4 l 1
 365 -4 l 1
 354 6 l 1
EndSplineSet
EndChar

StartChar: W
Encoding: 87 87 22
Width: 1093
Flags: MW
HStem: -4 21G<345 359 345 345 742 760 742 742> 677 26
LayerCount: 2
Fore
SplineSet
333 7 m 1
 315 69 l 1
 315 73 l 1
 139 663 l 1
 127 675 l 1
 17 675 l 1
 9 682 l 1
 9 697 l 1
 21 703 l 1
 283 703 l 1
 289 684 l 1
 272 675 l 1
 175 675 l 1
 175 657 l 1
 273 328 l 1
 289 322 l 1
 274 317 l 1
 345 80 l 1
 352 80 l 1
 526 670 l 1
 513 675 l 1
 428 675 l 1
 412 682 l 1
 412 696 l 1
 421 703 l 1
 678 703 l 1
 687 696 l 1
 687 679 l 1
 571 675 l 1
 745 76 l 1
 753 76 l 1
 927 668 l 1
 920 675 l 1
 814 679 l 1
 814 696 l 1
 823 703 l 1
 1085 703 l 1
 1085 679 l 1
 1052 675 l 1
 967 675 l 1
 958 666 l 1
 954 645 l 1
 814 170 l 1
 814 165 l 1
 809 156 l 1
 760 -4 l 1
 742 -4 l 1
 733 4 l 1
 552 620 l 1
 547 620 l 1
 359 -4 l 1
 345 -4 l 1
 333 7 l 1
EndSplineSet
EndChar

StartChar: X
Encoding: 88 88 23
Width: 784
Flags: MW
HStem: -4 31 675 28<87 197 87 87 239 239 239 328> 688 20G<501 501>
LayerCount: 2
Fore
SplineSet
18 1 m 1xc0
 18 19 l 1
 32 25 l 1
 146 25 l 1
 373 390 l 1
 197 675 l 1
 87 675 l 1
 69 682 l 1
 69 703 l 1
 340 703 l 1
 340 687 l 1
 328 675 l 1
 239 675 l 1
 239 666 l 1
 392 420 l 1
 550 675 l 1
 441 679 l 1
 441 696 l 1
 450 703 l 1xc0
 501 708 l 1xa0
 710 703 l 1
 719 694 l 1
 711 678 l 1
 587 673 l 1
 412 392 l 1
 625 46 l 1
 632 31 l 1
 666 25 l 1
 756 25 l 1
 765 18 l 1
 765 1 l 1
 735 -4 l 1
 501 -4 l 1
 494 4 l 1
 494 19 l 1
 505 25 l 1
 598 30 l 1
 394 358 l 1
 383 347 l 1
 218 80 l 1
 213 73 l 1
 200 55 l 1
 188 30 l 1
 204 25 l 1
 288 25 l 1
 295 10 l 1
 288 -4 l 1
 35 -4 l 1
 18 1 l 1xc0
EndSplineSet
EndChar

StartChar: Y
Encoding: 89 89 24
Width: 743
Flags: MW
HStem: -4 31 675 28<177 177 569 569>
VStem: 357 33<30 259 30 259 30 259>
LayerCount: 2
Fore
SplineSet
234 3 m 1
 234 19 l 1
 247 25 l 1
 357 25 l 1
 357 259 l 1
 138 673 l 1
 18 678 l 1
 9 687 l 1
 9 696 l 1
 18 703 l 1
 277 703 l 1
 284 696 l 1
 284 687 l 1
 277 678 l 1
 177 675 l 1
 310 420 l 1
 314 407 l 1
 319 402 l 1
 372 299 l 1
 569 675 l 1
 468 678 l 1
 459 687 l 1
 459 696 l 1
 468 703 l 1
 725 703 l 1
 734 696 l 1
 734 687 l 1
 725 678 l 1
 608 673 l 1
 484 437 l 1
 475 425 l 1
 390 259 l 1
 390 30 l 1
 502 25 l 1
 509 18 l 1
 509 4 l 1
 500 -4 l 1
 247 -4 l 1
 234 3 l 1
EndSplineSet
EndChar

StartChar: Z
Encoding: 90 90 25
Width: 569
Flags: MW
HStem: -4 31 675 28<87 467 87 87 66 507>
LayerCount: 2
Fore
SplineSet
36 3 m 1
 36 24 l 1
 121 149 l 1
 126 156 l 1
 467 675 l 1
 87 675 l 1
 71 565 l 1
 71 560 l 1
 60 507 l 1
 50 501 l 1
 36 505 l 1
 36 542 l 1
 45 606 l 1
 45 615 l 1
 50 632 l 1
 50 641 l 1
 59 696 l 1
 66 703 l 1
 507 703 l 1
 507 675 l 1
 503 670 l 1
 81 30 l 1
 455 25 l 1
 485 31 l 1
 507 192 l 1
 516 200 l 1
 531 200 l 1
 537 186 l 1
 510 1 l 1
 494 -4 l 1
 50 -4 l 1
 36 3 l 1
EndSplineSet
EndChar

StartChar: a
Encoding: 97 97 26
Width: 405
Flags: MW
HStem: -16 34<184 223 184 184> -12 21G<317 341 317 317> 396 20G<198 239 239 239>
VStem: 312 31
LayerCount: 2
Fore
SplineSet
137 -10 m 1xb0
 80 19 l 1
 49 60 l 1
 40 85 l 1
 40 131 l 1
 53 170 l 1
 70 195 l 1
 113 238 l 1
 171 261 l 1
 236 271 l 1
 283 264 l 1
 312 252 l 1
 312 297 l 1
 303 335 l 1
 284 364 l 1
 248 381 l 1
 192 381 l 1
 149 356 l 1
 113 289 l 1
 92 289 l 1
 92 319 l 1
 108 352 l 1
 147 390 l 1
 198 416 l 1
 239 416 l 1
 290 399 l 1
 315 374 l 1
 339 331 l 1
 345 264 l 1
 341 -12 l 1
 317 -12 l 1x70
 311 31 l 1
 269 -1 l 1
 223 -16 l 1
 184 -16 l 1
 137 -10 l 1xb0
125 28 m 1
 159 18 l 1
 223 18 l 1xb0
 260 30 l 1
 292 61 l 1
 312 113 l 1
 312 179 l 1
 299 219 l 1
 266 238 l 1
 208 238 l 1
 143 219 l 1
 99 183 l 1
 70 133 l 1
 70 89 l 1
 87 54 l 1
 125 28 l 1
EndSplineSet
Substitution2: "Single Substitution lookup 12 subtable" ordfeminine
Substitution2: "'sups' Superscript in Latin lookup 4 subtable" asuperior
Substitution2: "'smcp' Lowercase to Small Capitals in Latin lookup 1 subtable" Asmall
EndChar

StartChar: b
Encoding: 98 98 27
Width: 483
Flags: MW
HStem: -16 21G<260 298 260 260> -12 21G 391 20G<234 312 312 312> 675 28<9 94 9 9>
VStem: 96 29
LayerCount: 2
Fore
SplineSet
209 -12 m 1x78
 200 -12 l 1
 105 -3 l 1
 99 9 l 1x78
 94 675 l 1
 9 675 l 1
 0 682 l 1
 0 703 l 1
 115 703 l 1
 124 696 l 1
 127 335 l 1
 136 335 l 1
 145 347 l 1
 182 386 l 1
 234 411 l 1
 312 411 l 1
 358 393 l 1
 407 344 l 1
 441 276 l 1
 453 197 l 1
 441 124 l 1
 403 51 l 1
 358 6 l 1
 298 -16 l 1
 260 -16 l 1xb8
 209 -12 l 1x78
182 21 m 1
 264 13 l 1
 301 18 l 1
 336 30 l 1
 374 61 l 1
 415 137 l 1
 420 204 l 1
 415 256 l 1
 383 325 l 1
 346 362 l 1
 301 381 l 1
 255 381 l 1
 215 372 l 1
 166 322 l 1
 149 297 l 1
 127 234 l 1
 127 21 l 1
 182 21 l 1
EndSplineSet
Substitution2: "'sups' Superscript in Latin lookup 4 subtable" bsuperior
Substitution2: "'smcp' Lowercase to Small Capitals in Latin lookup 1 subtable" Bsmall
EndChar

StartChar: c
Encoding: 99 99 28
Width: 414
Flags: MW
HStem: -16 21G<220 270 220 220> 397 20G<220 220>
LayerCount: 2
Fore
SplineSet
176 -10 m 1
 122 16 l 1
 89 43 l 1
 48 100 l 1
 30 153 l 1
 30 238 l 1
 51 304 l 1
 88 355 l 1
 144 395 l 1
 220 417 l 1
 296 407 l 1
 349 377 l 1
 353 374 l 1
 357 399 l 1
 365 407 l 1
 374 407 l 1
 381 399 l 1
 381 319 l 1
 374 310 l 1
 362 310 l 1
 328 355 l 1
 283 375 l 1
 237 386 l 1
 174 374 l 1
 118 341 l 1
 71 271 l 1
 59 221 l 1
 59 165 l 1
 77 115 l 1
 115 58 l 1
 149 36 l 1
 211 13 l 1
 268 13 l 1
 305 25 l 1
 334 45 l 1
 359 85 l 1
 375 89 l 1
 384 73 l 1
 362 28 l 1
 319 -3 l 1
 270 -16 l 1
 220 -16 l 1
 176 -10 l 1
EndSplineSet
Substitution2: "'smcp' Lowercase to Small Capitals in Latin lookup 1 subtable" Csmall
EndChar

StartChar: d
Encoding: 100 100 29
Width: 506
Flags: MW
HStem: -18 21G -4 29<416 492> 391 20G<184 246 246 246> 672 31
VStem: 30 30<168 234 168 238 168 238> 375 32<69 69 155 225 225 225 326 670 670 670>
LayerCount: 2
Fore
SplineSet
164 -10 m 1xbc
 115 18 l 1
 69 64 l 1
 44 115 l 1
 30 161 l 1
 30 238 l 1
 51 305 l 1
 94 367 l 1
 141 398 l 1
 184 411 l 1
 246 411 l 1
 296 396 l 1
 327 374 l 1
 375 326 l 1
 375 670 l 1
 290 675 l 1
 281 682 l 1
 281 696 l 1
 290 703 l 1
 395 703 l 1
 407 691 l 1
 407 34 l 1
 416 25 l 1
 497 25 l 1x7c
 506 18 l 1
 506 3 l 1xbc
 492 -4 l 1
 386 -4 l 1
 377 4 l 1
 375 69 l 1
 331 25 l 1x7c
 278 -10 l 1
 217 -18 l 1
 164 -10 l 1xbc
173 19 m 1
 221 13 l 1
 264 21 l 1
 297 39 l 1
 348 88 l 1
 375 155 l 1
 375 225 l 1
 367 265 l 1
 336 322 l 1
 302 358 l 1
 255 377 l 1
 217 386 l 1
 166 375 l 1
 111 337 l 1
 81 294 l 1
 60 234 l 1
 60 168 l 1
 78 104 l 1
 120 51 l 1
 173 19 l 1
EndSplineSet
Substitution2: "Single Substitution lookup 12 subtable" dsuperior
Substitution2: "'sups' Superscript in Latin lookup 4 subtable" dsuperior
Substitution2: "'smcp' Lowercase to Small Capitals in Latin lookup 1 subtable" Dsmall
EndChar

StartChar: e
Encoding: 101 101 30
Width: 413
Flags: MW
HStem: -21 21G<184 184 184 251> 229 35<73 349 73 370 60 349> 377 30<200 264 200 200>
VStem: 30 30<150 229 150 250 150 250>
LayerCount: 2
Fore
SplineSet
184 -21 m 1
 112 12 l 1
 69 55 l 1
 36 121 l 1
 30 149 l 1
 30 250 l 1
 44 289 l 1
 76 344 l 1
 130 389 l 1
 184 407 l 1
 285 407 l 1
 328 386 l 1
 358 356 l 1
 377 317 l 1
 383 243 l 1
 370 229 l 1
 60 229 l 1
 60 150 l 1
 88 82 l 1
 138 34 l 1
 173 16 l 1
 213 7 l 1
 273 13 l 1
 316 36 l 1
 336 64 l 1
 358 115 l 1
 379 115 l 1
 379 80 l 1
 349 21 l 1
 306 -7 l 1
 251 -21 l 1
 184 -21 l 1
73 276 m 1
 73 264 l 1
 349 264 l 1
 349 292 l 1
 334 337 l 1
 309 362 l 1
 264 377 l 1
 200 377 l 1
 149 362 l 1
 97 323 l 1
 73 276 l 1
EndSplineSet
Substitution2: "Single Substitution lookup 12 subtable" esuperior
Substitution2: "'sups' Superscript in Latin lookup 4 subtable" esuperior
Substitution2: "'smcp' Lowercase to Small Capitals in Latin lookup 1 subtable" Esmall
EndChar

StartChar: f
Encoding: 102 102 31
Width: 332
Flags: MW
HStem: -9 32 381 32 680 20G<197 244 244 244>
VStem: 83 33<34 361 34 381 34 381>
LayerCount: 2
Fore
SplineSet
49 -9 m 1
 36 4 l 1
 36 15 l 1
 49 21 l 1
 83 25 l 1
 83 381 l 1
 43 381 l 1
 36 396 l 1
 42 411 l 1
 83 416 l 1
 91 551 l 1
 107 618 l 1
 149 676 l 1
 197 700 l 1
 244 700 l 1
 276 688 l 1
 314 650 l 1
 341 602 l 1
 362 547 l 1
 362 530 l 1
 353 520 l 1
 335 529 l 1
 311 597 l 1
 276 653 l 1
 240 670 l 1
 206 670 l 1
 180 657 l 1
 150 627 l 1
 134 590 l 1
 121 542 l 1
 116 466 l 1
 121 416 l 1
 304 411 l 1
 311 402 l 1
 311 387 l 1
 299 381 l 1
 122 381 l 1
 116 361 l 1
 116 34 l 1
 125 25 l 1
 252 21 l 1
 261 13 l 1
 261 -3 l 1
 206 -9 l 1
 49 -9 l 1
EndSplineSet
Substitution2: "'smcp' Lowercase to Small Capitals in Latin lookup 1 subtable" Fsmall
EndChar

StartChar: g
Encoding: 103 103 32
Width: 449
Flags: MW
HStem: -297 35<183 183 183 256> 0 30<269 329 269 269> 372 28 391 20G<205 256 256 256>
VStem: 53 30<209 271 209 286 209 286>
LayerCount: 2
Fore
SplineSet
183 -297 m 1xe8
 93 -271 l 1
 35 -226 l 1
 10 -177 l 1
 10 -136 l 1
 40 -106 l 1
 61 -106 l 1
 61 -127 l 1
 40 -148 l 1
 40 -173 l 1
 55 -203 l 1
 87 -228 l 1
 161 -262 l 1
 286 -262 l 1
 324 -250 l 1
 374 -222 l 1
 402 -180 l 1
 412 -103 l 1
 396 -42 l 1
 366 -12 l 1
 329 0 l 1
 269 0 l 1
 205 -21 l 1
 159 -42 l 1
 138 -42 l 1
 138 -22 l 1
 193 55 l 1
 113 92 l 1
 67 150 l 1
 53 200 l 1
 53 286 l 1
 83 340 l 1
 125 381 l 1
 168 402 l 1
 205 411 l 1
 256 411 l 1xd8
 290 402 l 1
 400 399 l 1
 409 390 l 1
 409 374 l 1
 347 370 l 1
 377 332 l 1
 399 283 l 1
 405 238 l 1
 399 185 l 1
 371 128 l 1
 333 89 l 1
 290 69 l 1
 234 54 l 1
 207 18 l 1
 214 18 l 1
 259 30 l 1
 345 30 l 1
 387 9 l 1
 418 -22 l 1
 439 -69 l 1
 439 -165 l 1
 418 -215 l 1
 375 -258 l 1
 324 -288 l 1
 256 -297 l 1
 183 -297 l 1xe8
156 101 m 1
 201 89 l 1
 251 89 l 1
 304 106 l 1
 345 149 l 1
 371 200 l 1
 371 259 l 1
 359 302 l 1
 329 343 l 1
 278 375 l 1
 214 384 l 1
 149 362 l 1
 108 322 l 1
 83 271 l 1
 83 209 l 1
 96 161 l 1
 108 149 l 1
 119 133 l 1
 156 101 l 1
EndSplineSet
Substitution2: "'smcp' Lowercase to Small Capitals in Latin lookup 1 subtable" Gsmall
EndChar

StartChar: h
Encoding: 104 104 33
Width: 561
Flags: MW
HStem: -4 27 391 20G<284 363 363 363> 672 31
VStem: 138 31 435 31
LayerCount: 2
Fore
SplineSet
40 4 m 1
 40 13 l 1
 49 21 l 1
 134 25 l 1
 138 101 l 1
 138 670 l 1
 49 675 l 1
 40 682 l 1
 40 696 l 1
 49 703 l 1
 155 703 l 1
 168 691 l 1
 171 331 l 1
 175 326 l 1
 198 355 l 1
 230 381 l 1
 284 411 l 1
 363 411 l 1
 405 390 l 1
 439 356 l 1
 451 331 l 1
 464 285 l 1
 464 280 l 1
 469 30 l 1
 469 25 l 1
 554 25 l 1
 561 18 l 1
 561 -4 l 1
 344 -4 l 1
 335 12 l 1
 345 21 l 1
 435 25 l 1
 435 285 l 1
 420 328 l 1
 385 368 l 1
 345 381 l 1
 308 381 l 1
 256 365 l 1
 205 314 l 1
 171 246 l 1
 171 25 l 1
 256 25 l 1
 265 18 l 1
 265 4 l 1
 256 -4 l 1
 49 -4 l 1
 40 4 l 1
EndSplineSet
Substitution2: "Single Substitution lookup 12 subtable" hsuperior
Substitution2: "'sups' Superscript in Latin lookup 4 subtable" hsuperior
Substitution2: "'smcp' Lowercase to Small Capitals in Latin lookup 1 subtable" Hsmall
EndChar

StartChar: i
Encoding: 105 105 34
Width: 245
Flags: MW
HStem: -4 29<49 99 141 226> 372 27 685 20G<122 122>
VStem: 108 31
LayerCount: 2
Fore
SplineSet
10 4 m 1
 10 21 l 1
 49 25 l 1
 99 25 l 1
 108 34 l 1
 108 370 l 1
 10 374 l 1
 10 399 l 1
 129 399 l 1
 138 390 l 1
 141 25 l 1
 226 25 l 1
 235 18 l 1
 235 4 l 1
 226 -4 l 1
 19 -4 l 1
 10 4 l 1
113 538 m 1
 108 581 l 1
 111 696 l 1
 122 705 l 1
 138 697 l 1
 138 547 l 1
 129 538 l 1
 113 538 l 1
EndSplineSet
Substitution2: "'sups' Superscript in Latin lookup 4 subtable" isuperior
Substitution2: "'smcp' Lowercase to Small Capitals in Latin lookup 1 subtable" Ismall
EndChar

StartChar: j
Encoding: 106 106 35
Width: 218
Flags: MW
HStem: -292 21G<9 60 9 9> 372 28 683 20G<140 140>
VStem: 124 30<-173 370 370 370>
LayerCount: 2
Fore
SplineSet
0 -282 m 1
 6 -268 l 1
 72 -258 l 1
 103 -241 l 1
 124 -194 l 1
 124 370 l 1
 39 374 l 1
 32 381 l 1
 32 398 l 1
 69 402 l 1
 154 398 l 1
 154 -173 l 1
 143 -238 l 1
 102 -280 l 1
 60 -292 l 1
 9 -292 l 1
 0 -282 l 1
129 538 m 1
 129 697 l 1
 140 703 l 1
 154 697 l 1
 154 547 l 1
 145 538 l 1
 129 538 l 1
EndSplineSet
Substitution2: "'smcp' Lowercase to Small Capitals in Latin lookup 1 subtable" Jsmall
EndChar

StartChar: k
Encoding: 107 107 36
Width: 504
Flags: MW
HStem: -4 29<35 120 154 239 35 120 285 315 416 492> 372 30 675 28<30 120 29 141>
VStem: 120 34<25 176 221 675 675 675>
LayerCount: 2
Fore
SplineSet
23 3 m 1
 23 19 l 1
 35 25 l 1
 120 25 l 1
 120 675 l 1
 29 675 l 1
 20 693 l 1
 30 703 l 1
 141 703 l 1
 154 691 l 1
 154 221 l 1
 163 221 l 1
 371 370 l 1
 270 374 l 1
 264 390 l 1
 276 402 l 1
 430 402 l 1
 441 390 l 1
 441 381 l 1
 391 344 l 1
 386 340 l 1
 230 229 l 1
 230 216 l 1
 389 31 l 1
 416 25 l 1
 495 25 l 1
 504 7 l 1
 492 -4 l 1
 285 -4 l 1
 270 10 l 1
 285 25 l 1
 315 25 l 1
 349 30 l 1
 197 204 l 1
 154 176 l 1
 154 25 l 1
 239 25 l 1
 246 18 l 1
 246 4 l 1
 239 -4 l 1
 35 -4 l 1
 23 3 l 1
EndSplineSet
Substitution2: "'smcp' Lowercase to Small Capitals in Latin lookup 1 subtable" Ksmall
EndChar

StartChar: l
Encoding: 108 108 37
Width: 238
Flags: MW
HStem: -4 29<22 107 167 232 22 107> 675 28<18 128 27 107 27 27>
VStem: 107 34<31 620 31 636 31 675>
LayerCount: 2
Fore
SplineSet
13 4 m 1
 13 18 l 1
 22 25 l 1
 107 25 l 1
 107 675 l 1
 27 675 l 1
 18 670 l 1
 18 675 l 1
 10 691 l 1
 22 703 l 1
 128 703 l 1
 137 696 l 1
 141 636 l 1
 146 623 l 1
 141 620 l 1
 141 31 l 1
 167 25 l 1
 232 25 l 1
 238 13 l 1
 232 -4 l 1
 22 -4 l 1
 13 4 l 1
EndSplineSet
Substitution2: "'sups' Superscript in Latin lookup 4 subtable" lsuperior
Substitution2: "'smcp' Lowercase to Small Capitals in Latin lookup 1 subtable" Lsmall
EndChar

StartChar: m
Encoding: 109 109 38
Width: 859
Flags: MW
HStem: -4 29<42 123 166 246 39 123 343 424 458 543 641 725 759 844 641 641> 381 30<285 352 288 340 586 586 586 637>
VStem: 123 34<34 186 326 370 370 370> 424 34<25 209 25 286> 725 31
LayerCount: 2
Fore
SplineSet
30 4 m 1
 30 19 l 1
 42 25 l 1
 123 25 l 1
 123 370 l 1
 30 374 l 1
 30 398 l 1
 81 405 l 1
 151 398 l 1
 157 381 l 1
 157 326 l 1
 166 326 l 1
 199 367 l 1
 246 399 l 1
 288 411 l 1
 352 411 l 1
 394 390 l 1
 428 356 l 1
 450 311 l 1
 467 326 l 1
 489 356 l 1
 537 395 l 1
 581 411 l 1
 653 411 l 1
 705 386 l 1
 739 340 l 1
 754 289 l 1
 759 25 l 1
 844 25 l 1
 859 10 l 1
 844 -4 l 1
 641 -4 l 1
 626 10 l 1
 634 25 l 1
 725 25 l 1
 725 289 l 1
 705 338 l 1
 674 370 l 1
 637 381 l 1
 586 381 l 1
 534 356 l 1
 497 319 l 1
 465 255 l 1
 458 209 l 1
 458 25 l 1
 543 25 l 1
 558 10 l 1
 543 -4 l 1
 340 -4 l 1
 331 4 l 1
 331 19 l 1
 343 25 l 1
 424 25 l 1
 424 286 l 1
 404 338 l 1
 377 365 l 1
 340 381 l 1
 285 381 l 1
 242 361 l 1
 196 314 l 1
 163 250 l 1
 157 186 l 1
 157 34 l 1
 166 25 l 1
 246 25 l 1
 255 18 l 1
 255 4 l 1
 246 -4 l 1
 39 -4 l 1
 30 4 l 1
EndSplineSet
Substitution2: "'sups' Superscript in Latin lookup 4 subtable" msuperior
Substitution2: "'smcp' Lowercase to Small Capitals in Latin lookup 1 subtable" Msmall
EndChar

StartChar: n
Encoding: 110 110 39
Width: 562
Flags: MW
HStem: -4 29<49 122 194 249 46 122 347 428 478 550> 372 30 391 20G<279 350 350 350>
VStem: 130 34<34 238> 428 32<30 238 30 289>
LayerCount: 2
Fore
SplineSet
33 3 m 1xb8
 33 19 l 1
 49 25 l 1
 122 25 l 1
 130 34 l 1
 130 370 l 1
 42 374 l 1
 30 384 l 1
 39 402 l 1
 153 402 l 1xd8
 159 390 l 1
 164 331 l 1
 173 331 l 1
 228 386 l 1
 279 411 l 1
 350 411 l 1
 392 396 l 1
 440 347 l 1
 456 299 l 1
 460 238 l 1
 460 30 l 1
 465 30 l 1
 478 25 l 1
 551 25 l 1
 562 7 l 1
 550 -4 l 1
 343 -4 l 1
 334 4 l 1
 334 19 l 1
 347 25 l 1
 428 25 l 1
 428 289 l 1
 416 322 l 1
 396 352 l 1
 368 374 l 1
 343 381 l 1
 295 381 l 1
 249 364 l 1
 197 313 l 1
 164 238 l 1
 164 31 l 1
 194 25 l 1
 249 25 l 1
 258 18 l 1
 258 4 l 1
 249 -4 l 1
 46 -4 l 1
 33 3 l 1xb8
EndSplineSet
Substitution2: "Single Substitution lookup 12 subtable" nsuperior
Substitution2: "'sups' Superscript in Latin lookup 4 subtable" nsuperior
Substitution2: "'smcp' Lowercase to Small Capitals in Latin lookup 1 subtable" Nsmall
EndChar

StartChar: o
Encoding: 111 111 40
Width: 468
Flags: MW
HStem: -21 21G<231 259 231 231> 396 20G<237 237>
LayerCount: 2
Fore
SplineSet
179 -15 m 1
 116 18 l 1
 86 46 l 1
 73 64 l 1
 65 73 l 1
 39 127 l 1
 30 198 l 1
 39 265 l 1
 70 326 l 1
 115 372 l 1
 165 401 l 1
 237 416 l 1
 298 402 l 1
 337 384 l 1
 374 352 l 1
 416 299 l 1
 438 223 l 1
 438 170 l 1
 417 98 l 1
 387 55 l 1
 349 18 l 1
 316 -4 l 1
 259 -21 l 1
 231 -21 l 1
 179 -15 l 1
158 28 m 1
 209 13 l 1
 264 13 l 1
 311 30 l 1
 352 60 l 1
 386 106 l 1
 404 170 l 1
 404 225 l 1
 392 276 l 1
 356 329 l 1
 308 365 l 1
 243 384 l 1
 176 372 l 1
 121 340 l 1
 82 285 l 1
 65 229 l 1
 65 161 l 1
 77 119 l 1
 103 70 l 1
 158 28 l 1
EndSplineSet
Substitution2: "Single Substitution lookup 12 subtable" ordmasculine
Substitution2: "'sups' Superscript in Latin lookup 4 subtable" osuperior
Substitution2: "'smcp' Lowercase to Small Capitals in Latin lookup 1 subtable" Osmall
EndChar

StartChar: p
Encoding: 112 112 41
Width: 507
Flags: MW
HStem: -283 28<37 93 136 212> -16 21G<254 313 254 254> 372 27 391 20G<258 306 306 306>
VStem: 93 34<-246 55 -246 370>
LayerCount: 2
Fore
SplineSet
0 -276 m 1xd8
 0 -259 l 1
 37 -255 l 1
 93 -255 l 1
 93 370 l 1
 0 374 l 1
 0 399 l 1
 121 399 l 1
 127 386 l 1
 131 326 l 1
 182 377 l 1
 216 399 l 1xe8
 258 411 l 1
 306 411 l 1
 356 401 l 1
 407 367 l 1
 437 326 l 1
 468 262 l 1
 477 176 l 1
 453 88 l 1
 404 25 l 1
 356 -4 l 1
 313 -16 l 1
 254 -16 l 1
 201 1 l 1
 166 30 l 1
 136 64 l 1
 127 55 l 1
 127 -246 l 1
 136 -255 l 1
 212 -255 l 1
 221 -262 l 1
 221 -276 l 1
 212 -283 l 1
 8 -283 l 1
 0 -276 l 1xd8
212 30 m 1
 267 13 l 1
 306 13 l 1
 359 30 l 1
 407 76 l 1
 441 145 l 1
 441 250 l 1
 411 310 l 1
 385 346 l 1
 332 375 l 1
 271 384 l 1
 224 370 l 1
 180 340 l 1
 146 288 l 1
 131 234 l 1
 131 156 l 1
 143 115 l 1
 161 80 l 1
 212 30 l 1
EndSplineSet
Substitution2: "'smcp' Lowercase to Small Capitals in Latin lookup 1 subtable" Psmall
EndChar

StartChar: q
Encoding: 113 113 42
Width: 509
Flags: MW
HStem: -283 31 -16 21G<191 242 191 191> 372 30 391 20G<175 255 255 255>
VStem: 30 34<164 231 231 231> 382 34<-250 51 51 51 340 370 -250 398 -250 398>
LayerCount: 2
Fore
SplineSet
287 -279 m 1xec
 281 -267 l 1
 292 -255 l 1
 382 -250 l 1
 382 51 l 1
 373 69 l 1
 346 31 l 1
 288 -7 l 1
 242 -16 l 1
 191 -16 l 1
 145 -1 l 1
 94 33 l 1
 50 95 l 1
 30 164 l 1
 30 231 l 1
 44 276 l 1
 67 331 l 1
 124 386 l 1
 175 411 l 1
 255 411 l 1xdc
 292 399 l 1
 327 377 l 1
 373 331 l 1
 382 340 l 1
 382 398 l 1
 403 402 l 1
 501 402 l 1
 509 395 l 1
 509 380 l 1
 497 374 l 1
 416 370 l 1
 416 -250 l 1
 501 -255 l 1
 509 -262 l 1
 509 -279 l 1
 458 -283 l 1
 297 -283 l 1
 287 -279 l 1xec
187 18 m 1
 221 12 l 1
 267 21 l 1
 310 43 l 1
 346 79 l 1
 370 131 l 1
 377 174 l 1
 377 229 l 1
 370 271 l 1
 348 314 l 1
 306 356 l 1
 255 381 l 1
 194 381 l 1
 142 362 l 1
 93 313 l 1
 64 249 l 1
 64 145 l 1
 99 76 l 1
 139 36 l 1
 187 18 l 1
EndSplineSet
Substitution2: "'smcp' Lowercase to Small Capitals in Latin lookup 1 subtable" Qsmall
EndChar

StartChar: r
Encoding: 114 114 43
Width: 373
Flags: MW
HStem: -4 28 374 28<40 130 40 40> 396 20G<247 289 289 289>
VStem: 130 32<33 221 33 374>
LayerCount: 2
Fore
SplineSet
30 6 m 1xb0
 39 21 l 1
 130 27 l 1
 130 374 l 1
 40 374 l 1
 31 390 l 1
 39 402 l 1
 150 402 l 1xd0
 159 395 l 1
 164 353 l 1
 206 395 l 1
 247 416 l 1
 289 416 l 1
 335 381 l 1
 358 335 l 1
 358 316 l 1
 343 308 l 1
 332 319 l 1
 316 352 l 1
 286 381 l 1
 240 381 l 1
 197 340 l 1
 171 289 l 1
 162 221 l 1
 162 33 l 1
 176 25 l 1
 247 25 l 1
 256 18 l 1
 256 -4 l 1
 40 -4 l 1
 30 6 l 1xb0
EndSplineSet
Substitution2: "Single Substitution lookup 12 subtable" rsuperior
Substitution2: "'sups' Superscript in Latin lookup 4 subtable" rsuperior
Substitution2: "'smcp' Lowercase to Small Capitals in Latin lookup 1 subtable" Rsmall
EndChar

StartChar: s
Encoding: 115 115 44
Width: 386
Flags: MW
HStem: -16 21G<212 212> -9 21G<66 74 66 66> 399 20G<206 206>
LayerCount: 2
Fore
SplineSet
159 -10 m 1xa0
 112 13 l 1
 87 39 l 1
 83 0 l 1
 74 -9 l 1
 66 -9 l 1x60
 53 4 l 1
 53 156 l 1
 66 170 l 1
 74 170 l 1
 83 161 l 1
 89 100 l 1
 103 69 l 1
 147 25 l 1
 179 18 l 1
 243 18 l 1
 287 39 l 1
 303 79 l 1
 303 128 l 1
 291 161 l 1
 252 189 l 1
 121 228 l 1
 81 268 l 1
 74 297 l 1
 74 346 l 1
 94 377 l 1
 138 408 l 1
 206 419 l 1
 258 408 l 1
 285 395 l 1
 312 368 l 1
 328 331 l 1
 328 301 l 1
 306 301 l 1
 285 356 l 1
 249 381 l 1
 194 387 l 1
 154 381 l 1
 117 356 l 1
 103 331 l 1
 103 310 l 1
 114 274 l 1
 147 255 l 1
 197 238 l 1
 202 238 l 1
 281 213 l 1
 315 179 l 1
 333 140 l 1
 333 64 l 1
 315 30 l 1
 290 4 l 1
 261 -10 l 1
 212 -16 l 1
 159 -10 l 1xa0
EndSplineSet
Substitution2: "Single Substitution lookup 12 subtable" ssuperior
Substitution2: "'sups' Superscript in Latin lookup 4 subtable" ssuperior
Substitution2: "'smcp' Lowercase to Small Capitals in Latin lookup 1 subtable" Ssmall
EndChar

StartChar: t
Encoding: 116 116 45
Width: 312
Flags: MW
HStem: -16 21G<177 203 177 177> -12 21G<131 149 131 131> 386 32 481 20G<80 97 97 97>
VStem: 71 30<76 377 377 377 420 480>
LayerCount: 2
Fore
SplineSet
149 -12 m 1x78
 131 -12 l 1x78
 94 13 l 1
 79 42 l 1
 71 76 l 1
 71 377 l 1
 64 386 l 1
 25 390 l 1
 25 414 l 1
 71 420 l 1
 71 492 l 1
 80 501 l 1
 97 501 l 1
 101 480 l 1
 101 420 l 1
 295 416 l 1
 302 401 l 1
 288 386 l 1
 101 386 l 1
 101 69 l 1
 121 31 l 1
 149 18 l 1
 204 18 l 1
 229 30 l 1
 246 46 l 1
 274 107 l 1
 288 115 l 1
 301 109 l 1
 301 85 l 1
 276 34 l 1
 241 0 l 1
 203 -16 l 1
 177 -16 l 1xb8
 149 -12 l 1x78
EndSplineSet
Substitution2: "Single Substitution lookup 12 subtable" tsuperior
Substitution2: "'sups' Superscript in Latin lookup 4 subtable" tsuperior
Substitution2: "'smcp' Lowercase to Small Capitals in Latin lookup 1 subtable" Tsmall
EndChar

StartChar: u
Encoding: 117 117 46
Width: 552
Flags: MW
HStem: -12 21G<204 259 204 204> -2 29 375 27
VStem: 96 32 395 34<30 76 76 76 180 372 30 372>
LayerCount: 2
Fore
SplineSet
160 6 m 1x78
 133 34 l 1
 107 80 l 1
 99 131 l 1
 94 374 l 1
 0 378 l 1
 0 402 l 1
 218 402 l 1
 227 393 l 1
 219 378 l 1
 128 372 l 1
 128 118 l 1
 151 58 l 1
 170 39 l 1
 213 18 l 1
 259 18 l 1
 294 28 l 1
 341 63 l 1
 377 121 l 1
 395 180 l 1
 395 372 l 1
 301 378 l 1
 301 402 l 1
 522 402 l 1
 522 378 l 1
 429 372 l 1
 429 30 l 1
 514 25 l 1
 522 18 l 1
 522 0 l 1
 446 -4 l 1
 400 0 l 1
 395 25 l 1
 395 76 l 1
 386 73 l 1
 355 33 l 1
 297 -6 l 1
 259 -12 l 1
 204 -12 l 1xb8
 160 6 l 1x78
EndSplineSet
Substitution2: "'smcp' Lowercase to Small Capitals in Latin lookup 1 subtable" Usmall
EndChar

StartChar: v
Encoding: 118 118 47
Width: 529
Flags: MW
HStem: 0 21G<257 257 257 277> 375 32
LayerCount: 2
Fore
SplineSet
257 0 m 1
 103 372 l 1
 11 377 l 1
 0 389 l 1
 8 402 l 1
 130 407 l 1
 228 402 l 1
 228 378 l 1
 139 372 l 1
 264 67 l 1
 270 73 l 1
 371 322 l 1
 376 340 l 1
 389 365 l 1
 389 374 l 1
 312 377 l 1
 304 386 l 1
 304 395 l 1
 316 407 l 1
 516 407 l 1
 529 395 l 1
 529 386 l 1
 520 377 l 1
 426 374 l 1
 277 0 l 1
 257 0 l 1
EndSplineSet
Substitution2: "'smcp' Lowercase to Small Capitals in Latin lookup 1 subtable" Vsmall
EndChar

StartChar: w
Encoding: 119 119 48
Width: 728
Flags: MW
HStem: 0 21G<234 241 234 234 474 499 474 474> 376 29 388 20G<621 621>
LayerCount: 2
Fore
SplineSet
220 13 m 1xc0
 100 372 l 1
 9 377 l 1
 0 386 l 1
 0 395 l 1
 9 402 l 1
 225 402 l 1
 225 386 l 1
 216 377 l 1
 135 372 l 1
 207 156 l 1
 207 153 l 1
 232 80 l 1
 241 80 l 1
 339 372 l 1
 259 377 l 1
 247 389 l 1
 255 402 l 1
 374 402 l 1
 485 70 l 1
 491 76 l 1
 590 372 l 1
 500 378 l 1
 500 402 l 1
 621 408 l 1xa0
 722 402 l 1
 728 390 l 1
 722 378 l 1
 626 374 l 1
 538 115 l 1
 538 110 l 1
 499 0 l 1
 474 0 l 1
 365 331 l 1
 351 305 l 1
 255 13 l 1
 241 0 l 1
 234 0 l 1
 220 13 l 1xc0
EndSplineSet
Substitution2: "'smcp' Lowercase to Small Capitals in Latin lookup 1 subtable" Wsmall
EndChar

StartChar: x
Encoding: 120 120 49
Width: 517
Flags: MW
HStem: 0 27 375 29 391 20G<74 74>
LayerCount: 2
Fore
SplineSet
0 9 m 1xc0
 0 25 l 1
 89 30 l 1
 119 64 l 1
 127 76 l 1
 131 80 l 1
 182 145 l 1
 186 149 l 1
 234 209 l 1
 234 216 l 1
 216 241 l 1
 211 246 l 1
 112 374 l 1
 25 377 l 1
 18 386 l 1
 18 402 l 1
 74 411 l 1xa0
 216 402 l 1
 216 378 l 1
 161 374 l 1
 156 370 l 1
 258 240 l 1
 285 276 l 1
 289 280 l 1
 322 322 l 1
 344 344 l 1
 359 372 l 1
 304 378 l 1
 296 392 l 1
 301 402 l 1
 381 407 l 1
 496 402 l 1
 496 378 l 1
 404 372 l 1
 285 221 l 1
 285 209 l 1
 352 119 l 1
 360 110 l 1
 422 30 l 1
 509 25 l 1
 517 18 l 1
 517 9 l 1
 509 0 l 1
 320 0 l 1
 313 16 l 1
 322 25 l 1
 381 30 l 1
 265 179 l 1
 250 179 l 1
 140 39 l 1
 140 30 l 1
 191 25 l 1
 200 18 l 1
 200 9 l 1
 191 0 l 1
 9 0 l 1
 0 9 l 1xc0
EndSplineSet
Substitution2: "'smcp' Lowercase to Small Capitals in Latin lookup 1 subtable" Xsmall
EndChar

StartChar: y
Encoding: 121 121 50
Width: 535
Flags: MW
HStem: -280 21G<90 115 90 90> 372 27
LayerCount: 2
Fore
SplineSet
81 -271 m 1
 87 -255 l 1
 127 -246 l 1
 169 -222 l 1
 191 -177 l 1
 249 7 l 1
 105 370 l 1
 9 374 l 1
 0 381 l 1
 0 390 l 1
 9 399 l 1
 221 399 l 1
 228 390 l 1
 228 381 l 1
 221 374 l 1
 140 370 l 1
 195 229 l 1
 200 221 l 1
 257 74 l 1
 267 64 l 1
 391 370 l 1
 307 374 l 1
 301 390 l 1
 310 399 l 1
 522 399 l 1
 529 390 l 1
 529 381 l 1
 522 374 l 1
 428 370 l 1
 207 -221 l 1
 163 -265 l 1
 115 -280 l 1
 90 -280 l 1
 81 -271 l 1
EndSplineSet
Substitution2: "'smcp' Lowercase to Small Capitals in Latin lookup 1 subtable" Ysmall
EndChar

StartChar: z
Encoding: 122 122 51
Width: 447
Flags: MW
HStem: -4 29<129 342 129 362> 370 32<107 320 104 362>
LayerCount: 2
Fore
SplineSet
65 3 m 1
 65 19 l 1
 82 43 l 1
 86 46 l 1
 171 161 l 1
 175 165 l 1
 320 361 l 1
 320 370 l 1
 104 370 l 1
 104 347 l 1
 89 276 l 1
 65 276 l 1
 61 289 l 1
 70 340 l 1
 70 344 l 1
 79 398 l 1
 107 402 l 1
 362 402 l 1
 371 395 l 1
 371 378 l 1
 113 31 l 1
 129 25 l 1
 342 25 l 1
 350 39 l 1
 362 115 l 1
 371 124 l 1
 390 124 l 1
 383 55 l 1
 383 51 l 1
 375 9 l 1
 362 -4 l 1
 79 -4 l 1
 65 3 l 1
EndSplineSet
Substitution2: "'smcp' Lowercase to Small Capitals in Latin lookup 1 subtable" Zsmall
EndChar

StartChar: Asmall
Encoding: 65537 -1 52
Width: 482
Flags: MW
HStem: -4 29<55 83 131 174 305 356 395 462> 106 34<164 314 164 322 156 314> 379 20G<161 249 249 249>
LayerCount: 2
Fore
SplineSet
9 4 m 1
 9 21 l 1
 55 25 l 1
 83 25 l 1
 216 365 l 1
 207 370 l 1
 161 370 l 1
 152 377 l 1
 152 390 l 1
 161 399 l 1
 249 399 l 1
 395 25 l 1
 462 25 l 1
 474 15 l 1
 463 -4 l 1
 305 -4 l 1
 290 10 l 1
 305 25 l 1
 356 25 l 1
 356 34 l 1
 334 94 l 1
 322 106 l 1
 156 106 l 1
 147 98 l 1
 121 31 l 1
 131 25 l 1
 174 25 l 1
 188 12 l 1
 180 -4 l 1
 16 -4 l 1
 9 4 l 1
164 140 m 1
 314 140 l 1
 246 326 l 1
 238 334 l 1
 164 140 l 1
EndSplineSet
Substitution2: "Single Substitution lookup 13 subtable" ordmasculine
Substitution2: "Single Substitution lookup 12 subtable" ordfeminine
EndChar

StartChar: Bsmall
Encoding: 65538 -1 53
Width: 380
Flags: MW
HStem: -4 34<127 258> 204 34<127 246 127 242> 370 29<94 94 127 127 127 246>
VStem: 94 33<101 204 238 370>
LayerCount: 2
Fore
SplineSet
21 1 m 1
 21 19 l 1
 35 25 l 1
 90 25 l 1
 94 101 l 1
 94 370 l 1
 27 374 l 1
 20 389 l 1
 30 399 l 1
 255 399 l 1
 298 384 l 1
 327 356 l 1
 340 331 l 1
 340 297 l 1
 330 261 l 1
 289 222 l 1
 333 188 l 1
 351 150 l 1
 356 119 l 1
 352 76 l 1
 340 43 l 1
 310 13 l 1
 258 -4 l 1
 39 -4 l 1
 21 1 l 1
127 204 m 1
 127 30 l 1
 267 30 l 1
 307 49 l 1
 322 80 l 1
 322 131 l 1
 316 155 l 1
 280 191 l 1
 242 204 l 1
 127 204 l 1
127 238 m 1
 246 238 l 1
 288 259 l 1
 310 291 l 1
 310 319 l 1
 303 337 l 1
 282 359 l 1
 246 370 l 1
 127 370 l 1
 127 238 l 1
EndSplineSet
EndChar

StartChar: Csmall
Encoding: 65539 -1 54
Width: 409
Flags: MW
HStem: -19 21G<234 234> -12 21G<174 195 174 174> 391 20G<195 275 275 275>
LayerCount: 2
Fore
SplineSet
195 -12 m 1x60
 174 -12 l 1x60
 106 21 l 1
 59 69 l 1
 28 131 l 1
 21 200 l 1
 27 262 l 1
 65 338 l 1
 110 377 l 1
 158 404 l 1
 195 411 l 1
 275 411 l 1
 326 386 l 1
 343 375 l 1
 347 395 l 1
 356 402 l 1
 372 402 l 1
 380 350 l 1
 372 310 l 1
 354 310 l 1
 328 344 l 1
 293 371 l 1
 255 381 l 1
 204 381 l 1
 149 365 l 1
 115 343 l 1
 73 292 l 1
 55 234 l 1
 55 149 l 1
 89 80 l 1
 118 52 l 1
 156 30 l 1
 199 18 l 1
 275 18 l 1
 317 39 l 1
 331 51 l 1
 353 89 l 1
 365 89 l 1
 372 80 l 1
 377 43 l 1
 372 -1 l 1
 360 -9 l 1
 350 -3 l 1
 343 18 l 1
 310 -4 l 1
 234 -19 l 1xa0
 195 -12 l 1x60
EndSplineSet
EndChar

StartChar: Dsmall
Encoding: 65540 -1 55
Width: 440
Flags: MW
HStem: -4 21G<194 194> -2 32 0 21G<24 24 274 274 274 292> 370 32<130 253 31 274 130 130>
VStem: 97 31
LayerCount: 2
Fore
SplineSet
24 0 m 1x38
 24 25 l 1
 97 30 l 1x58
 97 368 l 1
 33 374 l 1
 21 384 l 1
 31 402 l 1
 253 402 l 1
 328 392 l 1
 374 361 l 1
 399 328 l 1
 414 259 l 1
 414 146 l 1
 386 69 l 1
 343 25 l 1
 292 0 l 1
 274 0 l 1x38
 194 -4 l 1x98
 24 0 l 1x38
127 55 m 1x38
 130 30 l 1
 271 30 l 1x58
 323 49 l 1
 357 83 l 1
 380 137 l 1
 387 216 l 1
 375 292 l 1
 372 301 l 1
 365 320 l 1
 329 358 l 1
 274 370 l 1
 130 370 l 1
 127 55 l 1x38
EndSplineSet
Substitution2: "Single Substitution lookup 12 subtable" dsuperior
EndChar

StartChar: Esmall
Encoding: 65541 -1 56
Width: 349
Flags: MW
HStem: 0 30<90 90 125 315> 206 30 372 30
VStem: 90 35<30 204 238 370>
LayerCount: 2
Fore
SplineSet
19 9 m 1
 19 18 l 1
 28 25 l 1
 90 30 l 1
 90 370 l 1
 28 374 l 1
 19 381 l 1
 19 390 l 1
 32 402 l 1
 315 402 l 1
 330 389 l 1
 321 374 l 1
 125 370 l 1
 125 238 l 1
 285 234 l 1
 294 225 l 1
 294 216 l 1
 285 209 l 1
 125 204 l 1
 125 30 l 1
 315 30 l 1
 330 100 l 1
 336 106 l 1
 358 106 l 1
 358 85 l 1
 354 64 l 1
 354 60 l 1
 344 7 l 1
 336 0 l 1
 28 0 l 1
 19 9 l 1
EndSplineSet
Substitution2: "Single Substitution lookup 12 subtable" esuperior
EndChar

StartChar: Fsmall
Encoding: 65542 -1 57
Width: 330
Flags: MW
HStem: -4 31 188 33 372 27
VStem: 90 33<30 186 221 370>
LayerCount: 2
Fore
SplineSet
17 1 m 1
 17 18 l 1
 26 25 l 1
 90 30 l 1
 90 370 l 1
 26 374 l 1
 17 381 l 1
 17 390 l 1
 26 399 l 1
 318 399 l 1
 330 387 l 1
 322 374 l 1
 123 370 l 1
 123 221 l 1
 291 221 l 1
 298 206 l 1
 285 191 l 1
 123 186 l 1
 123 30 l 1
 204 25 l 1
 212 18 l 1
 212 1 l 1
 175 -4 l 1
 35 -4 l 1
 17 1 l 1
EndSplineSet
EndChar

StartChar: Gsmall
Encoding: 65543 -1 58
Width: 409
Flags: MW
HStem: -18 21G<237 237> 183 29<276 344 276 276> 396 20G<244 244>
VStem: 344 34<76 183 183 183 375 375>
LayerCount: 2
Fore
SplineSet
171 -10 m 1
 115 18 l 1
 61 64 l 1
 28 133 l 1
 21 200 l 1
 28 262 l 1
 60 326 l 1
 104 371 l 1
 165 405 l 1
 244 416 l 1
 289 402 l 1
 344 375 l 1
 349 395 l 1
 356 402 l 1
 373 402 l 1
 378 386 l 1
 378 319 l 1
 370 310 l 1
 355 310 l 1
 323 350 l 1
 276 375 l 1
 234 384 l 1
 188 377 l 1
 131 355 l 1
 89 314 l 1
 63 259 l 1
 55 221 l 1
 55 149 l 1
 80 98 l 1
 107 64 l 1
 151 31 l 1
 204 13 l 1
 259 13 l 1
 310 30 l 1
 338 58 l 1
 344 76 l 1
 344 183 l 1
 276 183 l 1
 262 197 l 1
 270 212 l 1
 365 212 l 1
 378 200 l 1
 378 -1 l 1
 359 -10 l 1
 349 0 l 1
 343 15 l 1
 298 -9 l 1
 237 -18 l 1
 171 -10 l 1
EndSplineSet
EndChar

StartChar: Hsmall
Encoding: 65544 -1 59
Width: 474
Flags: MW
HStem: -4 27 200 34<127 348 127 348> 367 32
VStem: 93 34<25 200 234 365 365 365> 348 32<25 200 200 200 234 234 25 365>
LayerCount: 2
Fore
SplineSet
20 6 m 1
 27 21 l 1
 93 25 l 1
 93 365 l 1
 27 370 l 1
 20 384 l 1
 33 399 l 1
 187 399 l 1
 200 384 l 1
 193 370 l 1
 127 370 l 1
 127 234 l 1
 348 234 l 1
 352 276 l 1
 348 365 l 1
 288 370 l 1
 279 377 l 1
 279 392 l 1
 293 399 l 1
 445 399 l 1
 454 390 l 1
 454 370 l 1
 380 365 l 1
 380 25 l 1
 454 21 l 1
 454 -4 l 1
 288 -4 l 1
 279 4 l 1
 279 21 l 1
 348 25 l 1
 348 200 l 1
 127 200 l 1
 127 25 l 1
 193 21 l 1
 199 9 l 1
 193 -4 l 1
 29 -4 l 1
 20 6 l 1
EndSplineSet
Substitution2: "Single Substitution lookup 12 subtable" hsuperior
EndChar

StartChar: Ismall
Encoding: 65545 -1 60
Width: 196
Flags: MW
HStem: -9 32 365 30<18 77 16 181 116 116 116 174>
VStem: 79 32
LayerCount: 2
Fore
SplineSet
9 0 m 1
 9 15 l 1
 22 21 l 1
 77 25 l 1
 82 225 l 1
 77 365 l 1
 16 365 l 1
 7 383 l 1
 18 395 l 1
 181 395 l 1
 189 378 l 1
 174 365 l 1
 116 365 l 1
 111 259 l 1
 111 27 l 1
 128 21 l 1
 174 21 l 1
 183 13 l 1
 183 -1 l 1
 171 -9 l 1
 18 -9 l 1
 9 0 l 1
EndSplineSet
EndChar

StartChar: Jsmall
Encoding: 65546 -1 61
Width: 243
Flags: MW
HStem: -21 21G<74 129 74 74> 365 30<51 120 48 175>
VStem: 154 30<46 386 361 386>
LayerCount: 2
Fore
SplineSet
48 -12 m 1
 14 21 l 1
 4 61 l 1
 11 76 l 1
 30 76 l 1
 41 37 l 1
 60 18 l 1
 92 6 l 1
 138 16 l 1
 154 46 l 1
 154 361 l 1
 120 365 l 1
 48 365 l 1
 39 374 l 1
 39 387 l 1
 51 395 l 1
 175 395 l 1
 184 386 l 1
 187 305 l 1
 182 34 l 1
 165 -3 l 1
 129 -21 l 1
 74 -21 l 1
 48 -12 l 1
EndSplineSet
EndChar

StartChar: Ksmall
Encoding: 65547 -1 62
Width: 437
Flags: MW
HStem: -4 27 372 27 382 20G<228 356 356 356>
VStem: 92 30<25 161 212 370>
LayerCount: 2
Fore
SplineSet
21 -4 m 1xb0
 21 21 l 1
 92 25 l 1
 92 370 l 1
 28 370 l 1
 21 377 l 1
 21 399 l 1
 192 399 l 1xd0
 199 383 l 1
 191 374 l 1
 122 370 l 1
 122 212 l 1
 131 212 l 1
 301 361 l 1
 304 370 l 1
 223 374 l 1
 216 381 l 1
 216 390 l 1
 228 402 l 1
 356 402 l 1
 369 389 l 1
 363 377 l 1
 191 222 l 1
 207 191 l 1
 237 161 l 1
 344 25 l 1
 421 21 l 1
 429 6 l 1
 419 -4 l 1
 258 -4 l 1
 249 4 l 1
 249 13 l 1
 258 21 l 1
 304 25 l 1
 168 195 l 1
 156 195 l 1
 122 161 l 1
 122 25 l 1
 194 21 l 1
 194 -4 l 1
 21 -4 l 1xb0
EndSplineSet
EndChar

StartChar: Lsmall
Encoding: 65548 -1 63
Width: 371
Flags: MW
HStem: -4 29<95 95 128 321> 372 30
VStem: 95 33<25 368 25 370 25 370>
LayerCount: 2
Fore
SplineSet
20 6 m 1
 28 21 l 1
 95 25 l 1
 95 370 l 1
 35 374 l 1
 26 381 l 1
 26 398 l 1
 72 402 l 1
 187 402 l 1
 202 389 l 1
 195 374 l 1
 128 368 l 1
 128 25 l 1
 321 25 l 1
 327 39 l 1
 341 98 l 1
 348 106 l 1
 357 106 l 1
 367 95 l 1
 351 1 l 1
 341 -4 l 1
 31 -4 l 1
 20 6 l 1
EndSplineSet
EndChar

StartChar: Msmall
Encoding: 65549 -1 64
Width: 511
Flags: MW
HStem: -4 27 372 30
VStem: 96 35<25 326 25 370> 381 34<25 326 326 326>
LayerCount: 2
Fore
SplineSet
25 4 m 1
 25 21 l 1
 71 25 l 1
 96 25 l 1
 96 370 l 1
 34 374 l 1
 22 384 l 1
 31 402 l 1
 122 402 l 1
 253 228 l 1
 275 250 l 1
 342 340 l 1
 347 344 l 1
 367 374 l 1
 372 377 l 1
 393 402 l 1
 481 402 l 1
 490 384 l 1
 479 374 l 1
 415 368 l 1
 415 25 l 1
 478 21 l 1
 487 13 l 1
 487 3 l 1
 475 -4 l 1
 315 -4 l 1
 308 10 l 1
 312 21 l 1
 381 25 l 1
 381 326 l 1
 376 332 l 1
 305 238 l 1
 300 234 l 1
 296 225 l 1
 287 216 l 1
 263 186 l 1
 247 186 l 1
 139 326 l 1
 131 326 l 1
 131 25 l 1
 190 25 l 1
 204 12 l 1
 196 -4 l 1
 34 -4 l 1
 25 4 l 1
EndSplineSet
EndChar

StartChar: Nsmall
Encoding: 65550 -1 65
Width: 492
Flags: MW
HStem: -6 21G<382 382> -4 29<32 91 130 188 32 32> 374 28<32 45 32 32 401 401 401 459>
VStem: 96 34<76 326 25 368> 367 32
LayerCount: 2
Fore
SplineSet
21 7 m 1x78
 30 25 l 1
 91 25 l 1x78
 96 76 l 1
 96 368 l 1
 45 374 l 1
 32 374 l 1
 21 384 l 1
 30 402 l 1
 112 402 l 1
 142 374 l 1
 359 69 l 1
 367 76 l 1
 367 368 l 1
 307 374 l 1
 292 387 l 1
 307 402 l 1
 459 402 l 1
 474 387 l 1
 459 374 l 1
 401 374 l 1
 397 9 l 1
 382 -6 l 1xb8
 362 13 l 1
 133 331 l 1
 130 326 l 1
 130 25 l 1
 188 25 l 1
 197 18 l 1
 197 4 l 1
 188 -4 l 1
 32 -4 l 1
 21 7 l 1x78
EndSplineSet
Substitution2: "Single Substitution lookup 12 subtable" nsuperior
EndChar

StartChar: Osmall
Encoding: 65551 -1 66
Width: 481
Flags: MW
HStem: -16 21G<235 235> -12 21G<281 295 281 281> 396 20G<239 239>
LayerCount: 2
Fore
SplineSet
175 -10 m 1xa0
 120 18 l 1
 81 46 l 1
 44 94 l 1
 22 161 l 1
 22 229 l 1
 35 280 l 1
 62 328 l 1
 105 372 l 1
 146 395 l 1
 192 411 l 1
 239 416 l 1
 298 410 l 1
 362 377 l 1
 411 328 l 1
 444 271 l 1
 454 200 l 1
 445 137 l 1
 412 73 l 1
 362 21 l 1
 295 -12 l 1
 281 -12 l 1x60
 235 -16 l 1
 175 -10 l 1xa0
162 30 m 1
 201 18 l 1
 272 18 l 1
 317 33 l 1
 372 72 l 1
 405 121 l 1
 423 182 l 1
 415 253 l 1
 387 310 l 1
 342 355 l 1
 278 381 l 1
 205 381 l 1
 144 362 l 1
 101 326 l 1
 68 280 l 1
 52 223 l 1
 52 170 l 1
 71 112 l 1
 111 58 l 1
 162 30 l 1
EndSplineSet
EndChar

StartChar: Psmall
Encoding: 65552 -1 67
Width: 364
Flags: MW
HStem: -4 27 165 30<130 266 122 271 130 130> 370 31 385 20G<81 81>
VStem: 89 33<25 156 195 370> 326 29<250 314 314 314>
LayerCount: 2
Fore
SplineSet
20 4 m 1xdc
 20 21 l 1
 89 25 l 1
 89 370 l 1xec
 29 374 l 1
 20 381 l 1
 20 398 l 1
 81 405 l 1
 284 398 l 1
 324 378 l 1
 355 331 l 1
 355 241 l 1
 335 200 l 1
 296 174 l 1
 271 165 l 1
 130 165 l 1
 122 156 l 1
 122 25 l 1
 211 21 l 1
 211 -4 l 1
 29 -4 l 1
 20 4 l 1xdc
122 370 m 1
 122 195 l 1
 266 195 l 1
 300 212 l 1
 326 250 l 1
 326 314 l 1
 305 355 l 1
 262 370 l 1
 122 370 l 1
EndSplineSet
EndChar

StartChar: Qsmall
Encoding: 65553 -1 68
Width: 468
Flags: MW
HStem: -145 21G<275 287 275 275> 396 20G<233 233>
LayerCount: 2
Fore
SplineSet
263 -131 m 1
 221 -18 l 1
 171 -10 l 1
 107 21 l 1
 56 73 l 1
 28 128 l 1
 17 200 l 1
 23 258 l 1
 56 322 l 1
 107 374 l 1
 168 404 l 1
 233 416 l 1
 288 407 l 1
 352 381 l 1
 369 365 l 1
 385 352 l 1
 403 331 l 1
 411 322 l 1
 443 259 l 1
 451 200 l 1
 445 139 l 1
 415 80 l 1
 381 34 l 1
 330 4 l 1
 284 -12 l 1
 256 -16 l 1
 294 -128 l 1
 287 -145 l 1
 275 -145 l 1
 263 -131 l 1
183 19 m 1
 233 13 l 1
 288 19 l 1
 344 46 l 1
 385 89 l 1
 415 149 l 1
 415 229 l 1
 406 268 l 1
 379 311 l 1
 344 347 l 1
 287 375 l 1
 233 383 l 1
 195 377 l 1
 192 377 l 1
 147 361 l 1
 105 331 l 1
 71 289 l 1
 51 229 l 1
 51 179 l 1
 62 125 l 1
 87 83 l 1
 119 51 l 1
 183 19 l 1
EndSplineSet
EndChar

StartChar: Rsmall
Encoding: 65554 -1 69
Width: 422
Flags: MW
HStem: -9 21G<263 263> -4 27 -4 225<127 195 20 245 127 399> 370 29<34 93 34 250 127 127 127 250>
VStem: 93 34<25 186 221 370>
LayerCount: 2
Fore
SplineSet
229 -3 m 1x98
 229 13 l 1
 238 21 l 1
 299 25 l 1
 186 186 l 1
 127 186 l 1
 127 25 l 1
 195 21 l 1
 195 -4 l 1
 20 -4 l 1
 20 13 l 1
 29 21 l 1
 93 25 l 1
 93 370 l 1
 34 370 l 1
 20 381 l 1
 20 392 l 1
 34 399 l 1
 250 399 l 1
 297 383 l 1
 324 344 l 1
 333 285 l 1
 320 244 l 1
 284 209 l 1
 253 192 l 1
 224 186 l 1
 336 25 l 1
 399 21 l 1
 406 4 l 1
 399 -4 l 1x58
 263 -9 l 1
 229 -3 l 1x98
127 221 m 1x38
 245 221 l 1
 284 246 l 1
 302 283 l 1
 296 326 l 1
 284 352 l 1
 250 370 l 1
 127 370 l 1
 127 221 l 1x38
EndSplineSet
Substitution2: "Single Substitution lookup 12 subtable" rsuperior
EndChar

StartChar: Ssmall
Encoding: 65555 -1 70
Width: 339
Flags: MW
HStem: -21 34<161 203 161 161> -16 21G<125 135 125 125> -12 21G<37 54 37 37> 393 20G<168 168>
LayerCount: 2
Fore
SplineSet
135 -16 m 1x50
 125 -16 l 1x50
 64 19 l 1
 59 13 l 1x90
 54 -12 l 1
 37 -12 l 1x30
 30 -4 l 1
 30 109 l 1
 48 118 l 1
 59 106 l 1
 91 37 l 1
 106 30 l 1
 110 25 l 1
 140 13 l 1
 203 13 l 1
 232 21 l 1
 237 25 l 1
 259 40 l 1
 276 76 l 1
 276 131 l 1
 259 164 l 1
 232 182 l 1
 107 218 l 1
 71 241 l 1
 55 267 l 1
 46 297 l 1
 46 335 l 1
 67 377 l 1
 107 404 l 1
 168 413 l 1
 226 401 l 1
 262 384 l 1
 268 398 l 1
 284 405 l 1
 292 390 l 1
 292 305 l 1
 267 305 l 1
 253 344 l 1
 232 365 l 1
 195 377 l 1
 135 377 l 1
 91 358 l 1
 74 323 l 1
 82 279 l 1
 109 252 l 1
 258 204 l 1
 296 165 l 1
 308 128 l 1
 308 80 l 1
 298 46 l 1
 283 25 l 1
 258 0 l 1
 206 -21 l 1
 161 -21 l 1x90
 135 -16 l 1x50
EndSplineSet
Substitution2: "Single Substitution lookup 12 subtable" ssuperior
EndChar

StartChar: Tsmall
Encoding: 65556 -1 71
Width: 317
Flags: MW
HStem: -9 30<175 235> 365 34<53 141 53 53 175 175 175 262>
VStem: 141 34<43 365 21 365>
LayerCount: 2
Fore
SplineSet
69 0 m 1
 69 9 l 1
 77 18 l 1
 136 22 l 1
 141 43 l 1
 141 365 l 1
 53 365 l 1
 38 277 l 1
 25 271 l 1
 14 276 l 1
 14 314 l 1
 17 344 l 1
 17 347 l 1
 26 386 l 1
 40 399 l 1
 276 399 l 1
 290 386 l 1
 303 288 l 1
 296 271 l 1
 275 271 l 1
 262 365 l 1
 175 365 l 1
 175 21 l 1
 236 21 l 1
 245 3 l 1
 235 -9 l 1
 77 -9 l 1
 69 0 l 1
EndSplineSet
Substitution2: "Single Substitution lookup 12 subtable" tsuperior
EndChar

StartChar: Usmall
Encoding: 65557 -1 72
Width: 448
Flags: MW
HStem: -16 29<191 255 191 260> 372 30
VStem: 83 32 336 34<119 370 119 370 119 370>
LayerCount: 2
Fore
SplineSet
140 -4 m 1
 108 30 l 1
 91 61 l 1
 85 110 l 1
 81 370 l 1
 15 374 l 1
 8 387 l 1
 15 402 l 1
 179 402 l 1
 188 395 l 1
 188 381 l 1
 179 374 l 1
 115 370 l 1
 115 100 l 1
 130 49 l 1
 154 25 l 1
 191 13 l 1
 260 13 l 1
 298 25 l 1
 319 46 l 1
 336 86 l 1
 336 370 l 1
 276 374 l 1
 269 381 l 1
 269 396 l 1
 280 402 l 1
 434 402 l 1
 441 395 l 1
 441 381 l 1
 434 374 l 1
 370 370 l 1
 370 119 l 1
 358 52 l 1
 334 12 l 1
 286 -12 l 1
 255 -16 l 1
 191 -16 l 1
 140 -4 l 1
EndSplineSet
EndChar

StartChar: Vsmall
Encoding: 65558 -1 73
Width: 443
Flags: MW
HStem: -4 21G<212 212 212 226> 372 30
LayerCount: 2
Fore
SplineSet
212 -4 m 1
 86 370 l 1
 16 374 l 1
 8 387 l 1
 16 402 l 1
 175 402 l 1
 184 395 l 1
 184 380 l 1
 171 374 l 1
 122 370 l 1
 133 335 l 1
 136 326 l 1
 136 322 l 1
 217 76 l 1
 230 76 l 1
 230 89 l 1
 324 370 l 1
 290 374 l 1
 269 374 l 1
 260 381 l 1
 260 398 l 1
 276 402 l 1
 427 402 l 1
 436 384 l 1
 425 374 l 1
 357 370 l 1
 299 186 l 1
 294 179 l 1
 236 6 l 1
 226 -4 l 1
 212 -4 l 1
EndSplineSet
EndChar

StartChar: Wsmall
Encoding: 65559 -1 74
Width: 640
Flags: MW
HStem: -4 21G<203 211 203 203 428 442 428 428> 372 30
LayerCount: 2
Fore
SplineSet
193 7 m 1
 83 370 l 1
 17 374 l 1
 8 381 l 1
 8 395 l 1
 17 402 l 1
 174 402 l 1
 183 395 l 1
 183 374 l 1
 118 370 l 1
 203 85 l 1
 211 85 l 1
 296 370 l 1
 250 374 l 1
 241 374 l 1
 226 387 l 1
 241 402 l 1
 399 402 l 1
 406 395 l 1
 406 380 l 1
 394 374 l 1
 343 370 l 1
 428 80 l 1
 431 76 l 1
 519 364 l 1
 509 374 l 1
 460 374 l 1
 452 389 l 1
 466 402 l 1
 625 402 l 1
 633 387 l 1
 625 374 l 1
 555 370 l 1
 442 -4 l 1
 428 -4 l 1
 412 12 l 1
 323 316 l 1
 314 305 l 1
 223 7 l 1
 211 -4 l 1
 203 -4 l 1
 193 7 l 1
EndSplineSet
EndChar

StartChar: Xsmall
Encoding: 65560 -1 75
Width: 474
Flags: MW
HStem: -4 29<26 96 150 184 26 26 310 340 375 446> 374 28<56 99 56 215 56 215 264 264 264 269 354 354 354 416>
LayerCount: 2
Fore
SplineSet
15 7 m 1
 24 25 l 1
 96 25 l 1
 217 221 l 1
 127 368 l 1
 99 374 l 1
 56 374 l 1
 48 381 l 1
 48 395 l 1
 56 402 l 1
 215 402 l 1
 223 387 l 1
 215 374 l 1
 163 368 l 1
 179 344 l 1
 184 335 l 1
 236 252 l 1
 285 326 l 1
 306 370 l 1
 269 374 l 1
 264 374 l 1
 255 381 l 1
 255 402 l 1
 422 402 l 1
 431 387 l 1
 416 374 l 1
 354 374 l 1
 345 365 l 1
 255 223 l 1
 375 25 l 1
 449 25 l 1
 458 7 l 1
 446 -4 l 1
 290 -4 l 1
 281 4 l 1
 281 21 l 1
 310 25 l 1
 340 25 l 1
 290 106 l 1
 285 115 l 1
 260 153 l 1
 246 179 l 1
 236 189 l 1
 209 149 l 1
 209 136 l 1
 199 131 l 1
 136 30 l 1
 150 25 l 1
 184 25 l 1
 191 18 l 1
 191 4 l 1
 184 -4 l 1
 26 -4 l 1
 15 7 l 1
EndSplineSet
EndChar

StartChar: Ysmall
Encoding: 65561 -1 76
Width: 446
Flags: MW
HStem: -4 29<160 206 240 303 151 206> 374 28<20 87 17 182 126 126 126 176 273 307 361 361 361 418>
VStem: 206 34<25 146 25 149 25 149>
LayerCount: 2
Fore
SplineSet
137 3 m 1
 137 21 l 1
 160 25 l 1
 206 25 l 1
 206 149 l 1
 126 305 l 1
 117 319 l 1
 87 374 l 1
 17 374 l 1
 8 392 l 1
 20 402 l 1
 182 402 l 1
 191 387 l 1
 176 374 l 1
 126 374 l 1
 215 203 l 1
 227 191 l 1
 321 370 l 1
 307 374 l 1
 273 374 l 1
 258 387 l 1
 273 402 l 1
 431 402 l 1
 438 395 l 1
 438 380 l 1
 418 374 l 1
 361 374 l 1
 240 146 l 1
 240 25 l 1
 303 25 l 1
 312 18 l 1
 312 4 l 1
 303 -4 l 1
 151 -4 l 1
 137 3 l 1
EndSplineSet
EndChar

StartChar: Zsmall
Encoding: 65562 -1 77
Width: 358
Flags: MW
HStem: -4 29<82 287 82 311> 372 30
LayerCount: 2
Fore
SplineSet
29 12 m 1
 272 370 l 1
 248 375 l 1
 73 370 l 1
 61 283 l 1
 53 276 l 1
 44 276 l 1
 31 288 l 1
 46 395 l 1
 61 402 l 1
 307 402 l 1
 323 387 l 1
 217 229 l 1
 210 221 l 1
 82 34 l 1
 82 25 l 1
 287 25 l 1
 295 39 l 1
 308 119 l 1
 332 119 l 1
 332 60 l 1
 318 3 l 1
 311 -4 l 1
 44 -4 l 1
 29 12 l 1
EndSplineSet
EndChar

StartChar: acute
Encoding: 180 180 78
Width: 138
Flags: MW
HStem: 450 21G<12 12 12 29> 628 20G<111 133 133 133>
LayerCount: 2
Fore
SplineSet
12 450 m 1
 6 466 l 1
 111 648 l 1
 133 648 l 1
 133 627 l 1
 29 450 l 1
 12 450 l 1
EndSplineSet
EndChar

StartChar: grave
Encoding: 96 96 79
Width: 135
Flags: MW
HStem: 450 21G<116 116> 628 20G<5 26 26 26>
LayerCount: 2
Fore
SplineSet
105 454 m 1
 5 627 l 1
 5 648 l 1
 26 648 l 1
 129 472 l 1
 129 456 l 1
 116 450 l 1
 105 454 l 1
EndSplineSet
EndChar

StartChar: circumflex
Encoding: 710 710 80
Width: 309
Flags: MW
HStem: 447 21G<274 274> 633 20G<146 162 162 162>
LayerCount: 2
Fore
SplineSet
16 456 m 1
 16 475 l 1
 30 487 l 1
 33 496 l 1
 37 501 l 1
 146 653 l 1
 162 653 l 1
 292 471 l 1
 292 456 l 1
 274 447 l 1
 159 606 l 1
 152 606 l 1
 37 450 l 1
 30 450 l 1
 16 456 l 1
EndSplineSet
EndChar

StartChar: dieresis
Encoding: 168 168 81
Width: 307
Flags: MW
HStem: 538 27<48 115 48 48 205 260>
LayerCount: 2
Fore
SplineSet
38 548 m 1
 45 565 l 1
 115 565 l 1
 115 538 l 1
 48 538 l 1
 38 548 l 1
191 547 m 1
 191 557 l 1
 205 565 l 1
 261 565 l 1
 270 548 l 1
 260 538 l 1
 200 538 l 1
 191 547 l 1
EndSplineSet
EndChar

StartChar: tilde
Encoding: 732 732 82
Width: 335
Flags: MW
HStem: 511 21G 570 20G<84 132 132 132 286 305 305 305>
LayerCount: 2
Fore
SplineSet
34 521 m 1
 34 535 l 1
 50 566 l 1
 84 590 l 1
 132 590 l 1
 223 541 l 1
 256 550 l 1
 286 590 l 1
 305 590 l 1
 305 566 l 1
 281 532 l 1
 245 513 l 1
 211 513 l 1
 125 560 l 1
 93 560 l 1
 68 535 l 1
 61 520 l 1
 44 511 l 1
 34 521 l 1
EndSplineSet
EndChar

StartChar: ring
Encoding: 730 730 83
Width: 260
Flags: MW
HStem: 447 21G 633 20G
LayerCount: 2
Fore
SplineSet
93 456 m 1
 59 478 l 1
 40 504 l 1
 25 553 l 1
 35 593 l 1
 65 633 l 1
 105 653 l 1
 160 653 l 1
 208 621 l 1
 227 583 l 1
 233 542 l 1
 224 510 l 1
 195 468 l 1
 144 447 l 1
 93 456 l 1
98 487 m 1
 129 478 l 1
 166 489 l 1
 190 513 l 1
 199 530 l 1
 199 568 l 1
 187 602 l 1
 144 623 l 1
 111 623 l 1
 75 597 l 1
 63 572 l 1
 58 542 l 1
 75 505 l 1
 98 487 l 1
EndSplineSet
EndChar

StartChar: cedilla
Encoding: 184 184 84
Width: 180
Flags: MW
HStem: -161 21G<49 49 49 117> -7 20G<74 92 92 92>
LayerCount: 2
Fore
SplineSet
49 -161 m 1
 19 -142 l 1
 19 -118 l 1
 37 -118 l 1
 62 -131 l 1
 104 -131 l 1
 122 -122 l 1
 129 -106 l 1
 129 -67 l 1
 108 -67 l 1
 77 -89 l 1
 58 -89 l 1
 53 -76 l 1
 65 3 l 1
 74 13 l 1
 92 13 l 1
 92 -37 l 1
 138 -37 l 1
 159 -60 l 1
 159 -115 l 1
 143 -148 l 1
 117 -161 l 1
 49 -161 l 1
EndSplineSet
EndChar

StartChar: ogonek
Encoding: 731 731 85
Width: 187
Flags: MW
HStem: -170 21G<95 95> 5 20G<109 129 129 129>
LayerCount: 2
Fore
SplineSet
95 -165 m 1
 74 -165 l 1
 39 -142 l 1
 22 -107 l 1
 28 -57 l 1
 59 -7 l 1
 109 25 l 1
 129 25 l 1
 140 15 l 1
 134 0 l 1
 97 -15 l 1
 74 -37 l 1
 56 -72 l 1
 56 -115 l 1
 74 -131 l 1
 125 -131 l 1
 150 -118 l 1
 159 -118 l 1
 167 -127 l 1
 167 -140 l 1
 143 -158 l 1
 95 -170 l 1
 95 -165 l 1
EndSplineSet
EndChar

StartChar: caron
Encoding: 711 711 86
Width: 312
Flags: MW
HStem: 450 21G<147 166 147 147> 628 20G<23 40 40 40 272 287 287 287>
LayerCount: 2
Fore
SplineSet
16 633 m 1
 23 648 l 1
 40 648 l 1
 156 489 l 1
 272 648 l 1
 287 648 l 1
 296 639 l 1
 290 623 l 1
 166 450 l 1
 147 450 l 1
 16 633 l 1
EndSplineSet
EndChar

StartChar: breve
Encoding: 728 728 87
Width: 330
Flags: MW
HStem: 444 21G<163 163> 630 20G<43 43 287 287>
LayerCount: 2
Fore
SplineSet
120 453 m 1
 99 466 l 1
 56 511 l 1
 28 581 l 1
 28 642 l 1
 43 650 l 1
 53 641 l 1
 66 568 l 1
 86 523 l 1
 117 492 l 1
 154 474 l 1
 198 483 l 1
 232 508 l 1
 266 569 l 1
 275 638 l 1
 287 650 l 1
 303 642 l 1
 303 593 l 1
 281 526 l 1
 253 484 l 1
 204 451 l 1
 163 444 l 1
 120 453 l 1
EndSplineSet
EndChar

StartChar: dotaccent
Encoding: 729 729 88
Width: 145
Flags: MW
HStem: 530 21G<52 105 52 52> 540 20G<49 99 99 99>
LayerCount: 2
Fore
SplineSet
35 536 m 1x80
 35 553 l 1
 49 560 l 1
 99 560 l 1x40
 113 545 l 1
 105 530 l 1
 52 530 l 1
 35 536 l 1x80
EndSplineSet
EndChar

StartChar: macron
Encoding: 175 175 89
Width: 303
Flags: MW
HStem: 530 26<40 259 40 256>
LayerCount: 2
Fore
SplineSet
40 530 m 1
 40 556 l 1
 259 556 l 1
 266 539 l 1
 256 530 l 1
 40 530 l 1
EndSplineSet
EndChar

StartChar: hungarumlaut
Encoding: 733 733 90
Width: 258
Flags: MW
HStem: 441 21G<17 34> 627 20G<110 129>
LayerCount: 2
Fore
SplineSet
17 447 m 1
 17 462 l 1
 110 627 l 1
 129 647 l 1
 139 636 l 1
 139 620 l 1
 47 454 l 1
 34 441 l 1
 17 447 l 1
119 446 m 1
 119 466 l 1
 218 641 l 1
 242 641 l 1
 242 623 l 1
 142 447 l 1
 132 441 l 1
 119 446 l 1
EndSplineSet
EndChar

StartChar: Aacute
Encoding: 193 193 91
Width: 749
Flags: MW
HStem: -4 31 195 34<227 529 227 537 212 529> 670 30<248 333 246 389> 929 20G<470 482 482 482>
LayerCount: 2
Fore
SplineSet
23 -4 m 1
 11 9 l 1
 11 18 l 1
 20 25 l 1
 115 30 l 1
 248 386 l 1
 252 395 l 1
 352 666 l 1
 333 670 l 1
 246 670 l 1
 237 688 l 1
 248 700 l 1
 389 700 l 1
 635 37 l 1
 643 30 l 1
 739 25 l 1
 739 0 l 1
 680 -4 l 1
 514 0 l 1
 514 18 l 1
 523 25 l 1
 602 30 l 1
 547 185 l 1
 537 195 l 1
 212 195 l 1
 193 145 l 1
 188 136 l 1
 155 43 l 1
 155 30 l 1
 233 25 l 1
 240 10 l 1
 233 -4 l 1
 23 -4 l 1
368 615 m 1
 227 229 l 1
 529 229 l 1
 438 480 l 1
 434 487 l 1
 379 632 l 1
 368 615 l 1
367 751 m 1
 361 761 l 1
 470 949 l 1
 482 949 l 1
 489 942 l 1
 489 928 l 1
 397 763 l 1
 379 746 l 1
 367 751 l 1
EndSplineSet
EndChar

StartChar: Agrave
Encoding: 192 192 92
Width: 741
Flags: MW
HStem: 0 27 195 34<220 522 220 536 206 522> 672 28 929 20G<269 281 281 281>
LayerCount: 2
Fore
SplineSet
11 0 m 1
 11 25 l 1
 111 30 l 1
 205 285 l 1
 209 292 l 1
 348 670 l 1
 244 675 l 1
 235 682 l 1
 235 700 l 1
 379 700 l 1
 393 675 l 1
 630 30 l 1
 731 25 l 1
 731 0 l 1
 506 0 l 1
 506 25 l 1
 591 30 l 1
 591 43 l 1
 536 195 l 1
 206 195 l 1
 147 30 l 1
 232 25 l 1
 232 0 l 1
 11 0 l 1
220 229 m 1
 522 229 l 1
 372 641 l 1
 220 229 l 1
360 751 m 1
 260 928 l 1
 260 942 l 1
 269 949 l 1
 281 949 l 1
 387 763 l 1
 379 751 l 1
 360 751 l 1
EndSplineSet
EndChar

StartChar: Acircumflex
Encoding: 194 194 93
Width: 747
Flags: MW
HStem: 0 27 195 34<221 528 221 542 208 528> 672 28 929 20G<345 366 366 366>
LayerCount: 2
Fore
SplineSet
11 0 m 1
 11 25 l 1
 113 30 l 1
 254 407 l 1
 257 416 l 1
 350 670 l 1
 236 675 l 1
 236 700 l 1
 387 700 l 1
 427 590 l 1
 431 581 l 1
 636 30 l 1
 728 25 l 1
 737 18 l 1
 737 0 l 1
 521 0 l 1
 512 9 l 1
 512 18 l 1
 521 25 l 1
 606 30 l 1
 585 73 l 1
 580 89 l 1
 542 195 l 1
 208 195 l 1
 147 30 l 1
 229 25 l 1
 236 18 l 1
 236 9 l 1
 229 0 l 1
 11 0 l 1
221 229 m 1
 528 229 l 1
 385 615 l 1
 373 639 l 1
 300 441 l 1
 296 432 l 1
 221 229 l 1
214 769 m 1
 250 818 l 1
 257 827 l 1
 345 949 l 1
 366 949 l 1
 431 857 l 1
 436 852 l 1
 491 775 l 1
 491 751 l 1
 472 751 l 1
 355 910 l 1
 335 882 l 1
 330 878 l 1
 257 776 l 1
 254 772 l 1
 250 763 l 1
 236 751 l 1
 220 751 l 1
 214 769 l 1
EndSplineSet
EndChar

StartChar: Adieresis
Encoding: 196 196 94
Width: 742
Flags: MW
HStem: 0 27 195 34<220 524 220 536 208 524> 672 28 672 194
LayerCount: 2
Fore
SplineSet
11 0 m 1xe0
 11 18 l 1
 20 25 l 1
 113 30 l 1
 326 606 l 1
 330 615 l 1
 348 670 l 1
 236 675 l 1
 236 700 l 1
 384 700 l 1
 633 30 l 1
 724 25 l 1
 732 18 l 1
 732 0 l 1
 516 0 l 1
 506 10 l 1
 513 25 l 1
 597 30 l 1
 536 195 l 1
 208 195 l 1
 147 30 l 1
 232 25 l 1
 232 0 l 1
 11 0 l 1xe0
220 229 m 1
 524 229 l 1
 376 632 l 1
 370 632 l 1
 220 229 l 1
241 840 m 1
 241 857 l 1
 250 866 l 1
 308 866 l 1xd0
 320 854 l 1
 311 836 l 1
 280 836 l 1
 241 840 l 1
393 840 m 1
 393 866 l 1
 457 866 l 1
 469 854 l 1
 458 834 l 1
 393 840 l 1
EndSplineSet
EndChar

StartChar: Atilde
Encoding: 195 195 95
Width: 747
Flags: MW
HStem: -4 21G<186 186 679 679> -2 29 195 34<224 525 224 540 208 525> 672 28 700 114<381 387 387 387> 871 20G<288 288>
LayerCount: 2
Fore
SplineSet
11 0 m 1x74
 11 18 l 1
 20 25 l 1
 113 30 l 1
 347 657 l 1
 347 670 l 1
 236 675 l 1
 236 691 l 1
 245 700 l 1
 387 700 l 1
 521 340 l 1
 525 331 l 1
 636 30 l 1
 728 25 l 1
 737 18 l 1
 737 0 l 1
 679 -4 l 1
 512 0 l 1
 512 18 l 1
 521 25 l 1
 601 30 l 1
 540 195 l 1
 208 195 l 1
 151 45 l 1
 151 30 l 1
 229 25 l 1
 239 15 l 1
 232 0 l 1
 186 -4 l 1xb4
 11 0 l 1x74
224 238 m 1
 224 229 l 1
 525 229 l 1
 525 238 l 1
 475 377 l 1
 470 386 l 1
 378 633 l 1
 367 623 l 1
 224 238 l 1
205 827 m 1
 223 863 l 1
 250 881 l 1
 288 891 l 1
 317 882 l 1
 321 882 l 1
 390 843 l 1
 429 843 l 1
 460 887 l 1
 482 887 l 1
 482 863 l 1
 461 834 l 1
 431 814 l 1
 381 814 l 1
 296 857 l 1
 266 857 l 1
 245 836 l 1
 229 814 l 1
 211 814 l 1x6c
 205 827 l 1
EndSplineSet
EndChar

StartChar: Aring
Encoding: 197 197 96
Width: 740
Flags: MW
HStem: -4 31 195 30 670 30<243 342 243 380> 929 20G<328 367 367 367>
LayerCount: 2
Fore
SplineSet
11 4 m 1
 11 18 l 1
 18 25 l 1
 111 30 l 1
 158 156 l 1
 163 165 l 1
 347 665 l 1
 342 670 l 1
 243 670 l 1
 236 678 l 1
 236 691 l 1
 243 700 l 1
 380 700 l 1
 629 30 l 1
 672 25 l 1
 723 25 l 1
 730 18 l 1
 730 -4 l 1
 519 -4 l 1
 507 9 l 1
 507 19 l 1
 523 25 l 1
 592 25 l 1
 592 43 l 1
 535 195 l 1
 213 195 l 1
 203 185 l 1
 148 30 l 1
 222 25 l 1
 237 10 l 1
 222 -4 l 1
 18 -4 l 1
 11 4 l 1
219 229 m 1
 297 222 l 1
 522 229 l 1
 377 626 l 1
 368 633 l 1
 219 229 l 1
315 751 m 1
 277 776 l 1
 261 802 l 1
 248 845 l 1
 257 887 l 1
 282 927 l 1
 328 949 l 1
 367 949 l 1
 397 942 l 1
 432 915 l 1
 452 878 l 1
 452 814 l 1
 426 776 l 1
 389 751 l 1
 352 745 l 1
 315 751 l 1
315 785 m 1
 337 781 l 1
 377 781 l 1
 406 799 l 1
 422 831 l 1
 422 866 l 1
 409 891 l 1
 388 912 l 1
 352 924 l 1
 324 915 l 1
 294 893 l 1
 279 849 l 1
 289 812 l 1
 315 785 l 1
EndSplineSet
EndChar

StartChar: AE
Encoding: 198 198 97
Width: 1025
Flags: MW
HStem: -9 30<29 110 211 227 29 29 648 959> 191 30<393 461> 365 30<643 902 643 902> 664 32
VStem: 609 30<30 186 186 186 225 322 30 662>
LayerCount: 2
Fore
SplineSet
11 -3 m 1
 11 21 l 1
 110 21 l 1
 122 34 l 1
 493 662 l 1
 414 666 l 1
 414 691 l 1
 452 696 l 1
 948 696 l 1
 962 681 l 1
 954 666 l 1
 637 662 l 1
 643 395 l 1
 902 395 l 1
 910 386 l 1
 910 374 l 1
 902 365 l 1
 643 365 l 1
 639 322 l 1
 639 30 l 1
 648 21 l 1
 959 21 l 1
 983 158 l 1
 998 171 l 1
 1014 155 l 1
 1008 128 l 1
 1008 124 l 1
 986 -1 l 1
 974 -9 l 1
 615 -9 l 1
 609 18 l 1
 609 186 l 1
 461 191 l 1
 257 191 l 1
 245 179 l 1
 156 25 l 1
 211 21 l 1
 230 21 l 1
 239 3 l 1
 227 -9 l 1
 29 -9 l 1
 11 -3 l 1
275 225 m 1
 393 221 l 1
 576 221 l 1
 609 225 l 1
 609 662 l 1
 531 662 l 1
 275 225 l 1
EndSplineSet
EndChar

StartChar: Amacron
Encoding: 256 256 98
Width: 741
Flags: MW
HStem: -10 21G<220 220> -9 21G<519 723 519 519> -7 30 191 34<223 519 214 524> 666 30<244 329 244 384> 827 34<273 434 273 273>
LayerCount: 2
Fore
SplineSet
11 -4 m 1x3c
 11 13 l 1
 19 21 l 1
 108 25 l 1
 349 662 l 1
 329 666 l 1
 244 666 l 1
 236 675 l 1
 236 687 l 1
 244 696 l 1
 384 696 l 1
 545 264 l 1
 545 259 l 1
 631 25 l 1
 689 21 l 1
 723 21 l 1
 731 13 l 1
 731 0 l 1
 723 -9 l 1
 519 -9 l 1x5c
 504 6 l 1
 519 21 l 1
 574 21 l 1
 595 25 l 1
 539 186 l 1
 519 191 l 1
 214 191 l 1
 206 183 l 1
 147 25 l 1
 229 21 l 1
 238 6 l 1
 220 -10 l 1x9c
 11 -4 l 1x3c
223 234 m 1
 223 225 l 1
 524 225 l 1
 378 623 l 1
 367 623 l 1
 227 241 l 1
 223 234 l 1
238 833 m 1
 230 846 l 1
 238 861 l 1
 443 861 l 1
 455 848 l 1
 455 837 l 1
 434 827 l 1
 273 827 l 1
 238 833 l 1
EndSplineSet
EndChar

StartChar: Abreve
Encoding: 258 258 99
Width: 746
Flags: MW
HStem: -9 21G<677 677> -4 27 191 34<227 526 227 538 209 526> 668 28 926 20G<227 243 243 243 477 494 494 494>
LayerCount: 2
Fore
SplineSet
519 -4 m 1x78
 511 4 l 1
 511 13 l 1
 519 21 l 1
 598 25 l 1
 592 51 l 1
 587 60 l 1
 538 191 l 1
 209 191 l 1
 148 33 l 1
 155 25 l 1
 236 21 l 1
 236 -4 l 1
 20 -4 l 1x78
 11 4 l 1
 11 21 l 1
 79 25 l 1
 112 25 l 1
 160 149 l 1
 163 156 l 1
 349 666 l 1
 245 670 l 1
 236 678 l 1
 236 687 l 1
 245 696 l 1
 385 696 l 1
 491 416 l 1
 494 407 l 1
 596 128 l 1
 601 119 l 1
 635 25 l 1
 728 21 l 1
 736 13 l 1
 736 -3 l 1
 677 -9 l 1xb8
 519 -4 l 1x78
227 241 m 1
 227 225 l 1
 526 225 l 1
 379 623 l 1
 368 623 l 1
 227 241 l 1
297 761 m 1
 252 806 l 1
 230 851 l 1
 216 934 l 1
 227 946 l 1
 243 946 l 1
 260 860 l 1
 278 822 l 1
 316 785 l 1
 355 773 l 1
 404 788 l 1
 435 818 l 1
 458 866 l 1
 470 937 l 1
 477 946 l 1
 494 946 l 1
 494 876 l 1
 468 815 l 1
 438 779 l 1
 418 763 l 1
 409 755 l 1
 376 746 l 1
 337 746 l 1
 297 761 l 1
EndSplineSet
EndChar

StartChar: Aogonek
Encoding: 260 260 100
Width: 748
Flags: MW
HStem: -173 21G<595 595> -4 27 191 34<230 530 230 542 209 530> 668 30 680 20G<378 378>
LayerCount: 2
Fore
SplineSet
564 -162 m 1xf0
 540 -146 l 1
 527 -118 l 1
 527 -60 l 1
 560 -9 l 1
 513 -3 l 1
 513 13 l 1
 527 25 l 1
 600 25 l 1
 594 51 l 1
 542 191 l 1
 209 191 l 1
 150 25 l 1
 230 21 l 1
 238 13 l 1
 238 4 l 1
 230 -4 l 1
 22 -4 l 1
 11 7 l 1
 20 25 l 1
 114 25 l 1
 251 395 l 1
 256 402 l 1
 272 454 l 1
 277 462 l 1
 350 660 l 1
 344 666 l 1
 247 670 l 1
 238 678 l 1
 238 696 l 1
 378 700 l 1xe8
 391 687 l 1
 612 94 l 1
 615 85 l 1
 639 25 l 1
 738 21 l 1
 738 -3 l 1
 624 -9 l 1
 598 -21 l 1
 563 -57 l 1
 557 -85 l 1
 557 -115 l 1
 577 -136 l 1
 624 -136 l 1
 649 -122 l 1
 662 -122 l 1
 670 -131 l 1
 670 -140 l 1
 648 -162 l 1
 595 -173 l 1
 564 -162 l 1xf0
224 231 m 1
 230 225 l 1
 530 225 l 1
 518 255 l 1
 518 259 l 1
 378 627 l 1
 373 627 l 1
 224 231 l 1
EndSplineSet
EndChar

StartChar: Ccedilla
Encoding: 199 199 101
Width: 649
Flags: MW
HStem: -165 21G<354 393 354 354> -16 21G<341 345 341 341 385 385> 698 20G<363 363>
LayerCount: 2
Fore
SplineSet
323 -155 m 1
 308 -140 l 1
 308 -127 l 1
 317 -116 l 1
 354 -136 l 1
 390 -136 l 1
 418 -116 l 1
 418 -72 l 1
 394 -72 l 1
 357 -97 l 1
 345 -85 l 1
 345 -51 l 1
 351 -21 l 1
 345 -16 l 1
 341 -16 l 1
 247 3 l 1
 168 51 l 1
 113 106 l 1
 78 156 l 1
 44 231 l 1
 26 335 l 1
 37 429 l 1
 64 520 l 1
 104 581 l 1
 159 642 l 1
 217 681 l 1
 300 711 l 1
 363 718 l 1
 435 711 l 1
 503 688 l 1
 549 657 l 1
 582 624 l 1
 588 697 l 1
 603 705 l 1
 613 696 l 1
 613 556 l 1
 589 556 l 1
 560 605 l 1
 545 620 l 1
 494 657 l 1
 451 675 l 1
 379 687 l 1
 294 678 l 1
 229 653 l 1
 156 597 l 1
 104 530 l 1
 68 438 l 1
 62 390 l 1
 62 295 l 1
 89 197 l 1
 156 104 l 1
 214 60 l 1
 286 24 l 1
 333 18 l 1
 433 18 l 1
 497 37 l 1
 545 69 l 1
 570 106 l 1
 588 143 l 1
 603 150 l 1
 613 140 l 1
 613 3 l 1
 597 -6 l 1
 584 9 l 1
 584 58 l 1
 570 51 l 1
 524 12 l 1
 451 -9 l 1
 385 -16 l 1
 376 -43 l 1
 406 -36 l 1
 436 -46 l 1
 448 -67 l 1
 448 -127 l 1
 418 -156 l 1
 393 -165 l 1
 354 -165 l 1
 323 -155 l 1
EndSplineSet
EndChar

StartChar: Cacute
Encoding: 262 262 102
Width: 652
Flags: MW
HStem: -16 21G<336 336 336 411> 929 20G<406 429 429 429>
VStem: 26 30<322 395 395 395>
LayerCount: 2
Fore
SplineSet
336 -16 m 1
 251 4 l 1
 204 25 l 1
 162 55 l 1
 89 128 l 1
 47 216 l 1
 26 291 l 1
 26 395 l 1
 44 484 l 1
 99 583 l 1
 157 641 l 1
 221 682 l 1
 263 700 l 1
 360 720 l 1
 461 705 l 1
 514 678 l 1
 560 645 l 1
 581 624 l 1
 587 697 l 1
 601 705 l 1
 612 696 l 1
 615 662 l 1
 610 556 l 1
 588 556 l 1
 560 597 l 1
 514 645 l 1
 451 676 l 1
 403 682 l 1
 309 682 l 1
 226 653 l 1
 159 602 l 1
 108 541 l 1
 86 496 l 1
 56 402 l 1
 56 322 l 1
 61 292 l 1
 61 285 l 1
 95 179 l 1
 132 128 l 1
 171 89 l 1
 236 40 l 1
 315 18 l 1
 327 18 l 1
 362 13 l 1
 461 24 l 1
 534 60 l 1
 560 94 l 1
 564 98 l 1
 587 143 l 1
 601 150 l 1
 616 136 l 1
 612 3 l 1
 595 -6 l 1
 585 4 l 1
 581 63 l 1
 531 21 l 1
 484 0 l 1
 411 -16 l 1
 336 -16 l 1
300 758 m 1
 306 776 l 1
 406 949 l 1
 429 949 l 1
 429 928 l 1
 324 751 l 1
 314 751 l 1
 300 758 l 1
EndSplineSet
EndChar

StartChar: Ccircumflex
Encoding: 264 264 103
Width: 643
Flags: MW
HStem: -16 21G<361 361> -12 30<309 415 309 415> 697 20G 934 20G<357 373 373 373>
VStem: 26 30<322 386 386 386> 579 28
LayerCount: 2
Fore
SplineSet
313 -12 m 1x7c
 309 -12 l 1
 228 10 l 1
 166 51 l 1
 106 110 l 1
 59 182 l 1
 26 295 l 1
 26 386 l 1
 41 469 l 1
 76 547 l 1
 106 590 l 1
 178 662 l 1
 237 691 l 1
 319 717 l 1
 377 717 l 1
 461 705 l 1
 529 670 l 1
 568 632 l 1
 577 632 l 1
 582 697 l 1
 596 705 l 1
 607 696 l 1
 607 556 l 1
 583 556 l 1
 538 624 l 1
 479 662 l 1
 421 682 l 1
 407 682 l 1
 367 688 l 1
 322 682 l 1
 306 682 l 1
 245 663 l 1
 182 623 l 1
 132 572 l 1
 84 502 l 1
 56 404 l 1
 56 322 l 1
 73 228 l 1
 115 145 l 1
 191 69 l 1
 279 24 l 1
 331 18 l 1
 415 18 l 1x7c
 458 25 l 1
 516 49 l 1
 552 85 l 1
 586 149 l 1
 598 149 l 1
 607 140 l 1
 607 3 l 1
 590 -6 l 1
 580 4 l 1
 577 64 l 1
 513 10 l 1
 449 -9 l 1
 361 -16 l 1xbc
 313 -12 l 1x7c
228 758 m 1
 228 776 l 1
 357 954 l 1
 373 954 l 1
 441 857 l 1
 449 848 l 1
 479 806 l 1
 483 802 l 1
 503 767 l 1
 494 749 l 1
 477 755 l 1
 444 797 l 1
 441 806 l 1
 367 909 l 1
 348 891 l 1
 272 785 l 1
 267 781 l 1
 255 757 l 1
 237 751 l 1
 228 758 l 1
EndSplineSet
EndChar

StartChar: Cdotaccent
Encoding: 266 266 104
Width: 643
Flags: MW
HStem: -16 29<309 424 331 407> -4 21G<474 474 582 598 582 582> 682 30<319 406 319 319> 846 20G<339 389 389 389>
VStem: 578 29
LayerCount: 2
Fore
SplineSet
309 -16 m 1xb8
 233 9 l 1
 172 45 l 1
 88 128 l 1
 45 215 l 1
 26 314 l 1
 26 377 l 1
 41 472 l 1
 81 551 l 1
 132 617 l 1
 187 662 l 1
 233 687 l 1
 315 712 l 1
 419 712 l 1
 495 687 l 1
 559 641 l 1
 576 624 l 1
 580 691 l 1
 589 700 l 1
 599 700 l 1
 607 687 l 1
 607 560 l 1
 598 551 l 1
 588 551 l 1
 538 618 l 1
 480 660 l 1
 406 682 l 1
 319 682 l 1
 240 659 l 1
 196 629 l 1
 196 615 l 1
 187 615 l 1
 182 620 l 1
 148 590 l 1
 111 538 l 1
 81 484 l 1
 63 429 l 1
 54 349 l 1
 60 292 l 1
 60 279 l 1
 97 174 l 1
 132 128 l 1
 178 80 l 1
 221 51 l 1
 276 25 l 1
 331 13 l 1
 424 13 l 1xb8
 507 40 l 1
 555 89 l 1
 583 145 l 1
 599 145 l 1
 607 131 l 1
 607 4 l 1
 598 -4 l 1
 582 -4 l 1
 577 25 l 1
 577 64 l 1
 537 24 l 1
 474 -4 l 1x78
 407 -16 l 1
 309 -16 l 1xb8
327 842 m 1
 327 858 l 1
 339 866 l 1
 389 866 l 1
 404 851 l 1
 397 836 l 1
 339 836 l 1
 327 842 l 1
EndSplineSet
EndChar

StartChar: Ccaron
Encoding: 268 268 105
Width: 649
Flags: MW
HStem: -16 29<341 409 333 411> 929 20G<232 254 254 254 482 508 508 508>
VStem: 584 29<627 691 691 691>
LayerCount: 2
Fore
SplineSet
256 1 m 1
 207 25 l 1
 138 76 l 1
 78 152 l 1
 43 232 l 1
 26 349 l 1
 41 460 l 1
 89 562 l 1
 141 626 l 1
 202 670 l 1
 266 700 l 1
 362 720 l 1
 475 700 l 1
 548 659 l 1
 579 627 l 1
 584 627 l 1
 584 691 l 1
 592 700 l 1
 613 700 l 1
 613 557 l 1
 595 548 l 1
 545 618 l 1
 488 660 l 1
 414 682 l 1
 367 687 l 1
 300 678 l 1
 229 653 l 1
 159 600 l 1
 117 547 l 1
 78 474 l 1
 62 411 l 1
 62 297 l 1
 71 255 l 1
 83 225 l 1
 92 195 l 1
 132 130 l 1
 187 74 l 1
 263 30 l 1
 341 13 l 1
 411 13 l 1
 497 36 l 1
 540 64 l 1
 567 101 l 1
 589 143 l 1
 601 149 l 1
 613 136 l 1
 613 3 l 1
 598 -4 l 1
 585 1 l 1
 579 60 l 1
 555 36 l 1
 491 0 l 1
 409 -16 l 1
 333 -16 l 1
 256 1 l 1
362 748 m 1
 232 930 l 1
 232 949 l 1
 254 949 l 1
 360 803 l 1
 372 797 l 1
 482 949 l 1
 508 949 l 1
 508 934 l 1
 382 757 l 1
 362 748 l 1
EndSplineSet
EndChar

StartChar: Dcaron
Encoding: 270 270 106
Width: 690
Flags: MW
HStem: -9 30<35 370 35 44> 670 30<39 124 39 39 157 157 157 336> 932 20G<455 455>
VStem: 124 33<25 670> 623 31
LayerCount: 2
Fore
SplineSet
26 -3 m 1
 26 13 l 1
 35 21 l 1
 124 25 l 1
 124 670 l 1
 39 670 l 1
 30 678 l 1
 30 700 l 1
 410 700 l 1
 506 678 l 1
 556 653 l 1
 611 597 l 1
 637 535 l 1
 650 475 l 1
 658 344 l 1
 650 255 l 1
 637 195 l 1
 599 110 l 1
 565 69 l 1
 507 22 l 1
 436 -1 l 1
 370 -9 l 1
 44 -9 l 1
 26 -3 l 1
157 25 m 1
 211 18 l 1
 382 25 l 1
 412 25 l 1
 450 34 l 1
 513 63 l 1
 561 110 l 1
 601 182 l 1
 623 292 l 1
 623 429 l 1
 616 487 l 1
 595 560 l 1
 577 590 l 1
 543 623 l 1
 510 647 l 1
 421 666 l 1
 403 666 l 1
 336 670 l 1
 157 670 l 1
 157 25 l 1
310 752 m 1
 187 928 l 1
 187 942 l 1
 196 949 l 1
 214 943 l 1
 321 793 l 1
 327 793 l 1
 437 946 l 1
 455 952 l 1
 465 934 l 1
 425 873 l 1
 421 869 l 1
 331 746 l 1
 322 746 l 1
 310 752 l 1
EndSplineSet
EndChar

StartChar: Dcroat
Encoding: 272 272 107
Width: 686
Flags: MW
HStem: -4 29<120 120 152 400> 333 32 670 30<120 120 152 152 152 386>
VStem: 120 32<25 331 365 670> 619 32
LayerCount: 2
Fore
SplineSet
26 -4 m 1
 26 21 l 1
 120 25 l 1
 120 331 l 1
 26 335 l 1
 26 361 l 1
 120 365 l 1
 120 670 l 1
 35 675 l 1
 26 682 l 1
 26 700 l 1
 413 700 l 1
 492 682 l 1
 555 654 l 1
 599 609 l 1
 637 527 l 1
 649 441 l 1
 654 317 l 1
 628 179 l 1
 602 128 l 1
 555 61 l 1
 491 19 l 1
 415 -4 l 1
 26 -4 l 1
152 25 m 1
 400 25 l 1
 476 46 l 1
 534 89 l 1
 565 125 l 1
 602 198 l 1
 619 297 l 1
 619 437 l 1
 602 521 l 1
 579 584 l 1
 529 633 l 1
 471 657 l 1
 386 670 l 1
 152 670 l 1
 152 365 l 1
 365 365 l 1
 379 350 l 1
 371 335 l 1
 152 331 l 1
 152 25 l 1
EndSplineSet
EndChar

StartChar: Eacute
Encoding: 201 201 108
Width: 540
Flags: MW
HStem: -4 29<38 123 155 480 38 123> 374 30 675 28<38 123 38 38 155 155 155 351> 934 20G<319 334 334 334>
VStem: 123 32<25 352 416 675>
LayerCount: 2
Fore
SplineSet
23 10 m 1
 38 25 l 1
 123 25 l 1
 123 675 l 1
 38 675 l 1
 29 682 l 1
 29 703 l 1
 479 703 l 1
 479 679 l 1
 351 675 l 1
 155 675 l 1
 155 416 l 1
 164 407 l 1
 425 402 l 1
 433 387 l 1
 419 374 l 1
 161 374 l 1
 155 352 l 1
 155 25 l 1
 480 25 l 1
 486 69 l 1
 486 73 l 1
 504 167 l 1
 515 177 l 1
 529 170 l 1
 529 136 l 1
 509 9 l 1
 495 -4 l 1
 38 -4 l 1
 23 10 l 1
220 755 m 1
 220 776 l 1
 319 954 l 1
 334 954 l 1
 346 942 l 1
 240 755 l 1
 220 755 l 1
EndSplineSet
EndChar

StartChar: Egrave
Encoding: 200 200 109
Width: 534
Flags: MW
HStem: -4 29<36 117 149 467 36 36> 374 30 675 28<32 117 32 32 149 149 149 459> 934 20G<209 227 227 227>
VStem: 117 32<25 374 407 675>
LayerCount: 2
Fore
SplineSet
23 3 m 1
 23 18 l 1
 32 25 l 1
 117 25 l 1
 117 675 l 1
 32 675 l 1
 23 682 l 1
 23 703 l 1
 465 703 l 1
 474 688 l 1
 459 675 l 1
 149 675 l 1
 149 407 l 1
 413 402 l 1
 422 395 l 1
 422 386 l 1
 409 374 l 1
 149 374 l 1
 149 25 l 1
 467 25 l 1
 493 165 l 1
 504 177 l 1
 523 168 l 1
 496 7 l 1
 485 -4 l 1
 36 -4 l 1
 23 3 l 1
309 755 m 1
 209 933 l 1
 209 954 l 1
 227 954 l 1
 234 946 l 1
 333 772 l 1
 333 755 l 1
 309 755 l 1
EndSplineSet
EndChar

StartChar: Ecircumflex
Encoding: 202 202 110
Width: 536
Flags: MW
HStem: -4 29<38 123 181 472 38 123> 374 30 676 27 934 20G<268 286 286 286>
VStem: 123 33<31 374 407 675>
LayerCount: 2
Fore
SplineSet
25 3 m 1
 25 19 l 1
 38 25 l 1
 123 25 l 1
 123 675 l 1
 34 678 l 1
 23 688 l 1
 31 703 l 1
 470 703 l 1
 479 696 l 1
 479 687 l 1
 470 678 l 1
 156 675 l 1
 156 407 l 1
 421 402 l 1
 429 387 l 1
 415 374 l 1
 156 374 l 1
 156 31 l 1
 181 25 l 1
 472 25 l 1
 479 39 l 1
 500 156 l 1
 508 174 l 1
 525 174 l 1
 525 131 l 1
 502 1 l 1
 491 -4 l 1
 38 -4 l 1
 25 3 l 1
140 755 m 1
 140 776 l 1
 144 781 l 1
 216 882 l 1
 220 887 l 1
 268 954 l 1
 286 954 l 1
 415 775 l 1
 415 755 l 1
 393 755 l 1
 347 818 l 1
 344 822 l 1
 277 915 l 1
 165 755 l 1
 140 755 l 1
EndSplineSet
EndChar

StartChar: Edieresis
Encoding: 203 203 111
Width: 536
Flags: MW
HStem: -4 29<27 114 35 114 154 471> 374 30 676 27 839 30<179 225 179 225 175 225 324 324 324 380>
VStem: 120 34<39 374 407 673 673 673>
LayerCount: 2
Fore
SplineSet
27 -4 m 1
 27 18 l 1
 35 25 l 1
 114 25 l 1
 120 39 l 1
 120 673 l 1
 29 679 l 1
 23 691 l 1
 29 703 l 1
 471 703 l 1
 471 678 l 1
 260 675 l 1
 154 675 l 1
 154 407 l 1
 413 402 l 1
 421 395 l 1
 421 380 l 1
 409 374 l 1
 154 374 l 1
 154 25 l 1
 471 25 l 1
 480 73 l 1
 480 76 l 1
 495 162 l 1
 506 174 l 1
 515 174 l 1
 525 162 l 1
 497 1 l 1
 485 -4 l 1
 27 -4 l 1
163 846 m 1
 163 864 l 1
 179 869 l 1
 225 869 l 1
 234 861 l 1
 234 848 l 1
 225 839 l 1
 175 839 l 1
 163 846 l 1
309 846 m 1
 316 869 l 1
 380 869 l 1
 388 854 l 1
 380 839 l 1
 324 839 l 1
 309 846 l 1
EndSplineSet
EndChar

StartChar: Emacron
Encoding: 274 274 112
Width: 540
Flags: MW
HStem: -4 29<155 477 155 495> 374 28<155 419 155 421> 675 28<38 123 38 38 155 155 155 471> 839 27<173 380 173 173>
VStem: 123 32<27 374 402 675>
LayerCount: 2
Fore
SplineSet
24 3 m 1
 24 13 l 1
 33 21 l 1
 123 27 l 1
 123 675 l 1
 38 675 l 1
 23 688 l 1
 32 703 l 1
 471 703 l 1
 479 688 l 1
 471 675 l 1
 155 675 l 1
 155 402 l 1
 421 402 l 1
 430 384 l 1
 419 374 l 1
 155 374 l 1
 155 25 l 1
 477 25 l 1
 491 110 l 1
 491 131 l 1
 506 174 l 1
 523 174 l 1
 529 155 l 1
 503 3 l 1
 495 -4 l 1
 38 -4 l 1
 24 3 l 1
164 848 m 1
 164 866 l 1
 389 866 l 1
 389 848 l 1
 380 839 l 1
 173 839 l 1
 164 848 l 1
EndSplineSet
EndChar

StartChar: Ebreve
Encoding: 276 276 113
Width: 536
Flags: MW
HStem: -4 29<123 123 153 473> 372 30 672 31 935 20G<151 151>
VStem: 123 30<25 370 411 670>
LayerCount: 2
Fore
SplineSet
26 4 m 1
 26 21 l 1
 123 25 l 1
 123 670 l 1
 34 675 l 1
 23 685 l 1
 32 703 l 1
 463 703 l 1
 476 690 l 1
 469 675 l 1
 153 670 l 1
 153 411 l 1
 162 402 l 1
 411 402 l 1
 427 387 l 1
 420 374 l 1
 153 370 l 1
 153 25 l 1
 473 25 l 1
 479 55 l 1
 479 60 l 1
 502 170 l 1
 525 170 l 1
 525 149 l 1
 503 15 l 1
 494 -4 l 1
 34 -4 l 1
 26 4 l 1
232 757 m 1
 187 787 l 1
 157 836 l 1
 137 904 l 1
 137 948 l 1
 151 955 l 1
 162 949 l 1
 177 869 l 1
 199 822 l 1
 229 793 l 1
 271 779 l 1
 309 785 l 1
 347 815 l 1
 375 875 l 1
 387 949 l 1
 411 949 l 1
 411 898 l 1
 399 852 l 1
 378 811 l 1
 345 773 l 1
 302 751 l 1
 259 751 l 1
 232 757 l 1
EndSplineSet
EndChar

StartChar: Edotaccent
Encoding: 278 278 114
Width: 535
Flags: MW
HStem: -9 32 370 30 672 28 700 136<248 312 248 469> 846 20G<248 303 303 303>
VStem: 122 34<25 370 402 670>
LayerCount: 2
Fore
SplineSet
31 -3 m 1xec
 23 9 l 1
 31 21 l 1
 122 25 l 1
 122 670 l 1
 28 675 l 1
 28 700 l 1
 469 700 l 1
 478 691 l 1
 478 682 l 1
 469 675 l 1
 156 670 l 1
 156 402 l 1
 420 398 l 1
 429 383 l 1
 414 370 l 1
 156 370 l 1
 156 25 l 1
 207 21 l 1
 476 25 l 1
 499 161 l 1
 508 170 l 1
 524 170 l 1
 524 131 l 1
 502 3 l 1
 490 -9 l 1
 58 -9 l 1
 31 -3 l 1xec
241 843 m 1
 241 857 l 1
 248 866 l 1
 303 866 l 1
 312 857 l 1
 312 836 l 1
 248 836 l 1xdc
 241 843 l 1
EndSplineSet
EndChar

StartChar: Eogonek
Encoding: 280 280 115
Width: 538
Flags: MW
HStem: -170 21G<448 478 448 448> -6 31 372 30 675 28<37 117 32 464 159 159 159 464>
VStem: 117 34<25 370 408 666>
LayerCount: 2
Fore
SplineSet
412 -159 m 1
 385 -133 l 1
 376 -97 l 1
 385 -51 l 1
 414 -9 l 1
 32 -4 l 1
 23 4 l 1
 23 21 l 1
 101 25 l 1
 117 25 l 1
 117 675 l 1
 32 675 l 1
 23 682 l 1
 23 697 l 1
 37 703 l 1
 464 703 l 1
 473 696 l 1
 473 682 l 1
 464 675 l 1
 159 675 l 1
 151 666 l 1
 151 408 l 1
 202 402 l 1
 414 402 l 1
 423 395 l 1
 423 381 l 1
 414 374 l 1
 151 370 l 1
 151 25 l 1
 472 25 l 1
 499 168 l 1
 513 176 l 1
 527 162 l 1
 499 -1 l 1
 460 -12 l 1
 455 -16 l 1
 429 -39 l 1
 409 -76 l 1
 409 -106 l 1
 421 -128 l 1
 443 -136 l 1
 473 -136 l 1
 512 -119 l 1
 524 -131 l 1
 524 -140 l 1
 510 -152 l 1
 478 -170 l 1
 448 -170 l 1
 412 -159 l 1
EndSplineSet
EndChar

StartChar: Ecaron
Encoding: 282 282 116
Width: 536
Flags: MW
HStem: -9 34<123 123 157 474> 372 28 672 30 932 20G<151 151>
VStem: 123 34<25 370 402 670>
LayerCount: 2
Fore
SplineSet
32 -3 m 1
 23 12 l 1
 33 21 l 1
 123 25 l 1
 123 670 l 1
 32 675 l 1
 23 690 l 1
 39 705 l 1
 474 699 l 1
 474 675 l 1
 157 670 l 1
 157 402 l 1
 421 399 l 1
 430 383 l 1
 419 374 l 1
 157 370 l 1
 157 25 l 1
 474 25 l 1
 501 170 l 1
 525 170 l 1
 525 140 l 1
 503 1 l 1
 483 -9 l 1
 54 -9 l 1
 32 -3 l 1
266 751 m 1
 139 931 l 1
 139 942 l 1
 151 952 l 1
 164 946 l 1
 272 797 l 1
 281 797 l 1
 391 949 l 1
 410 949 l 1
 410 927 l 1
 287 751 l 1
 266 751 l 1
EndSplineSet
EndChar

StartChar: Gcircumflex
Encoding: 284 284 117
Width: 671
Flags: MW
HStem: -16 29<336 433 336 336> -4 21G<269 269 612 612 612 624> 333 28 682 30<348 424 332 432 348 348> 935 20G<381 381>
VStem: 26 35<304 377 377 377> 598 35<58 58 128 331 331 331 627 627>
LayerCount: 2
Fore
SplineSet
269 -4 m 1x7e
 208 25 l 1
 138 74 l 1
 81 149 l 1
 52 209 l 1
 26 304 l 1
 26 377 l 1
 43 469 l 1
 86 557 l 1
 135 617 l 1
 208 670 l 1
 283 705 l 1
 332 712 l 1
 424 712 l 1
 484 700 l 1
 543 670 l 1
 598 627 l 1
 603 691 l 1
 612 700 l 1
 624 700 l 1
 633 691 l 1
 633 557 l 1
 619 551 l 1
 607 556 l 1
 564 615 l 1
 499 663 l 1
 432 682 l 1
 348 682 l 1
 314 678 l 1
 311 678 l 1
 229 650 l 1
 183 615 l 1
 132 565 l 1
 90 501 l 1
 65 425 l 1
 65 420 l 1
 61 395 l 1
 61 286 l 1
 87 194 l 1
 145 115 l 1
 187 76 l 1
 266 30 l 1
 332 13 l 1
 445 13 l 1xbe
 516 34 l 1
 560 64 l 1
 591 104 l 1
 598 128 l 1
 598 331 l 1
 463 335 l 1
 454 344 l 1
 454 352 l 1
 463 361 l 1
 625 361 l 1
 633 347 l 1
 633 4 l 1
 624 -4 l 1
 612 -4 l 1x7e
 603 4 l 1
 598 58 l 1
 549 15 l 1
 481 -10 l 1
 433 -16 l 1
 336 -16 l 1xbe
 269 -4 l 1x7e
242 751 m 1x7e
 242 772 l 1
 311 869 l 1
 314 878 l 1
 318 882 l 1
 366 948 l 1
 381 955 l 1
 403 933 l 1
 514 776 l 1
 514 751 l 1
 496 751 l 1
 381 910 l 1
 366 894 l 1
 336 852 l 1
 332 848 l 1
 263 751 l 1
 242 751 l 1x7e
EndSplineSet
EndChar

StartChar: Gbreve
Encoding: 286 286 118
Width: 674
Flags: MW
HStem: -16 29<318 439 323 424> -4 21G<493 493 603 628 603 603> 331 34<467 598 467 467> 682 32 934 20G<247 256 256 256 497 505 505 505>
VStem: 598 30<58 58 136 331 331 331>
LayerCount: 2
Fore
SplineSet
318 -16 m 1xbc
 220 16 l 1
 148 69 l 1
 107 110 l 1
 61 179 l 1
 26 291 l 1
 26 401 l 1
 53 502 l 1
 98 577 l 1
 174 653 l 1
 201 666 l 1
 232 687 l 1
 312 712 l 1
 397 717 l 1
 473 705 l 1
 552 666 l 1
 589 627 l 1
 598 627 l 1
 603 700 l 1
 628 700 l 1
 636 612 l 1
 628 557 l 1
 613 550 l 1
 603 560 l 1
 563 617 l 1
 500 662 l 1
 417 682 l 1
 315 682 l 1
 227 650 l 1
 178 615 l 1
 120 556 l 1
 107 530 l 1
 98 517 l 1
 64 437 l 1
 52 337 l 1
 72 234 l 1
 107 165 l 1
 141 119 l 1
 202 63 l 1
 259 34 l 1
 323 13 l 1
 439 13 l 1xbc
 484 25 l 1
 539 51 l 1
 578 89 l 1
 598 136 l 1
 598 331 l 1
 467 331 l 1
 451 346 l 1
 461 365 l 1
 619 365 l 1
 628 356 l 1
 628 -4 l 1
 603 -4 l 1
 598 58 l 1
 585 51 l 1
 545 16 l 1
 493 -4 l 1x7c
 424 -16 l 1
 318 -16 l 1xbc
333 757 m 1
 293 784 l 1
 257 836 l 1
 238 900 l 1
 238 946 l 1
 247 954 l 1
 256 954 l 1
 263 946 l 1
 272 891 l 1
 294 830 l 1
 327 797 l 1
 364 779 l 1
 415 787 l 1
 458 831 l 1
 484 907 l 1
 488 946 l 1
 497 954 l 1
 505 954 l 1
 513 946 l 1
 513 903 l 1
 502 852 l 1
 475 806 l 1
 442 772 l 1
 399 751 l 1
 369 751 l 1
 333 757 l 1
EndSplineSet
EndChar

StartChar: Gdotaccent
Encoding: 288 288 119
Width: 666
Flags: MW
HStem: -16 29<334 428 327 433> -4 21G<607 619 607 607> 333 28 682 30<331 415 331 331> 839 27<343 403 343 343>
VStem: 593 35<55 55 122 310 4 331 4 331 624 624>
LayerCount: 2
Fore
SplineSet
237 6 m 1xbc
 167 49 l 1
 88 128 l 1
 47 212 l 1
 26 305 l 1
 26 390 l 1
 42 471 l 1
 87 565 l 1
 144 627 l 1
 230 687 l 1
 315 712 l 1
 428 712 l 1
 506 690 l 1
 555 657 l 1
 593 624 l 1
 598 691 l 1
 607 700 l 1
 622 700 l 1
 628 675 l 1
 628 557 l 1
 607 547 l 1
 555 621 l 1
 513 648 l 1
 467 670 l 1
 415 682 l 1
 331 682 l 1
 252 662 l 1
 184 621 l 1
 115 551 l 1
 68 457 l 1
 56 377 l 1
 56 319 l 1
 63 264 l 1
 93 179 l 1
 136 124 l 1
 191 69 l 1
 278 24 l 1
 334 13 l 1
 433 13 l 1xbc
 504 31 l 1
 534 51 l 1
 547 64 l 1
 555 69 l 1
 593 122 l 1
 593 331 l 1
 458 335 l 1
 449 344 l 1
 449 352 l 1
 458 361 l 1
 622 361 l 1
 628 310 l 1
 628 4 l 1
 619 -4 l 1
 607 -4 l 1x7c
 598 4 l 1
 593 55 l 1
 585 55 l 1
 561 31 l 1
 500 -3 l 1
 428 -16 l 1
 327 -16 l 1
 237 6 l 1xbc
333 849 m 1
 342 866 l 1
 404 866 l 1
 413 849 l 1
 403 839 l 1
 343 839 l 1
 333 849 l 1
EndSplineSet
EndChar

StartChar: Gcommaaccent
Encoding: 290 290 120
Width: 666
Flags: MW
HStem: -198 21G<348 348> -16 29<327 429 327 327> -4 21G<603 619 603 603> 331 30<470 598 470 470> 692 20G<326 415 415 415>
VStem: 26 33<304 374 374 374> 598 30<64 64 136 331 331 331 620 620>
LayerCount: 2
Fore
SplineSet
333 -185 m 1xde
 341 -170 l 1
 373 -161 l 1
 382 -148 l 1
 382 -107 l 1
 357 -67 l 1
 372 -52 l 1
 391 -61 l 1
 411 -100 l 1
 417 -139 l 1
 411 -165 l 1
 390 -186 l 1
 348 -198 l 1
 333 -185 l 1xde
281 -9 m 1
 229 13 l 1
 157 60 l 1
 111 106 l 1
 56 188 l 1
 26 304 l 1
 26 374 l 1
 46 477 l 1
 89 563 l 1
 153 632 l 1
 165 641 l 1
 169 645 l 1
 244 690 l 1
 326 712 l 1
 415 712 l 1
 484 697 l 1
 551 662 l 1
 598 620 l 1
 603 691 l 1
 610 700 l 1
 619 700 l 1
 628 691 l 1
 628 560 l 1
 616 548 l 1
 603 556 l 1
 558 617 l 1
 509 653 l 1
 466 670 l 1
 378 687 l 1
 297 675 l 1
 217 641 l 1
 174 611 l 1
 119 550 l 1
 81 480 l 1
 59 410 l 1
 59 279 l 1
 96 176 l 1
 147 109 l 1
 215 51 l 1
 315 13 l 1
 429 13 l 1xde
 458 18 l 1
 463 18 l 1
 528 42 l 1
 579 91 l 1
 598 136 l 1
 598 331 l 1
 470 331 l 1
 454 340 l 1
 448 350 l 1
 458 361 l 1
 619 361 l 1
 628 352 l 1
 628 4 l 1
 619 -4 l 1
 603 -4 l 1xbe
 598 64 l 1
 566 31 l 1
 509 0 l 1
 445 -16 l 1
 327 -16 l 1
 281 -9 l 1
EndSplineSet
EndChar

StartChar: Hcircumflex
Encoding: 292 292 121
Width: 777
Flags: MW
HStem: -9 32 365 34<183 594 183 594> 670 30<40 150 40 40 183 183 183 290 484 569 629 629 629 745> 929 20G<380 399 399 399>
VStem: 150 33<25 365 399 670> 594 35<28 365 365 365 399 665 665 665>
LayerCount: 2
Fore
SplineSet
27 -1 m 1
 27 15 l 1
 40 21 l 1
 150 25 l 1
 150 670 l 1
 40 670 l 1
 25 684 l 1
 33 700 l 1
 293 700 l 1
 302 691 l 1
 302 676 l 1
 290 670 l 1
 183 670 l 1
 183 399 l 1
 594 399 l 1
 594 665 l 1
 569 670 l 1
 483 670 l 1
 474 688 l 1
 484 700 l 1
 745 700 l 1
 752 685 l 1
 745 670 l 1
 629 670 l 1
 629 28 l 1
 642 21 l 1
 745 21 l 1
 752 6 l 1
 745 -9 l 1
 484 -9 l 1
 477 0 l 1
 477 15 l 1
 489 21 l 1
 594 21 l 1
 594 365 l 1
 183 365 l 1
 183 25 l 1
 290 21 l 1
 302 9 l 1
 302 -1 l 1
 290 -9 l 1
 40 -9 l 1
 27 -1 l 1
249 764 m 1
 380 949 l 1
 399 949 l 1
 521 776 l 1
 527 758 l 1
 523 751 l 1
 502 751 l 1
 472 793 l 1
 468 797 l 1
 463 806 l 1
 459 811 l 1
 389 910 l 1
 274 751 l 1
 256 751 l 1
 249 764 l 1
EndSplineSet
EndChar

StartChar: Hbar
Encoding: 294 294 122
Width: 780
Flags: MW
HStem: -4 27 370 32<184 600 184 600> 519 32 672 28
VStem: 150 34<25 370 25 402 402 517 556 670> 600 33<25 370 370 370 402 517 25 517 565 670>
LayerCount: 2
Fore
SplineSet
26 4 m 1
 26 13 l 1
 35 21 l 1
 150 25 l 1
 150 517 l 1
 44 517 l 1
 25 536 l 1
 34 551 l 1
 56 551 l 1
 145 556 l 1
 150 556 l 1
 150 670 l 1
 31 675 l 1
 31 700 l 1
 294 700 l 1
 302 691 l 1
 302 682 l 1
 294 675 l 1
 184 670 l 1
 184 551 l 1
 586 551 l 1
 600 565 l 1
 600 670 l 1
 485 675 l 1
 476 682 l 1
 476 691 l 1
 485 700 l 1
 743 700 l 1
 752 691 l 1
 752 675 l 1
 633 670 l 1
 633 560 l 1
 642 551 l 1
 743 551 l 1
 752 542 l 1
 752 530 l 1
 743 521 l 1
 633 517 l 1
 633 25 l 1
 743 21 l 1
 755 10 l 1
 747 -4 l 1
 485 -4 l 1
 476 4 l 1
 476 13 l 1
 485 21 l 1
 600 25 l 1
 600 370 l 1
 184 370 l 1
 184 25 l 1
 296 21 l 1
 303 6 l 1
 294 -4 l 1
 35 -4 l 1
 26 4 l 1
184 517 m 1
 184 402 l 1
 600 402 l 1
 600 517 l 1
 341 521 l 1
 184 517 l 1
EndSplineSet
EndChar

StartChar: Iacute
Encoding: 205 205 123
Width: 291
Flags: MW
HStem: -4 21G<219 219> -2 29 676 32 938 20G<239 254 254 254>
VStem: 130 34<30 673 673 673>
LayerCount: 2
Fore
SplineSet
15 0 m 1x78
 8 9 l 1
 8 18 l 1
 15 25 l 1
 130 30 l 1
 130 673 l 1
 15 679 l 1
 8 687 l 1
 8 702 l 1
 24 708 l 1
 275 708 l 1
 283 700 l 1
 283 687 l 1
 275 678 l 1
 164 675 l 1
 164 30 l 1
 275 25 l 1
 283 18 l 1
 283 0 l 1
 219 -4 l 1xb8
 15 0 l 1x78
134 763 m 1
 134 776 l 1
 239 958 l 1
 254 958 l 1
 266 946 l 1
 161 761 l 1
 145 754 l 1
 134 763 l 1
EndSplineSet
EndChar

StartChar: Igrave
Encoding: 204 204 124
Width: 293
Flags: MW
HStem: -4 21G<148 148> -2 29 678 30<22 77 17 278 166 166 166 278> 938 20G<43 57 57 57>
VStem: 132 30<30 530 30 673>
LayerCount: 2
Fore
SplineSet
8 0 m 1x78
 8 18 l 1
 17 25 l 1
 132 30 l 1
 132 673 l 1
 77 678 l 1
 17 678 l 1
 8 687 l 1
 8 702 l 1
 22 708 l 1
 278 708 l 1
 285 693 l 1
 278 678 l 1
 166 678 l 1
 162 530 l 1
 162 30 l 1
 278 25 l 1
 285 10 l 1
 277 0 l 1
 148 -4 l 1xb8
 8 0 l 1x78
136 758 m 1
 35 937 l 1
 35 949 l 1
 43 958 l 1
 57 958 l 1
 157 781 l 1
 157 763 l 1
 147 754 l 1
 136 758 l 1
EndSplineSet
EndChar

StartChar: Icircumflex
Encoding: 206 206 125
Width: 287
Flags: MW
HStem: -4 27 675 28<15 125 15 279 169 169 169 270> 934 20G<134 152 152 152>
VStem: 125 35<25 666 25 675 25 675>
LayerCount: 2
Fore
SplineSet
8 -4 m 1
 8 21 l 1
 125 25 l 1
 125 675 l 1
 15 675 l 1
 8 682 l 1
 8 696 l 1
 15 703 l 1
 279 703 l 1
 279 682 l 1
 270 675 l 1
 169 675 l 1
 160 666 l 1
 160 25 l 1
 279 21 l 1
 279 -4 l 1
 8 -4 l 1
8 755 m 1
 8 775 l 1
 79 878 l 1
 84 882 l 1
 114 924 l 1
 118 928 l 1
 134 954 l 1
 152 954 l 1
 279 776 l 1
 279 755 l 1
 257 755 l 1
 146 910 l 1
 130 894 l 1
 29 755 l 1
 8 755 l 1
EndSplineSet
EndChar

StartChar: Idieresis
Encoding: 207 207 126
Width: 293
Flags: MW
HStem: -4 27 675 28<21 120 21 21 166 166 166 246> 703 136<47 102 47 196 196 251> 849 20G<47 105 105 105> 850 20G<233 233>
VStem: 132 29<25 425 25 668>
LayerCount: 2
Fore
SplineSet
9 4 m 1xd4
 9 13 l 1
 17 21 l 1
 132 25 l 1
 132 668 l 1
 120 675 l 1
 21 675 l 1
 8 688 l 1
 15 703 l 1
 276 703 l 1
 285 696 l 1
 285 679 l 1
 246 675 l 1
 166 675 l 1
 161 425 l 1
 161 25 l 1
 285 21 l 1
 285 4 l 1
 276 -4 l 1
 17 -4 l 1
 9 4 l 1xd4
35 846 m 1
 35 857 l 1
 47 869 l 1
 105 869 l 1
 114 851 l 1
 102 839 l 1
 47 839 l 1xb4
 35 846 l 1
187 848 m 1
 187 864 l 1
 233 870 l 1xcc
 258 864 l 1
 258 848 l 1
 251 839 l 1
 196 839 l 1
 187 848 l 1
EndSplineSet
EndChar

StartChar: Itilde
Encoding: 296 296 127
Width: 294
Flags: MW
HStem: -4 27 675 28<20 134 17 278 167 167 167 275> 675 216<64 112 64 134 17 112 64 167 264 275>
VStem: 134 33<25 675 25 675>
LayerCount: 2
Fore
SplineSet
11 4 m 1xd0
 11 13 l 1
 20 21 l 1
 134 25 l 1
 134 675 l 1
 17 675 l 1
 8 693 l 1
 20 703 l 1
 278 703 l 1
 286 696 l 1
 286 687 l 1
 275 675 l 1
 167 675 l 1
 167 25 l 1
 278 21 l 1
 286 13 l 1
 286 4 l 1
 278 -4 l 1
 20 -4 l 1
 11 4 l 1xd0
176 822 m 1
 100 861 l 1
 70 861 l 1
 54 843 l 1
 33 818 l 1
 20 818 l 1
 9 828 l 1
 29 867 l 1
 64 891 l 1
 112 891 l 1
 197 848 l 1
 222 848 l 1
 240 857 l 1
 264 891 l 1
 286 891 l 1xb0
 286 867 l 1
 255 827 l 1
 213 812 l 1
 176 822 l 1
EndSplineSet
EndChar

StartChar: Imacron
Encoding: 298 298 128
Width: 294
Flags: MW
HStem: -4 27 672 31 839 27<36 252 44 252 44 252>
VStem: 129 34<25 670 25 670>
LayerCount: 2
Fore
SplineSet
9 -4 m 1
 9 13 l 1
 18 21 l 1
 129 25 l 1
 129 670 l 1
 18 675 l 1
 8 685 l 1
 17 703 l 1
 273 703 l 1
 286 690 l 1
 279 675 l 1
 163 670 l 1
 163 25 l 1
 279 21 l 1
 286 6 l 1
 278 -4 l 1
 9 -4 l 1
36 839 m 1
 36 857 l 1
 44 866 l 1
 252 866 l 1
 260 857 l 1
 260 848 l 1
 252 839 l 1
 36 839 l 1
EndSplineSet
EndChar

StartChar: Ibreve
Encoding: 300 300 129
Width: 287
Flags: MW
HStem: -4 27 675 28<22 127 17 272 169 169 169 263> 934 20G<8 28 28 28 263 279 279 279>
VStem: 127 35<25 666 25 675 25 675>
LayerCount: 2
Fore
SplineSet
8 -4 m 1
 8 21 l 1
 127 25 l 1
 127 675 l 1
 17 675 l 1
 8 682 l 1
 8 697 l 1
 22 703 l 1
 272 703 l 1
 279 696 l 1
 279 679 l 1
 263 675 l 1
 169 675 l 1
 162 666 l 1
 162 25 l 1
 279 21 l 1
 279 4 l 1
 272 -4 l 1
 8 -4 l 1
81 767 m 1
 59 788 l 1
 26 839 l 1
 8 898 l 1
 8 954 l 1
 28 954 l 1
 34 942 l 1
 43 879 l 1
 63 836 l 1
 89 802 l 1
 123 785 l 1
 166 785 l 1
 203 806 l 1
 233 848 l 1
 250 903 l 1
 256 946 l 1
 263 954 l 1
 279 954 l 1
 279 882 l 1
 256 821 l 1
 218 778 l 1
 166 751 l 1
 136 751 l 1
 81 767 l 1
EndSplineSet
EndChar

StartChar: Iogonek
Encoding: 302 302 130
Width: 292
Flags: MW
HStem: -170 21G<150 150> -9 21G<20 105 20 20 159 159> -6 29 675 28<20 119 20 275 165 165 165 275>
VStem: 130 32
LayerCount: 2
Fore
SplineSet
108 -162 m 1xb8
 75 -136 l 1
 75 -131 l 1
 72 -118 l 1
 72 -67 l 1
 84 -37 l 1
 105 -9 l 1
 20 -9 l 1
 8 4 l 1
 8 13 l 1
 17 21 l 1
 130 25 l 1
 130 668 l 1
 119 675 l 1
 20 675 l 1
 8 687 l 1
 8 697 l 1
 20 703 l 1
 275 703 l 1
 284 696 l 1
 284 682 l 1
 275 675 l 1
 165 675 l 1
 159 39 l 1
 165 25 l 1
 275 25 l 1
 284 18 l 1
 284 4 l 1
 275 -4 l 1
 159 -9 l 1xd8
 126 -30 l 1
 102 -70 l 1
 102 -115 l 1
 123 -136 l 1
 165 -136 l 1
 203 -119 l 1
 211 -127 l 1
 211 -148 l 1
 181 -164 l 1
 150 -170 l 1
 108 -162 l 1xb8
EndSplineSet
EndChar

StartChar: Idotaccent
Encoding: 304 304 131
Width: 298
Flags: MW
HStem: -4 27 672 31 839 27<113 181 113 181>
VStem: 134 31
LayerCount: 2
Fore
SplineSet
8 7 m 1
 16 21 l 1
 134 25 l 1
 134 326 l 1
 129 352 l 1
 134 370 l 1
 134 670 l 1
 32 670 l 1
 11 681 l 1
 11 697 l 1
 23 703 l 1
 278 703 l 1
 287 696 l 1
 287 682 l 1
 278 675 l 1
 168 670 l 1
 163 183 l 1
 168 25 l 1
 278 21 l 1
 290 10 l 1
 283 -4 l 1
 19 -4 l 1
 8 7 l 1
113 839 m 1
 113 866 l 1
 181 866 l 1
 189 857 l 1
 189 848 l 1
 181 839 l 1
 113 839 l 1
EndSplineSet
EndChar

StartChar: IJ
Encoding: 306 306 132
Width: 661
Flags: MW
HStem: -16 39 -4 27 672 31
VStem: 133 35<25 670 25 670> 559 32
LayerCount: 2
Fore
SplineSet
414 -16 m 1xb8
 358 10 l 1
 326 52 l 1
 312 94 l 1
 312 128 l 1
 320 136 l 1
 329 136 l 1
 338 128 l 1
 355 63 l 1
 393 25 l 1
 430 13 l 1
 494 13 l 1
 536 34 l 1
 558 76 l 1
 558 106 l 1
 561 521 l 1
 558 670 l 1
 370 675 l 1
 363 682 l 1
 363 699 l 1
 448 703 l 1
 585 700 l 1
 591 687 l 1
 591 95 l 1
 573 33 l 1
 536 -4 l 1x78
 498 -16 l 1
 414 -16 l 1xb8
11 4 m 1xb8
 11 13 l 1
 19 21 l 1
 133 25 l 1
 133 670 l 1
 19 675 l 1
 8 685 l 1
 17 703 l 1
 278 703 l 1
 287 696 l 1
 287 675 l 1
 168 670 l 1
 168 25 l 1
 287 21 l 1
 287 -4 l 1
 19 -4 l 1x78
 11 4 l 1xb8
EndSplineSet
EndChar

StartChar: Jcircumflex
Encoding: 308 308 133
Width: 378
Flags: MW
HStem: -16 29<116 187 116 192 116 187> 672 29 929 20G<157 177 177 177>
VStem: 251 30<106 670 670 670>
LayerCount: 2
Fore
SplineSet
84 -10 m 1
 37 25 l 1
 13 64 l 1
 5 94 l 1
 5 130 l 1
 20 137 l 1
 31 128 l 1
 37 89 l 1
 52 60 l 1
 81 30 l 1
 116 13 l 1
 187 13 l 1
 221 30 l 1
 244 58 l 1
 251 106 l 1
 251 670 l 1
 56 675 l 1
 56 699 l 1
 145 703 l 1
 272 700 l 1
 281 691 l 1
 281 89 l 1
 265 31 l 1
 230 -4 l 1
 192 -16 l 1
 116 -16 l 1
 84 -10 l 1
28 757 m 1
 35 776 l 1
 157 949 l 1
 177 949 l 1
 308 766 l 1
 299 751 l 1
 283 751 l 1
 168 910 l 1
 53 751 l 1
 35 751 l 1
 28 757 l 1
EndSplineSet
EndChar

StartChar: Kcommaaccent
Encoding: 310 310 134
Width: 646
Flags: MW
HStem: -191 21G<297 339 297 297> -4 29<63 119 157 242 420 479 533 628 420 420> 675 28<238 238 348 442>
VStem: 123 34<64 292 347 670>
LayerCount: 2
Fore
SplineSet
290 -176 m 1
 300 -167 l 1
 332 -158 l 1
 339 -145 l 1
 339 -107 l 1
 315 -69 l 1
 323 -55 l 1
 342 -55 l 1
 367 -91 l 1
 375 -145 l 1
 364 -165 l 1
 339 -191 l 1
 297 -191 l 1
 290 -176 l 1
26 4 m 1
 26 21 l 1
 63 25 l 1
 119 25 l 1
 123 64 l 1
 123 670 l 1
 34 675 l 1
 26 682 l 1
 26 699 l 1
 68 703 l 1
 242 703 l 1
 251 696 l 1
 251 681 l 1
 238 675 l 1
 157 670 l 1
 157 347 l 1
 163 341 l 1
 504 670 l 1
 442 675 l 1
 344 675 l 1
 335 682 l 1
 335 697 l 1
 348 703 l 1
 558 703 l 1
 567 685 l 1
 263 395 l 1
 263 386 l 1
 533 25 l 1
 628 25 l 1
 636 18 l 1
 636 4 l 1
 628 -4 l 1
 420 -4 l 1
 409 7 l 1
 418 25 l 1
 479 25 l 1
 488 30 l 1
 437 101 l 1
 433 106 l 1
 239 365 l 1
 233 365 l 1
 157 292 l 1
 157 25 l 1
 242 25 l 1
 251 18 l 1
 251 -4 l 1
 34 -4 l 1
 26 4 l 1
EndSplineSet
EndChar

StartChar: kgreenlandic
Encoding: 312 312 135
Width: 506
Flags: MW
HStem: -6 21G<333 333> -4 31 374 28<36 121 30 240 161 161 161 236> 385 20G<351 351>
VStem: 121 34<30 161 234 361> 419 28
LayerCount: 2
Fore
SplineSet
36 -4 m 1x6c
 21 10 l 1
 30 25 l 1
 121 30 l 1
 121 374 l 1
 30 374 l 1
 21 389 l 1
 36 402 l 1
 240 402 l 1
 248 395 l 1
 248 380 l 1
 236 374 l 1
 161 374 l 1x6c
 155 361 l 1
 155 234 l 1
 158 234 l 1
 248 353 l 1
 307 393 l 1
 351 405 l 1
 394 396 l 1
 435 356 l 1
 447 301 l 1
 447 234 l 1
 438 225 l 1
 431 225 l 1
 422 234 l 1
 416 313 l 1
 392 361 l 1
 376 370 l 1
 324 370 l 1
 273 331 l 1
 222 270 l 1
 222 252 l 1
 240 229 l 1
 243 225 l 1
 395 30 l 1
 498 25 l 1
 498 0 l 1
 333 -6 l 1x9c
 278 0 l 1
 278 25 l 1
 353 30 l 1
 199 231 l 1
 155 161 l 1
 155 30 l 1
 240 25 l 1
 248 18 l 1
 248 1 l 1
 222 -4 l 1
 36 -4 l 1x6c
EndSplineSet
EndChar

StartChar: Lslash
Encoding: 321 321 136
Width: 577
Flags: MW
HStem: 0 30<118 118 152 521> 677 26
VStem: 25 127<0 325 25 325> 118 34<30 317 317 317 365 673>
LayerCount: 2
Fore
SplineSet
25 0 m 1xe0
 25 25 l 1xe0
 118 30 l 1
 118 317 l 1
 55 301 l 1
 30 301 l 1
 30 325 l 1
 118 350 l 1
 118 675 l 1xd0
 25 679 l 1
 25 703 l 1
 243 703 l 1
 252 688 l 1
 241 678 l 1
 152 673 l 1
 152 365 l 1
 173 365 l 1
 331 407 l 1
 343 395 l 1
 343 384 l 1
 322 374 l 1
 152 325 l 1
 152 30 l 1
 521 30 l 1
 547 174 l 1
 572 174 l 1
 572 149 l 1
 545 0 l 1
 25 0 l 1xe0
EndSplineSet
EndChar

StartChar: Lacute
Encoding: 313 313 137
Width: 581
Flags: MW
HStem: 0 30<122 122 156 525> 677 26 934 20G<227 250 250 250>
VStem: 122 34<30 673 673 673>
LayerCount: 2
Fore
SplineSet
25 9 m 1
 25 18 l 1
 34 25 l 1
 122 30 l 1
 122 673 l 1
 34 678 l 1
 25 687 l 1
 25 696 l 1
 34 703 l 1
 250 703 l 1
 250 679 l 1
 156 675 l 1
 156 30 l 1
 525 30 l 1
 542 119 l 1
 542 124 l 1
 552 173 l 1
 567 179 l 1
 576 170 l 1
 576 140 l 1
 554 7 l 1
 546 0 l 1
 34 0 l 1
 25 9 l 1
126 755 m 1
 126 776 l 1
 227 954 l 1
 250 954 l 1
 250 933 l 1
 147 755 l 1
 126 755 l 1
EndSplineSet
EndChar

StartChar: Lcommaaccent
Encoding: 315 315 138
Width: 583
Flags: MW
HStem: -191 21G<265 265 265 302> -4 29<125 125 158 527> 672 28
VStem: 125 33<25 670 25 670>
LayerCount: 2
Fore
SplineSet
265 -191 m 1
 265 -171 l 1
 277 -165 l 1
 299 -159 l 1
 311 -148 l 1
 311 -109 l 1
 288 -67 l 1
 295 -55 l 1
 314 -55 l 1
 334 -85 l 1
 346 -118 l 1
 346 -155 l 1
 326 -183 l 1
 302 -191 l 1
 265 -191 l 1
27 4 m 1
 27 13 l 1
 36 21 l 1
 125 25 l 1
 125 670 l 1
 36 675 l 1
 25 684 l 1
 34 700 l 1
 252 700 l 1
 252 675 l 1
 158 670 l 1
 158 25 l 1
 527 25 l 1
 554 170 l 1
 578 170 l 1
 578 140 l 1
 574 115 l 1
 574 110 l 1
 556 3 l 1
 548 -4 l 1
 36 -4 l 1
 27 4 l 1
EndSplineSet
EndChar

StartChar: Lcaron
Encoding: 317 317 139
Width: 608
Flags: MW
HStem: -4 29<142 142 177 549> 672 28 934 20G<37 37 283 283>
VStem: 142 35<25 670 25 670>
LayerCount: 2
Fore
SplineSet
46 4 m 1
 46 13 l 1
 55 21 l 1
 142 25 l 1
 142 670 l 1
 55 675 l 1
 46 682 l 1
 46 691 l 1
 55 700 l 1
 268 700 l 1
 277 684 l 1
 266 675 l 1
 177 670 l 1
 177 25 l 1
 549 25 l 1
 572 156 l 1
 572 165 l 1
 588 174 l 1
 603 167 l 1
 576 4 l 1
 567 -4 l 1
 55 -4 l 1
 46 4 l 1
153 751 m 1
 25 928 l 1
 25 948 l 1
 37 954 l 1
 59 933 l 1
 156 797 l 1
 165 797 l 1
 262 933 l 1
 283 954 l 1
 296 949 l 1
 302 937 l 1
 186 772 l 1
 165 751 l 1
 153 751 l 1
EndSplineSet
EndChar

StartChar: Ldot
Encoding: 319 319 140
Width: 581
Flags: MW
HStem: -4 29<117 117 156 522> 672 28
VStem: 117 39<25 669 25 670 25 670>
LayerCount: 2
Fore
SplineSet
25 4 m 1
 25 21 l 1
 117 25 l 1
 117 670 l 1
 25 675 l 1
 25 691 l 1
 34 700 l 1
 241 700 l 1
 250 691 l 1
 250 682 l 1
 241 675 l 1
 156 669 l 1
 156 25 l 1
 522 25 l 1
 548 170 l 1
 570 170 l 1
 576 153 l 1
 554 25 l 1
 554 9 l 1
 542 -4 l 1
 34 -4 l 1
 25 4 l 1
448 319 m 1
 448 377 l 1
 458 387 l 1
 473 380 l 1
 473 319 l 1
 466 310 l 1
 457 310 l 1
 448 319 l 1
EndSplineSet
EndChar

StartChar: Ntilde
Encoding: 209 209 141
Width: 782
Flags: MW
HStem: -4 29<42 152 185 296 38 152> 670 30<38 109 35 178 118 118 491 601 647 647 647 750> 670 217<35 361 118 361 313 491 512 525 313 601>
VStem: 152 33<25 602 25 665> 601 34<76 365 466 657>
LayerCount: 2
Fore
SplineSet
29 4 m 1xd8
 29 19 l 1
 42 25 l 1
 152 25 l 1
 152 665 l 1
 118 670 l 1
 109 666 l 1
 109 670 l 1
 35 670 l 1
 26 688 l 1
 38 700 l 1
 178 700 l 1
 398 374 l 1
 401 365 l 1
 595 76 l 1
 601 76 l 1
 601 670 l 1
 491 670 l 1
 482 678 l 1
 482 691 l 1
 491 700 l 1
 750 700 l 1
 760 688 l 1
 751 670 l 1
 647 670 l 1
 635 657 l 1
 635 466 l 1
 640 402 l 1
 635 365 l 1
 635 9 l 1
 622 -4 l 1
 611 -4 l 1
 512 140 l 1
 509 149 l 1
 406 301 l 1
 401 310 l 1
 398 314 l 1
 346 390 l 1
 343 395 l 1
 339 402 l 1
 190 623 l 1
 185 602 l 1
 185 25 l 1
 296 25 l 1
 304 18 l 1
 304 -4 l 1
 38 -4 l 1
 29 4 l 1xd8
258 811 m 1
 258 837 l 1
 279 869 l 1
 313 887 l 1
 361 887 l 1
 449 839 l 1
 480 845 l 1
 512 887 l 1
 525 887 l 1xb8
 535 875 l 1
 519 840 l 1
 488 818 l 1
 455 806 l 1
 419 818 l 1
 348 857 l 1
 318 857 l 1
 291 831 l 1
 278 811 l 1
 258 811 l 1
EndSplineSet
EndChar

StartChar: Nacute
Encoding: 323 323 142
Width: 779
Flags: MW
HStem: -4 31 0 21G<608 626 608 608> 672 28 929 20G<434 449 449 449>
VStem: 151 34<30 615 30 663> 601 34<80 670 9 670>
LayerCount: 2
Fore
SplineSet
29 1 m 1xbc
 29 18 l 1
 38 25 l 1
 151 30 l 1
 151 663 l 1
 139 670 l 1
 35 670 l 1
 26 688 l 1
 38 700 l 1
 176 700 l 1
 240 606 l 1
 249 597 l 1
 254 590 l 1
 440 310 l 1
 445 301 l 1
 449 297 l 1
 592 80 l 1
 601 80 l 1
 601 670 l 1
 491 675 l 1
 482 682 l 1
 482 691 l 1
 491 700 l 1
 757 700 l 1
 757 675 l 1
 635 670 l 1
 635 9 l 1
 626 0 l 1
 608 0 l 1x7c
 364 365 l 1
 360 374 l 1
 321 429 l 1
 316 437 l 1
 190 623 l 1
 185 615 l 1
 185 30 l 1
 296 25 l 1
 304 18 l 1
 304 1 l 1
 275 -4 l 1
 50 -4 l 1
 29 1 l 1xbc
327 763 m 1
 434 949 l 1
 449 949 l 1
 456 942 l 1
 456 928 l 1
 355 751 l 1
 339 751 l 1
 327 763 l 1
EndSplineSet
EndChar

StartChar: Ncommaaccent
Encoding: 325 325 143
Width: 772
Flags: MW
HStem: -191 21G<357 385 357 357> -4 31 670 30<38 144 38 38 488 488 488 598 645 645 645 704>
VStem: 144 39<30 615 30 670> 598 35<85 662 9 670 9 670>
LayerCount: 2
Fore
SplineSet
347 -180 m 1
 356 -162 l 1
 387 -155 l 1
 399 -145 l 1
 399 -115 l 1
 378 -72 l 1
 378 -51 l 1
 394 -51 l 1
 412 -67 l 1
 427 -100 l 1
 434 -140 l 1
 417 -174 l 1
 385 -191 l 1
 357 -191 l 1
 347 -180 l 1
26 1 m 1
 26 19 l 1
 38 25 l 1
 144 30 l 1
 144 670 l 1
 38 670 l 1
 26 682 l 1
 26 691 l 1
 34 700 l 1
 175 700 l 1
 204 657 l 1
 208 653 l 1
 212 645 l 1
 259 572 l 1
 263 568 l 1
 302 510 l 1
 309 501 l 1
 314 492 l 1
 360 425 l 1
 364 416 l 1
 573 106 l 1
 578 101 l 1
 581 94 l 1
 594 80 l 1
 598 85 l 1
 598 670 l 1
 488 670 l 1
 479 678 l 1
 479 700 l 1
 750 700 l 1
 750 675 l 1
 704 670 l 1
 645 670 l 1
 633 662 l 1
 633 9 l 1
 619 -4 l 1
 601 1 l 1
 548 85 l 1
 539 94 l 1
 534 101 l 1
 522 119 l 1
 518 128 l 1
 382 331 l 1
 378 340 l 1
 187 620 l 1
 183 615 l 1
 183 30 l 1
 294 25 l 1
 303 7 l 1
 293 -4 l 1
 47 -4 l 1
 26 1 l 1
EndSplineSet
EndChar

StartChar: Ncaron
Encoding: 327 327 144
Width: 775
Flags: MW
HStem: -4 29<26 136 51 136 182 292> 668 32 929 20G<257 272 272 272>
VStem: 143 39<34 606 25 666> 593 39<89 390 9 666>
LayerCount: 2
Fore
SplineSet
26 -4 m 1
 26 21 l 1
 51 25 l 1
 136 25 l 1
 143 34 l 1
 143 666 l 1
 42 670 l 1
 33 670 l 1
 26 678 l 1
 26 693 l 1
 38 700 l 1
 172 700 l 1
 187 678 l 1
 199 666 l 1
 212 641 l 1
 224 627 l 1
 224 623 l 1
 228 620 l 1
 233 611 l 1
 301 510 l 1
 304 505 l 1
 309 496 l 1
 373 402 l 1
 377 399 l 1
 377 395 l 1
 424 326 l 1
 428 319 l 1
 449 289 l 1
 453 280 l 1
 462 271 l 1
 467 264 l 1
 580 89 l 1
 589 85 l 1
 593 89 l 1
 593 666 l 1
 483 670 l 1
 471 681 l 1
 482 700 l 1
 744 700 l 1
 753 681 l 1
 741 670 l 1
 632 666 l 1
 628 611 l 1
 632 390 l 1
 632 9 l 1
 619 -4 l 1
 604 -4 l 1
 343 386 l 1
 334 395 l 1
 334 399 l 1
 194 606 l 1
 187 611 l 1
 182 606 l 1
 182 25 l 1
 294 25 l 1
 303 7 l 1
 292 -4 l 1
 26 -4 l 1
364 767 m 1
 327 818 l 1
 318 827 l 1
 301 857 l 1
 272 894 l 1
 249 934 l 1
 257 949 l 1
 272 949 l 1
 304 907 l 1
 313 891 l 1
 327 878 l 1
 385 793 l 1
 407 808 l 1
 424 839 l 1
 437 852 l 1
 440 861 l 1
 444 866 l 1
 503 946 l 1
 525 946 l 1
 525 927 l 1
 403 752 l 1
 386 745 l 1
 364 767 l 1
EndSplineSet
EndChar

StartChar: Eng
Encoding: 330 330 145
Width: 780
Flags: MW
HStem: -288 21G<506 506> -12 35 666 32 680 20G<595 595>
VStem: 150 38<33 183 276 586> 600 34<-161 0 0 0 89 645 -177 662 -177 662>
LayerCount: 2
Fore
SplineSet
449 -279 m 1xec
 400 -253 l 1
 367 -207 l 1
 354 -170 l 1
 354 -140 l 1
 363 -131 l 1
 375 -131 l 1
 384 -140 l 1
 393 -182 l 1
 400 -195 l 1
 400 -200 l 1
 404 -203 l 1
 404 -207 l 1
 425 -228 l 1
 463 -250 l 1
 540 -250 l 1
 573 -234 l 1
 594 -201 l 1
 600 -161 l 1
 600 0 l 1
 540 89 l 1
 536 94 l 1
 451 225 l 1
 448 234 l 1
 439 241 l 1
 434 250 l 1
 363 356 l 1
 349 381 l 1
 328 402 l 1
 320 420 l 1
 244 535 l 1
 239 542 l 1
 235 547 l 1
 232 556 l 1
 196 605 l 1
 188 586 l 1
 188 276 l 1
 184 238 l 1
 188 183 l 1
 188 33 l 1
 202 25 l 1
 269 25 l 1
 282 21 l 1
 294 21 l 1
 308 13 l 1
 308 -1 l 1
 287 -12 l 1
 44 -12 l 1
 26 6 l 1
 41 21 l 1
 150 25 l 1
 150 656 l 1
 121 666 l 1
 41 666 l 1xec
 32 675 l 1
 32 687 l 1
 41 696 l 1
 177 696 l 1
 193 678 l 1
 202 662 l 1
 232 620 l 1
 244 602 l 1
 257 577 l 1
 269 565 l 1
 287 530 l 1
 303 513 l 1
 315 487 l 1
 324 480 l 1
 337 457 l 1
 345 450 l 1
 358 425 l 1
 367 416 l 1
 384 390 l 1
 388 386 l 1
 388 381 l 1
 393 377 l 1
 425 326 l 1
 439 314 l 1
 455 280 l 1
 506 204 l 1
 515 195 l 1
 524 179 l 1
 536 165 l 1
 553 131 l 1
 558 128 l 1
 561 119 l 1
 570 110 l 1
 570 106 l 1
 595 80 l 1
 600 89 l 1
 600 662 l 1
 503 662 l 1
 475 675 l 1
 482 690 l 1
 494 696 l 1
 595 700 l 1xdc
 735 696 l 1
 744 696 l 1
 758 681 l 1
 750 666 l 1
 644 666 l 1
 634 645 l 1
 634 -177 l 1
 629 -182 l 1
 629 -186 l 1
 616 -228 l 1
 600 -255 l 1
 588 -262 l 1
 579 -271 l 1
 574 -271 l 1
 533 -283 l 1
 528 -283 l 1
 506 -288 l 1
 449 -279 l 1xec
EndSplineSet
EndChar

StartChar: Oacute
Encoding: 211 211 146
Width: 754
Flags: MW
HStem: -13 21G<377 377> 701 20G<331 408 408 408> 938 20G<472 483 483 483>
VStem: 27 30<322 390 322 402 322 402> 695 32
LayerCount: 2
Fore
SplineSet
302 -4 m 1
 273 4 l 1
 265 4 l 1
 186 43 l 1
 121 101 l 1
 79 161 l 1
 36 252 l 1
 27 310 l 1
 27 402 l 1
 40 462 l 1
 70 535 l 1
 95 577 l 1
 146 632 l 1
 225 690 l 1
 331 721 l 1
 408 721 l 1
 508 699 l 1
 593 647 l 1
 664 571 l 1
 706 487 l 1
 727 408 l 1
 727 335 l 1
 718 267 l 1
 718 264 l 1
 687 179 l 1
 623 89 l 1
 583 60 l 1
 578 55 l 1
 517 16 l 1
 447 -4 l 1
 377 -13 l 1
 302 -4 l 1
295 28 m 1
 341 21 l 1
 408 21 l 1
 462 31 l 1
 541 69 l 1
 599 109 l 1
 647 173 l 1
 678 240 l 1
 663 255 l 1
 667 259 l 1
 672 255 l 1
 682 255 l 1
 699 332 l 1
 691 434 l 1
 653 529 l 1
 602 596 l 1
 536 648 l 1
 451 684 l 1
 374 693 l 1
 295 682 l 1
 209 642 l 1
 150 593 l 1
 109 538 l 1
 82 487 l 1
 61 416 l 1
 61 411 l 1
 57 390 l 1
 57 322 l 1
 61 297 l 1
 61 285 l 1
 86 210 l 1
 130 140 l 1
 194 76 l 1
 295 28 l 1
359 770 m 1
 456 942 l 1
 472 958 l 1
 483 958 l 1
 490 943 l 1
 387 758 l 1
 375 755 l 1
 359 770 l 1
EndSplineSet
EndChar

StartChar: Ograve
Encoding: 210 210 147
Width: 762
Flags: MW
HStem: -12 33<344 408 344 344> -9 21G<434 438 434 434> 701 20G<344 399 399 399> 934 20G<268 289 289 289>
VStem: 27 30<310 399 399 399>
LayerCount: 2
Fore
SplineSet
268 4 m 1xb8
 213 30 l 1
 134 82 l 1
 73 165 l 1
 37 243 l 1
 27 310 l 1
 27 399 l 1
 45 480 l 1
 91 572 l 1
 158 641 l 1
 213 678 l 1
 259 700 l 1
 344 721 l 1
 399 721 l 1
 499 702 l 1
 572 665 l 1
 629 615 l 1
 663 572 l 1
 672 563 l 1
 723 457 l 1
 735 370 l 1
 726 280 l 1
 726 267 l 1
 684 161 l 1
 641 110 l 1
 578 46 l 1
 510 13 l 1
 438 -9 l 1
 434 -9 l 1x78
 408 -12 l 1
 344 -12 l 1
 268 4 l 1xb8
268 36 m 1
 332 21 l 1
 420 21 l 1xb8
 487 34 l 1
 566 77 l 1
 624 136 l 1
 663 191 l 1
 700 295 l 1
 700 377 l 1
 693 437 l 1
 675 487 l 1
 641 556 l 1
 565 632 l 1
 477 676 l 1
 417 687 l 1
 340 687 l 1
 293 678 l 1
 217 645 l 1
 174 615 l 1
 137 577 l 1
 88 510 l 1
 57 401 l 1
 57 304 l 1
 68 259 l 1
 68 250 l 1
 77 234 l 1
 82 221 l 1
 116 153 l 1
 191 79 l 1
 268 36 l 1
369 755 m 1
 268 933 l 1
 268 954 l 1
 289 954 l 1
 392 776 l 1
 392 763 l 1
 383 755 l 1
 369 755 l 1
EndSplineSet
EndChar

StartChar: Ocircumflex
Encoding: 212 212 148
Width: 757
Flags: MW
HStem: -9 30<344 404 344 420 328 404> 691 30<339 339 339 404> 938 20G<369 386 386 386>
VStem: 27 29<319 395 319 407 319 407> 696 34<322 386 322 402 322 402>
LayerCount: 2
Fore
SplineSet
272 4 m 1
 213 30 l 1
 135 82 l 1
 77 156 l 1
 35 246 l 1
 27 310 l 1
 27 407 l 1
 52 513 l 1
 103 590 l 1
 140 632 l 1
 225 691 l 1
 319 721 l 1
 433 721 l 1
 521 691 l 1
 593 650 l 1
 645 597 l 1
 679 547 l 1
 684 538 l 1
 691 526 l 1
 696 513 l 1
 704 496 l 1
 725 420 l 1
 725 416 l 1
 730 386 l 1
 730 322 l 1
 721 280 l 1
 721 276 l 1
 709 229 l 1
 670 149 l 1
 615 85 l 1
 560 43 l 1
 494 6 l 1
 420 -9 l 1
 328 -9 l 1
 272 4 l 1
268 37 m 1
 344 21 l 1
 404 21 l 1
 459 28 l 1
 544 69 l 1
 548 73 l 1
 555 76 l 1
 624 140 l 1
 667 206 l 1
 696 298 l 1
 696 402 l 1
 676 486 l 1
 634 562 l 1
 566 630 l 1
 484 675 l 1
 404 691 l 1
 339 691 l 1
 263 673 l 1
 184 630 l 1
 117 562 l 1
 73 483 l 1
 56 395 l 1
 56 319 l 1
 61 276 l 1
 89 200 l 1
 123 145 l 1
 174 88 l 1
 268 37 l 1
238 758 m 1
 238 781 l 1
 335 916 l 1
 344 933 l 1
 369 958 l 1
 386 958 l 1
 471 839 l 1
 475 836 l 1
 514 778 l 1
 514 758 l 1
 491 758 l 1
 375 919 l 1
 260 758 l 1
 238 758 l 1
EndSplineSet
EndChar

StartChar: Odieresis
Encoding: 214 214 149
Width: 758
Flags: MW
HStem: -9 21G<349 418 349 349> 691 30<345 421 345 345> 853 20G<282 337 337 337 430 485 485 485>
VStem: 701 30<326 405 405 405>
LayerCount: 2
Fore
SplineSet
290 -1 m 1
 202 40 l 1
 138 91 l 1
 71 179 l 1
 44 250 l 1
 27 338 l 1
 38 444 l 1
 65 521 l 1
 112 593 l 1
 163 645 l 1
 218 682 l 1
 297 714 l 1
 337 721 l 1
 434 721 l 1
 520 697 l 1
 589 654 l 1
 665 578 l 1
 714 489 l 1
 722 450 l 1
 726 437 l 1
 726 432 l 1
 731 416 l 1
 731 297 l 1
 714 234 l 1
 680 161 l 1
 628 91 l 1
 558 39 l 1
 479 0 l 1
 418 -9 l 1
 349 -9 l 1
 290 -1 l 1
309 27 m 1
 383 21 l 1
 434 25 l 1
 439 25 l 1
 494 43 l 1
 546 67 l 1
 608 119 l 1
 668 204 l 1
 684 246 l 1
 689 267 l 1
 693 276 l 1
 701 326 l 1
 701 405 l 1
 671 510 l 1
 616 586 l 1
 579 623 l 1
 531 653 l 1
 476 678 l 1
 421 691 l 1
 345 691 l 1
 290 678 l 1
 285 678 l 1
 203 638 l 1
 154 593 l 1
 94 513 l 1
 68 432 l 1
 59 344 l 1
 72 261 l 1
 87 234 l 1
 87 225 l 1
 121 156 l 1
 142 136 l 1
 154 119 l 1
 224 60 l 1
 309 27 l 1
269 849 m 1
 269 867 l 1
 282 873 l 1
 337 873 l 1
 345 866 l 1
 345 849 l 1
 318 840 l 1
 269 849 l 1
421 851 m 1
 421 866 l 1
 430 873 l 1
 485 873 l 1
 494 866 l 1
 494 849 l 1
 476 843 l 1
 434 843 l 1
 421 851 l 1
EndSplineSet
EndChar

StartChar: Otilde
Encoding: 213 213 150
Width: 766
Flags: MW
HStem: -9 21G<344 420 344 344> 691 32 723 99 878 20G<298 340 340 340 499 510 510 510>
LayerCount: 2
Fore
SplineSet
292 0 m 1xd0
 225 25 l 1
 140 86 l 1
 76 167 l 1
 37 265 l 1
 27 364 l 1
 42 468 l 1
 92 575 l 1
 165 648 l 1
 209 678 l 1
 264 703 l 1
 358 726 l 1
 454 720 l 1
 542 687 l 1
 632 620 l 1
 645 602 l 1
 670 577 l 1
 718 483 l 1
 735 411 l 1
 735 399 l 1
 739 386 l 1
 739 335 l 1
 735 322 l 1
 735 314 l 1
 714 221 l 1
 663 128 l 1
 574 43 l 1
 489 6 l 1
 420 -9 l 1
 344 -9 l 1
 292 0 l 1xd0
314 27 m 1
 378 21 l 1
 429 21 l 1
 517 51 l 1
 577 89 l 1
 629 140 l 1
 667 194 l 1
 696 276 l 1
 708 364 l 1
 700 411 l 1
 700 426 l 1
 666 520 l 1
 615 590 l 1
 562 638 l 1
 514 662 l 1
 502 673 l 1
 416 691 l 1
 323 691 l 1
 247 662 l 1
 243 657 l 1
 237 657 l 1
 185 624 l 1
 136 575 l 1
 88 502 l 1
 64 416 l 1
 64 402 l 1
 60 386 l 1
 60 319 l 1
 69 285 l 1
 69 267 l 1
 82 241 l 1
 91 206 l 1
 137 140 l 1
 140 131 l 1
 203 74 l 1
 268 43 l 1
 314 27 l 1
240 836 m 1
 259 873 l 1
 298 898 l 1
 340 898 l 1
 429 852 l 1
 459 852 l 1
 480 873 l 1
 499 898 l 1
 510 898 l 1
 518 891 l 1
 518 866 l 1
 489 836 l 1
 463 822 l 1
 420 822 l 1
 335 866 l 1
 298 866 l 1
 264 822 l 1
 247 822 l 1xb0
 240 836 l 1
EndSplineSet
EndChar

StartChar: OE
Encoding: 338 338 151
Width: 944
Flags: MW
HStem: -18 21G -12 21G<353 357 353 353> -4 34<544 869 566 869 566 892> 374 33<569 815 568 822> 675 33<566 866 566 566> 692 20G<459 463 463 463> 697 20G<316 323 323 323> 703 20G<372 372>
VStem: 27 34<322 377 310 390 310 390> 523 39<76 186 76 209 259 361 425 521>
LayerCount: 2
Fore
SplineSet
357 -12 m 1x58c0
 353 -12 l 1x58c0
 298 -4 l 1
 286 -4 l 1x38c0
 279 3 l 1
 247 13 l 1
 192 43 l 1
 188 43 l 1
 183 46 l 1
 107 109 l 1
 107 119 l 1
 65 183 l 1
 48 221 l 1
 48 225 l 1
 45 229 l 1
 45 234 l 1
 40 238 l 1
 40 241 l 1
 27 322 l 1
 27 390 l 1
 40 466 l 1
 85 563 l 1
 95 572 l 1
 112 593 l 1
 116 597 l 1
 122 609 l 1
 158 641 l 1
 162 645 l 1
 232 691 l 1
 316 717 l 1
 323 717 l 1x92c0
 372 723 l 1x31c0
 459 712 l 1
 463 712 l 1x34c0
 502 700 l 1
 523 700 l 1
 539 708 l 1
 866 708 l 1
 879 696 l 1
 879 687 l 1
 866 675 l 1
 566 675 l 1
 562 657 l 1
 562 653 l 1
 557 623 l 1
 557 551 l 1
 562 521 l 1
 562 425 l 1
 569 407 l 1
 822 407 l 1
 831 389 l 1
 815 374 l 1
 568 374 l 1
 562 361 l 1
 562 259 l 1
 557 221 l 1
 562 209 l 1
 557 204 l 1
 562 186 l 1
 562 76 l 1
 557 73 l 1
 566 30 l 1
 869 30 l 1
 875 46 l 1
 879 51 l 1
 879 64 l 1
 888 94 l 1
 888 119 l 1
 892 124 l 1
 892 149 l 1
 906 179 l 1
 921 179 l 1
 933 167 l 1
 925 115 l 1
 921 98 l 1
 921 94 l 1
 918 76 l 1
 918 73 l 1
 907 12 l 1
 892 -4 l 1
 544 -4 l 1x38c0
 517 10 l 1
 506 4 l 1
 493 4 l 1
 489 0 l 1
 383 -18 l 1x98c0
 357 -12 l 1x58c0
323 21 m 1
 417 21 l 1
 433 25 l 1
 447 25 l 1
 498 39 l 1
 523 54 l 1
 523 653 l 1
 509 666 l 1
 502 666 l 1
 493 670 l 1
 484 670 l 1
 459 682 l 1
 426 682 l 1
 408 687 l 1
 332 687 l 1
 307 678 l 1
 290 678 l 1
 247 657 l 1
 235 653 l 1
 188 623 l 1
 180 615 l 1
 152 595 l 1
 146 581 l 1
 128 565 l 1
 103 526 l 1
 103 521 l 1
 82 490 l 1
 82 475 l 1
 77 466 l 1
 65 420 l 1
 65 411 l 1
 61 377 l 1
 61 310 l 1
 65 301 l 1
 65 289 l 1
 70 276 l 1
 70 259 l 1
 82 234 l 1
 86 216 l 1
 103 183 l 1
 107 179 l 1
 112 170 l 1
 125 153 l 1
 128 145 l 1
 133 140 l 1
 149 118 l 1
 171 101 l 1
 192 80 l 1
 201 76 l 1
 252 43 l 1
 268 43 l 1
 273 39 l 1
 323 21 l 1
EndSplineSet
EndChar

StartChar: Oslash
Encoding: 216 216 152
Width: 767
Flags: MW
HStem: -12 33<366 413 346 429 366 366> 692 20G<293 298 298 298 463 468 468 468> 701 20G<349 408 408 408>
LayerCount: 2
Fore
SplineSet
286 -1 m 1xc0
 201 37 l 1
 137 85 l 1
 52 4 l 1
 31 4 l 1
 31 25 l 1
 103 98 l 1
 112 115 l 1
 86 149 l 1
 73 174 l 1
 70 179 l 1
 70 183 l 1
 57 204 l 1
 57 209 l 1
 40 259 l 1
 36 280 l 1
 31 289 l 1
 31 305 l 1
 27 375 l 1
 31 402 l 1
 31 420 l 1
 40 437 l 1
 40 454 l 1
 61 513 l 1
 116 597 l 1
 153 636 l 1
 228 688 l 1
 286 708 l 1
 293 712 l 1
 298 712 l 1xc0
 349 721 l 1
 408 721 l 1xa0
 463 712 l 1
 468 712 l 1
 489 703 l 1
 506 700 l 1
 532 687 l 1
 536 687 l 1
 539 682 l 1
 544 682 l 1
 548 678 l 1
 574 666 l 1
 582 657 l 1
 594 648 l 1
 603 641 l 1
 629 627 l 1
 650 648 l 1
 667 662 l 1
 675 675 l 1
 709 703 l 1
 730 703 l 1
 730 682 l 1
 700 653 l 1
 693 641 l 1
 675 627 l 1
 654 597 l 1
 705 505 l 1
 709 501 l 1
 730 432 l 1
 730 425 l 1
 740 338 l 1
 730 289 l 1
 730 276 l 1
 718 229 l 1
 700 195 l 1
 700 183 l 1
 693 174 l 1
 688 165 l 1
 667 136 l 1
 663 128 l 1
 642 106 l 1
 627 88 l 1
 603 69 l 1
 594 60 l 1
 587 55 l 1
 526 18 l 1
 429 -12 l 1
 366 -12 l 1
 286 -1 l 1xc0
337 25 m 1
 346 21 l 1
 413 21 l 1
 426 25 l 1
 448 25 l 1
 481 39 l 1
 490 39 l 1
 571 82 l 1
 638 149 l 1
 654 183 l 1
 658 186 l 1
 663 195 l 1
 667 200 l 1
 667 209 l 1
 675 216 l 1
 675 225 l 1
 679 229 l 1
 679 238 l 1
 693 264 l 1
 693 280 l 1
 700 289 l 1
 700 399 l 1
 697 411 l 1
 697 420 l 1
 693 429 l 1
 693 441 l 1
 684 457 l 1
 684 466 l 1
 679 471 l 1
 679 475 l 1
 667 510 l 1
 663 513 l 1
 663 521 l 1
 650 535 l 1
 647 542 l 1
 630 565 l 1
 617 565 l 1
 578 526 l 1
 574 526 l 1
 548 501 l 1
 544 490 l 1
 527 480 l 1
 383 331 l 1
 362 314 l 1
 256 209 l 1
 252 200 l 1
 176 124 l 1
 168 109 l 1
 192 85 l 1
 206 76 l 1
 208 73 l 1
 226 64 l 1
 237 54 l 1
 316 25 l 1
 337 25 l 1
131 145 m 1
 146 145 l 1
 591 590 l 1
 594 602 l 1
 565 633 l 1
 477 675 l 1
 422 687 l 1
 337 687 l 1
 279 675 l 1
 268 666 l 1
 264 666 l 1
 201 632 l 1
 147 587 l 1
 103 521 l 1
 77 471 l 1
 77 454 l 1
 70 429 l 1
 59 349 l 1
 65 314 l 1
 65 310 l 1
 77 250 l 1
 95 204 l 1
 100 200 l 1
 107 183 l 1
 125 156 l 1
 131 145 l 1
EndSplineSet
EndChar

StartChar: Omacron
Encoding: 332 332 153
Width: 762
Flags: MW
HStem: -13 21G<364 364> -9 21G<416 420 416 416> -4 21G<445 450 445 445> 701 20G<335 425 425 425> 843 30<276 486 276 486>
VStem: 27 33<314 381 381 381> 700 35<331 386 331 386 331 386>
LayerCount: 2
Fore
SplineSet
276 4 m 1x9e
 189 43 l 1
 119 106 l 1
 77 165 l 1
 48 229 l 1
 27 314 l 1
 27 381 l 1
 30 420 l 1
 30 432 l 1
 34 441 l 1
 58 519 l 1
 103 586 l 1
 140 627 l 1
 153 645 l 1
 162 648 l 1
 250 703 l 1
 335 721 l 1
 425 721 l 1
 505 700 l 1
 596 653 l 1
 663 584 l 1
 709 501 l 1
 709 492 l 1
 720 471 l 1
 735 386 l 1
 735 331 l 1
 726 276 l 1
 726 271 l 1
 709 216 l 1
 696 191 l 1
 696 186 l 1
 687 174 l 1
 684 165 l 1
 675 153 l 1
 670 145 l 1
 666 140 l 1
 659 128 l 1
 650 119 l 1
 641 106 l 1
 568 43 l 1
 493 9 l 1
 450 -4 l 1
 445 -4 l 1x3e
 420 -9 l 1
 416 -9 l 1x5e
 364 -13 l 1
 276 4 l 1x9e
276 39 m 1
 362 19 l 1
 434 25 l 1
 438 25 l 1
 514 51 l 1
 518 55 l 1
 551 73 l 1
 560 80 l 1
 574 89 l 1
 577 94 l 1
 603 113 l 1
 659 185 l 1
 687 259 l 1
 687 267 l 1
 696 285 l 1
 696 319 l 1
 700 326 l 1
 700 386 l 1
 696 402 l 1
 696 429 l 1
 670 504 l 1
 617 587 l 1
 569 627 l 1
 559 636 l 1
 466 681 l 1
 381 694 l 1
 302 682 l 1
 268 670 l 1
 264 670 l 1
 195 636 l 1
 137 577 l 1
 91 510 l 1
 60 416 l 1
 60 310 l 1
 64 297 l 1
 64 280 l 1
 82 238 l 1
 85 221 l 1
 89 212 l 1
 98 186 l 1
 149 119 l 1
 192 85 l 1
 206 72 l 1
 276 39 l 1
264 851 m 1
 264 861 l 1
 276 873 l 1
 486 873 l 1
 493 858 l 1
 486 843 l 1
 276 843 l 1
 264 851 l 1
EndSplineSet
EndChar

StartChar: Obreve
Encoding: 334 334 154
Width: 758
Flags: MW
HStem: -9 32 -4 21G<310 315 310 310> 688 20G<489 497 497 497> 691 30<349 425 319 428 349 349> 944 20G<252 252 509 509>
VStem: 27 33<322 390 390 390> 696 35<310 407 310 416 310 416>
LayerCount: 2
Fore
SplineSet
315 -4 m 1x5e
 310 -4 l 1
 225 24 l 1
 154 73 l 1
 87 145 l 1
 42 243 l 1
 27 322 l 1
 27 390 l 1
 30 420 l 1
 30 429 l 1
 53 496 l 1
 82 556 l 1
 135 626 l 1
 170 653 l 1
 175 657 l 1
 239 696 l 1
 319 721 l 1
 425 721 l 1x5e
 489 708 l 1
 497 708 l 1
 497 702 l 1
 519 696 l 1
 582 657 l 1
 586 653 l 1
 625 621 l 1
 650 590 l 1
 666 572 l 1
 684 538 l 1
 701 513 l 1
 722 446 l 1
 722 425 l 1
 731 407 l 1
 731 310 l 1
 726 297 l 1
 713 241 l 1
 677 156 l 1
 655 128 l 1
 650 124 l 1
 643 107 l 1
 595 69 l 1
 590 64 l 1
 520 19 l 1
 428 -9 l 1
 345 -9 l 1xae
 315 -4 l 1x5e
328 25 m 1
 379 21 l 1
 467 33 l 1
 565 80 l 1
 622 139 l 1
 666 212 l 1
 680 246 l 1
 680 250 l 1
 687 267 l 1
 687 280 l 1
 696 289 l 1
 696 416 l 1
 663 516 l 1
 607 593 l 1
 556 636 l 1
 485 675 l 1
 428 691 l 1
 349 691 l 1
 297 684 l 1
 197 636 l 1
 129 568 l 1
 94 513 l 1
 69 450 l 1
 69 437 l 1
 64 429 l 1
 64 420 l 1
 60 399 l 1
 60 301 l 1
 69 276 l 1
 69 267 l 1
 85 221 l 1
 120 153 l 1
 175 98 l 1
 221 64 l 1
 225 64 l 1
 307 25 l 1
 328 25 l 1
340 763 m 1
 306 781 l 1
 273 822 l 1
 243 888 l 1
 243 954 l 1
 252 964 l 1
 267 957 l 1
 281 881 l 1
 303 836 l 1
 336 802 l 1
 361 788 l 1
 395 788 l 1
 433 808 l 1
 464 846 l 1
 476 878 l 1
 491 955 l 1
 509 964 l 1
 519 946 l 1
 519 916 l 1
 501 848 l 1
 467 797 l 1
 427 767 l 1
 380 755 l 1
 340 763 l 1
EndSplineSet
EndChar

StartChar: Ohungarumlaut
Encoding: 336 336 155
Width: 763
Flags: MW
HStem: -13 21G<369 369> 697 20G<313 317 317 317> 701 20G<346 419 419 419> 938 20G<422 440 440 440 524 545 545 545>
LayerCount: 2
Fore
SplineSet
262 10 m 1xb0
 207 39 l 1
 168 64 l 1
 164 64 l 1
 130 98 l 1
 74 174 l 1
 54 221 l 1
 27 338 l 1
 42 446 l 1
 54 492 l 1
 54 496 l 1
 106 587 l 1
 176 656 l 1
 249 696 l 1
 313 717 l 1
 317 717 l 1xd0
 346 721 l 1
 419 721 l 1
 508 700 l 1
 545 682 l 1
 559 678 l 1
 559 675 l 1
 632 618 l 1
 681 551 l 1
 711 492 l 1
 720 462 l 1
 724 454 l 1
 724 446 l 1
 732 411 l 1
 732 390 l 1
 736 356 l 1
 732 322 l 1
 732 305 l 1
 727 289 l 1
 727 285 l 1
 715 234 l 1
 711 225 l 1
 711 221 l 1
 699 195 l 1
 694 183 l 1
 656 124 l 1
 651 119 l 1
 647 110 l 1
 594 58 l 1
 510 12 l 1
 453 -4 l 1
 369 -13 l 1
 262 10 l 1xb0
334 25 m 1
 350 21 l 1
 429 21 l 1
 499 42 l 1
 574 83 l 1
 621 131 l 1
 630 149 l 1
 648 167 l 1
 660 195 l 1
 665 200 l 1
 669 212 l 1
 675 219 l 1
 699 310 l 1
 699 407 l 1
 685 457 l 1
 681 466 l 1
 681 471 l 1
 669 510 l 1
 626 572 l 1
 562 638 l 1
 463 682 l 1
 444 682 l 1
 431 687 l 1
 426 687 l 1
 384 693 l 1
 304 682 l 1
 219 645 l 1
 210 636 l 1
 194 627 l 1
 177 611 l 1
 149 590 l 1
 127 556 l 1
 122 551 l 1
 88 492 l 1
 79 457 l 1
 70 440 l 1
 60 344 l 1
 67 305 l 1
 67 285 l 1
 88 221 l 1
 146 125 l 1
 228 60 l 1
 313 25 l 1
 334 25 l 1
320 758 m 1
 320 781 l 1
 422 958 l 1
 440 958 l 1
 451 948 l 1
 426 898 l 1
 423 894 l 1
 359 785 l 1
 359 776 l 1
 343 758 l 1
 320 758 l 1
416 773 m 1
 524 958 l 1
 545 958 l 1
 545 937 l 1
 529 903 l 1
 524 898 l 1
 456 776 l 1
 440 758 l 1
 423 758 l 1
 416 773 l 1
EndSplineSet
EndChar

StartChar: Racute
Encoding: 340 340 156
Width: 646
Flags: MW
HStem: -4 27 344 33<161 283 153 365> 675 28<34 119 34 387 186 186 186 369> 934 20G
VStem: 119 34<25 344 386 669> 496 34<502 577 502 581 502 581>
LayerCount: 2
Fore
SplineSet
25 -4 m 1
 25 21 l 1
 101 25 l 1
 119 25 l 1
 119 675 l 1
 34 675 l 1
 25 682 l 1
 25 696 l 1
 34 703 l 1
 387 703 l 1
 465 676 l 1
 508 633 l 1
 530 577 l 1
 530 502 l 1
 517 457 l 1
 501 429 l 1
 445 374 l 1
 402 356 l 1
 323 343 l 1
 548 25 l 1
 620 21 l 1
 627 13 l 1
 627 4 l 1
 620 -4 l 1
 411 -4 l 1
 401 7 l 1
 407 21 l 1
 508 25 l 1
 450 110 l 1
 445 115 l 1
 283 344 l 1
 153 344 l 1
 153 25 l 1
 250 21 l 1
 250 -4 l 1
 25 -4 l 1
153 386 m 1
 161 377 l 1
 365 377 l 1
 419 395 l 1
 465 431 l 1
 496 486 l 1
 496 581 l 1
 475 623 l 1
 442 656 l 1
 369 675 l 1
 186 675 l 1
 153 669 l 1
 153 386 l 1
262 766 m 1
 353 934 l 1
 374 954 l 1
 384 954 l 1
 390 937 l 1
 289 755 l 1
 267 755 l 1
 262 766 l 1
EndSplineSet
EndChar

StartChar: Rcommaaccent
Encoding: 342 342 157
Width: 648
Flags: MW
HStem: -191 21G<290 290 290 320> -4 29<40 113 176 244 37 113 410 465 571 617 410 410> 344 33<185 283 159 359> 675 28<37 125 34 363 159 159 159 363 37 378>
VStem: 125 34<39 344 383 675>
LayerCount: 2
Fore
SplineSet
290 -191 m 1
 290 -167 l 1
 329 -155 l 1
 341 -133 l 1
 329 -97 l 1
 316 -72 l 1
 316 -55 l 1
 334 -55 l 1
 350 -72 l 1
 366 -106 l 1
 366 -155 l 1
 346 -185 l 1
 320 -191 l 1
 290 -191 l 1
28 4 m 1
 28 19 l 1
 40 25 l 1
 113 25 l 1
 125 39 l 1
 125 675 l 1
 34 675 l 1
 25 693 l 1
 37 703 l 1
 363 703 l 1
 419 696 l 1
 469 675 l 1
 499 645 l 1
 518 605 l 1
 532 529 l 1
 521 474 l 1
 499 429 l 1
 451 381 l 1
 410 361 l 1
 359 347 l 1
 338 347 l 1
 328 338 l 1
 431 191 l 1
 435 186 l 1
 499 94 l 1
 502 89 l 1
 545 31 l 1
 571 25 l 1
 620 25 l 1
 629 7 l 1
 617 -4 l 1
 410 -4 l 1
 398 7 l 1
 407 25 l 1
 465 25 l 1
 504 30 l 1
 350 250 l 1
 346 255 l 1
 283 344 l 1
 159 344 l 1
 159 31 l 1
 176 25 l 1
 244 25 l 1
 253 18 l 1
 253 4 l 1
 244 -4 l 1
 37 -4 l 1
 28 4 l 1
159 383 m 1
 185 377 l 1
 359 377 l 1
 396 390 l 1
 401 390 l 1
 435 407 l 1
 474 446 l 1
 495 487 l 1
 495 572 l 1
 481 611 l 1
 457 644 l 1
 422 662 l 1
 378 675 l 1
 159 675 l 1
 159 383 l 1
EndSplineSet
EndChar

StartChar: Rcaron
Encoding: 344 344 158
Width: 646
Flags: MW
HStem: -4 31 344 37<156 286 156 356> 675 33<156 339 135 385 156 156> 934 20G<415 415>
VStem: 123 33<60 344 381 673 673 673>
LayerCount: 2
Fore
SplineSet
25 4 m 1
 25 19 l 1
 38 25 l 1
 117 30 l 1
 123 60 l 1
 123 673 l 1
 25 679 l 1
 25 703 l 1
 135 708 l 1
 339 708 l 1
 424 696 l 1
 470 675 l 1
 505 641 l 1
 525 597 l 1
 525 590 l 1
 530 560 l 1
 530 496 l 1
 525 484 l 1
 525 480 l 1
 521 471 l 1
 511 440 l 1
 454 381 l 1
 400 356 l 1
 330 346 l 1
 330 335 l 1
 335 331 l 1
 348 310 l 1
 356 301 l 1
 373 267 l 1
 394 246 l 1
 445 174 l 1
 449 170 l 1
 454 161 l 1
 461 153 l 1
 466 145 l 1
 548 30 l 1
 619 25 l 1
 627 18 l 1
 627 1 l 1
 610 -4 l 1
 411 -4 l 1
 402 4 l 1
 402 18 l 1
 411 25 l 1
 500 30 l 1
 500 40 l 1
 286 344 l 1
 156 344 l 1
 156 30 l 1
 248 25 l 1
 256 10 l 1
 248 -4 l 1
 38 -4 l 1
 25 4 l 1
156 381 m 1
 356 381 l 1
 406 395 l 1
 440 411 l 1
 479 450 l 1
 496 501 l 1
 496 505 l 1
 500 527 l 1
 496 565 l 1
 496 586 l 1
 475 627 l 1
 449 653 l 1
 385 675 l 1
 156 675 l 1
 156 381 l 1
266 755 m 1
 140 933 l 1
 140 954 l 1
 162 954 l 1
 241 843 l 1
 245 839 l 1
 272 800 l 1
 284 806 l 1
 369 924 l 1
 373 933 l 1
 394 954 l 1
 415 954 l 1
 415 934 l 1
 305 776 l 1
 284 755 l 1
 266 755 l 1
EndSplineSet
EndChar

StartChar: Scaron
Encoding: 352 352 159
Width: 492
Flags: MW
HStem: -12 21G 0 21G<38 53 38 38> 701 20G<209 239 239 239> 940 20G<373 373>
VStem: 30 30<13 76 9 191> 56 34<520 586 517 586>
LayerCount: 2
Fore
SplineSet
166 -3 m 1xb4
 103 36 l 1
 73 76 l 1
 60 76 l 1
 60 9 l 1xb8
 53 0 l 1
 38 0 l 1
 30 13 l 1
 30 191 l 1x78
 39 200 l 1
 62 200 l 1
 94 101 l 1
 121 66 l 1
 166 33 l 1
 218 18 l 1
 276 18 l 1
 352 37 l 1
 397 83 l 1
 416 128 l 1
 427 195 l 1
 421 238 l 1
 421 241 l 1
 403 289 l 1
 370 322 l 1
 336 344 l 1
 151 404 l 1
 108 432 l 1
 78 462 l 1
 56 520 l 1
 56 586 l 1
 64 620 l 1
 97 673 l 1
 145 705 l 1
 209 721 l 1
 239 721 l 1
 321 711 l 1
 379 678 l 1
 394 663 l 1
 400 670 l 1
 404 702 l 1
 419 709 l 1
 434 696 l 1
 434 562 l 1
 416 553 l 1
 404 560 l 1
 383 615 l 1
 361 648 l 1
 318 678 l 1
 273 687 l 1
 194 687 l 1
 142 668 l 1
 108 632 l 1
 99 615 l 1
 99 611 l 1
 94 602 l 1
 94 597 l 1
 90 586 l 1
 90 517 l 1
 111 475 l 1
 133 454 l 1
 170 432 l 1
 346 375 l 1
 391 347 l 1
 425 314 l 1
 441 280 l 1
 446 267 l 1
 450 259 l 1
 450 255 l 1
 455 216 l 1
 455 212 l 1
 461 179 l 1
 450 140 l 1
 450 131 l 1
 434 85 l 1
 398 34 l 1
 354 4 l 1
 301 -12 l 1
 213 -12 l 1
 166 -3 l 1xb4
234 755 m 1
 133 894 l 1
 129 898 l 1
 108 937 l 1
 108 954 l 1
 129 954 l 1
 145 937 l 1
 149 928 l 1
 184 882 l 1
 191 873 l 1
 191 869 l 1
 196 866 l 1
 213 831 l 1
 240 805 l 1
 254 811 l 1
 289 861 l 1
 294 869 l 1
 301 878 l 1
 357 954 l 1
 373 960 l 1
 382 949 l 1
 382 937 l 1
 365 912 l 1
 361 903 l 1
 357 898 l 1
 345 882 l 1
 340 878 l 1
 331 861 l 1
 319 848 l 1
 310 831 l 1
 301 822 l 1
 273 781 l 1
 269 776 l 1
 254 755 l 1
 234 755 l 1
EndSplineSet
EndChar

StartChar: Sacute
Encoding: 346 346 160
Width: 484
Flags: MW
HStem: -12 30<216 294 216 297 207 294> 0 21G<34 55 34 34 155 155> 697 20G<276 298 298 298> 701 20G<218 237 237 237> 934 20G<285 305 305 305>
VStem: 32 32
LayerCount: 2
Fore
SplineSet
155 0 m 1x6c
 101 39 l 1
 72 80 l 1
 64 76 l 1
 64 9 l 1
 55 0 l 1
 34 0 l 1x6c
 30 149 l 1
 34 200 l 1
 55 200 l 1
 70 185 l 1
 77 146 l 1
 116 69 l 1
 158 34 l 1
 216 18 l 1
 294 18 l 1
 353 39 l 1
 396 83 l 1
 419 134 l 1
 425 195 l 1
 419 247 l 1
 411 264 l 1
 411 273 l 1
 381 314 l 1
 343 340 l 1
 140 410 l 1
 94 446 l 1
 72 480 l 1
 60 521 l 1
 60 593 l 1
 72 635 l 1
 106 678 l 1
 149 706 l 1
 218 721 l 1
 237 721 l 1x9c
 276 717 l 1
 298 717 l 1
 356 691 l 1
 398 662 l 1
 402 703 l 1
 426 703 l 1
 432 687 l 1
 432 568 l 1
 417 553 l 1
 402 560 l 1
 378 626 l 1
 343 662 l 1
 286 687 l 1
 200 687 l 1
 152 672 l 1
 121 651 l 1
 94 608 l 1
 94 590 l 1
 86 560 l 1
 94 517 l 1
 119 460 l 1
 177 429 l 1
 347 375 l 1
 405 334 l 1
 446 276 l 1
 453 221 l 1
 453 156 l 1
 434 85 l 1
 392 27 l 1
 352 4 l 1
 297 -12 l 1
 207 -12 l 1xac
 155 0 l 1x6c
182 755 m 1
 182 776 l 1
 285 954 l 1
 305 954 l 1
 305 931 l 1
 216 772 l 1
 200 755 l 1
 182 755 l 1
EndSplineSet
EndChar

StartChar: Scircumflex
Encoding: 348 348 161
Width: 484
Flags: MW
HStem: -12 30<220 285 220 296 212 285> 0 21G 692 20G<161 165 165 165> 701 20G<207 232 232 232> 938 20G<234 249 249 249>
VStem: 30 32
LayerCount: 2
Fore
SplineSet
152 4 m 1x9c
 112 30 l 1
 73 76 l 1
 64 76 l 1
 60 9 l 1
 51 0 l 1
 36 0 l 1
 30 13 l 1
 30 194 l 1
 42 200 l 1
 60 200 l 1
 67 183 l 1
 76 149 l 1
 110 77 l 1
 140 46 l 1
 195 21 l 1
 203 21 l 1x5c
 220 18 l 1
 285 18 l 1
 353 40 l 1
 390 76 l 1
 413 122 l 1
 420 156 l 1
 420 238 l 1
 405 282 l 1
 398 289 l 1
 398 292 l 1
 358 334 l 1
 313 352 l 1
 186 390 l 1
 177 395 l 1
 147 404 l 1
 119 425 l 1
 80 462 l 1
 60 502 l 1
 52 577 l 1
 67 627 l 1
 85 657 l 1
 115 687 l 1
 161 712 l 1
 165 712 l 1xac
 207 721 l 1
 232 721 l 1
 316 711 l 1
 365 687 l 1
 386 666 l 1
 398 672 l 1
 398 696 l 1
 413 709 l 1
 428 702 l 1
 432 657 l 1
 432 577 l 1
 422 556 l 1
 404 556 l 1
 386 611 l 1
 361 648 l 1
 325 673 l 1
 262 687 l 1
 195 687 l 1
 146 670 l 1
 119 648 l 1
 101 623 l 1
 89 586 l 1
 89 535 l 1
 103 483 l 1
 136 450 l 1
 186 425 l 1
 350 374 l 1
 411 329 l 1
 441 285 l 1
 441 280 l 1
 453 229 l 1
 453 170 l 1
 442 107 l 1
 405 42 l 1
 358 6 l 1
 296 -12 l 1
 212 -12 l 1
 152 4 l 1x9c
106 755 m 1
 106 776 l 1
 152 843 l 1
 156 852 l 1
 234 958 l 1
 249 958 l 1
 356 811 l 1
 361 806 l 1
 377 781 l 1
 377 755 l 1
 358 755 l 1
 244 910 l 1
 229 894 l 1
 220 882 l 1
 212 873 l 1
 207 866 l 1
 127 755 l 1
 106 755 l 1
EndSplineSet
EndChar

StartChar: Scedilla
Encoding: 350 350 162
Width: 484
Flags: MW
HStem: -165 21G<221 260 221 221> -12 21G<205 208 205 205> 0 21G 701 20G<230 230>
LayerCount: 2
Fore
SplineSet
197 -159 m 1xb0
 170 -142 l 1
 170 -127 l 1
 182 -115 l 1
 216 -131 l 1
 260 -131 l 1
 281 -110 l 1
 281 -76 l 1
 270 -66 l 1
 218 -94 l 1
 206 -82 l 1
 213 -18 l 1
 208 -12 l 1
 205 -12 l 1xd0
 130 15 l 1
 85 60 l 1
 70 80 l 1
 64 69 l 1
 64 13 l 1
 51 0 l 1
 36 0 l 1
 30 13 l 1
 30 191 l 1
 39 200 l 1
 60 200 l 1
 69 183 l 1
 76 149 l 1
 81 140 l 1
 93 106 l 1
 120 66 l 1
 164 33 l 1
 187 25 l 1
 191 25 l 1
 221 18 l 1
 281 18 l 1
 297 25 l 1
 297 21 l 1
 334 33 l 1
 357 46 l 1
 397 86 l 1
 421 152 l 1
 421 225 l 1
 416 238 l 1
 416 255 l 1
 391 304 l 1
 348 337 l 1
 139 408 l 1
 76 460 l 1
 56 521 l 1
 56 586 l 1
 67 632 l 1
 102 678 l 1
 127 696 l 1
 170 712 l 1
 230 721 l 1
 298 715 l 1
 340 702 l 1
 373 678 l 1
 388 663 l 1
 395 670 l 1
 400 703 l 1
 419 709 l 1
 428 691 l 1
 428 565 l 1
 421 556 l 1
 403 556 l 1
 385 611 l 1
 357 654 l 1
 284 687 l 1
 200 687 l 1
 155 676 l 1
 120 648 l 1
 111 636 l 1
 99 624 l 1
 90 586 l 1
 90 581 l 1
 85 557 l 1
 90 542 l 1
 90 517 l 1
 99 501 l 1
 99 495 l 1
 121 460 l 1
 179 429 l 1
 272 399 l 1
 276 399 l 1
 373 361 l 1
 382 352 l 1
 412 329 l 1
 428 305 l 1
 433 301 l 1
 433 297 l 1
 447 261 l 1
 453 221 l 1
 453 174 l 1
 437 91 l 1
 400 40 l 1
 354 4 l 1
 310 -9 l 1
 251 -16 l 1
 251 -37 l 1
 278 -33 l 1
 300 -43 l 1
 315 -67 l 1
 315 -122 l 1
 285 -152 l 1
 260 -165 l 1
 221 -165 l 1
 197 -159 l 1xb0
EndSplineSet
Substitution2: "'locl' Localized Forms in Latin lookup 7 subtable" Scommaaccent
EndChar

StartChar: Scommaaccent
Encoding: 536 536 163
Width: 488
Flags: MW
HStem: -192 21G<226 226> -12 21G<211 299 211 211> 0 21G 701 20G<211 262 262 262>
VStem: 425 32<183 234 183 234 183 234>
LayerCount: 2
Fore
SplineSet
207 -186 m 1xd8
 207 -170 l 1
 216 -161 l 1
 244 -155 l 1
 258 -128 l 1
 244 -89 l 1
 234 -72 l 1
 234 -52 l 1
 249 -45 l 1
 262 -60 l 1
 285 -101 l 1
 285 -155 l 1
 268 -179 l 1
 226 -192 l 1
 207 -186 l 1xd8
155 3 m 1
 115 30 l 1
 76 69 l 1
 68 83 l 1
 64 60 l 1
 64 18 l 1
 55 0 l 1
 34 0 l 1
 30 186 l 1
 43 200 l 1
 65 200 l 1
 76 165 l 1
 76 161 l 1
 94 110 l 1
 98 106 l 1
 115 70 l 1
 162 36 l 1
 204 21 l 1
 207 21 l 1xb8
 258 16 l 1
 320 24 l 1
 375 55 l 1
 416 116 l 1
 425 161 l 1
 425 234 l 1
 408 280 l 1
 387 311 l 1
 344 340 l 1
 301 356 l 1
 296 356 l 1
 191 390 l 1
 119 423 l 1
 77 465 l 1
 60 526 l 1
 60 530 l 1
 55 535 l 1
 60 593 l 1
 64 611 l 1
 64 621 l 1
 98 673 l 1
 152 709 l 1
 211 721 l 1
 262 721 l 1
 332 708 l 1
 377 678 l 1
 386 670 l 1
 402 670 l 1
 402 696 l 1
 411 703 l 1
 432 703 l 1
 436 675 l 1
 436 577 l 1
 426 556 l 1
 405 556 l 1
 384 621 l 1
 340 666 l 1
 305 682 l 1
 285 682 l 1
 267 687 l 1
 207 687 l 1
 159 676 l 1
 144 662 l 1
 136 662 l 1
 109 635 l 1
 94 597 l 1
 94 521 l 1
 98 513 l 1
 98 502 l 1
 127 457 l 1
 170 431 l 1
 343 378 l 1
 398 344 l 1
 428 310 l 1
 445 280 l 1
 445 276 l 1
 450 267 l 1
 453 246 l 1
 457 234 l 1
 457 183 l 1
 453 145 l 1
 453 136 l 1
 436 85 l 1
 432 80 l 1
 405 40 l 1
 358 4 l 1
 299 -12 l 1
 211 -12 l 1
 155 3 l 1
EndSplineSet
EndChar

StartChar: Tcommaaccent
Encoding: 354 354 164
Width: 542
Flags: MW
HStem: -192 21G<246 246> -4 34<178 254 304 398 178 178> 675 33<78 240 78 78 254 254 298 298 298 456 54 504>
VStem: 254 34<51 657 51 675 51 675>
LayerCount: 2
Fore
SplineSet
233 -186 m 1
 233 -167 l 1
 245 -161 l 1
 272 -155 l 1
 282 -134 l 1
 269 -86 l 1
 263 -80 l 1
 254 -63 l 1
 263 -51 l 1
 282 -51 l 1
 295 -72 l 1
 300 -80 l 1
 309 -89 l 1
 309 -101 l 1
 315 -139 l 1
 306 -162 l 1
 285 -185 l 1
 246 -192 l 1
 233 -186 l 1
130 0 m 1
 130 19 l 1
 152 30 l 1
 254 30 l 1
 254 675 l 1
 245 670 l 1
 240 675 l 1
 78 675 l 1
 67 657 l 1
 67 648 l 1
 63 627 l 1
 63 606 l 1
 59 593 l 1
 59 586 l 1
 50 521 l 1
 39 501 l 1
 24 501 l 1
 17 517 l 1
 17 538 l 1
 20 547 l 1
 20 577 l 1
 24 586 l 1
 33 645 l 1
 33 662 l 1
 38 678 l 1
 38 691 l 1
 54 708 l 1
 486 708 l 1
 495 700 l 1
 504 678 l 1
 504 675 l 1
 508 653 l 1
 508 632 l 1
 511 627 l 1
 511 620 l 1
 516 597 l 1
 525 507 l 1
 507 498 l 1
 498 507 l 1
 486 538 l 1
 486 560 l 1
 474 645 l 1
 470 653 l 1
 470 668 l 1
 456 675 l 1
 298 675 l 1
 288 657 l 1
 288 51 l 1
 292 46 l 1
 292 36 l 1
 304 30 l 1
 398 30 l 1
 410 18 l 1
 410 9 l 1
 398 -4 l 1
 178 -4 l 1
 130 0 l 1
EndSplineSet
EndChar

StartChar: Tcaron
Encoding: 356 356 165
Width: 539
Flags: MW
HStem: -6 21G<339 339> -3 33 675 33<72 242 72 72 286 286 286 467> 934 20G<132 157>
VStem: 251 35<43 361 390 666 666 666>
LayerCount: 2
Fore
SplineSet
141 0 m 1xb8
 132 9 l 1
 132 18 l 1
 145 30 l 1
 245 30 l 1
 251 43 l 1
 251 666 l 1
 242 675 l 1
 72 675 l 1
 72 666 l 1
 69 648 l 1
 69 641 l 1
 65 623 l 1
 65 620 l 1
 56 560 l 1
 56 556 l 1
 52 535 l 1
 52 521 l 1
 44 505 l 1
 23 505 l 1
 17 521 l 1
 26 590 l 1
 26 593 l 1
 40 670 l 1
 40 687 l 1
 50 708 l 1
 493 708 l 1
 493 703 l 1
 500 688 l 1
 506 657 l 1
 506 636 l 1
 509 632 l 1
 509 627 l 1
 514 593 l 1
 514 586 l 1
 518 581 l 1
 518 560 l 1
 522 556 l 1
 522 505 l 1
 494 505 l 1
 476 606 l 1
 476 632 l 1
 467 641 l 1
 472 645 l 1
 467 666 l 1
 467 675 l 1
 286 675 l 1
 286 390 l 1
 290 377 l 1
 286 361 l 1
 286 39 l 1
 293 30 l 1
 396 30 l 1x78
 409 16 l 1
 402 0 l 1
 339 -6 l 1
 141 0 l 1xb8
260 755 m 1
 235 788 l 1
 226 797 l 1
 221 806 l 1
 132 934 l 1
 132 954 l 1
 157 954 l 1
 196 898 l 1
 205 891 l 1
 221 857 l 1
 247 831 l 1
 263 806 l 1
 281 806 l 1
 293 831 l 1
 297 836 l 1
 341 894 l 1
 345 903 l 1
 348 907 l 1
 357 921 l 1
 370 933 l 1
 381 954 l 1
 408 954 l 1
 408 934 l 1
 378 891 l 1
 373 887 l 1
 366 869 l 1
 357 861 l 1
 327 818 l 1
 318 811 l 1
 318 806 l 1
 311 797 l 1
 306 788 l 1
 302 785 l 1
 297 776 l 1
 277 755 l 1
 260 755 l 1
EndSplineSet
EndChar

StartChar: Tbar
Encoding: 358 358 166
Width: 537
Flags: MW
HStem: -4 34<143 242 301 394 143 242> 396 36 675 33<203 237 288 288 288 458>
VStem: 254 34<43 69 69 69 80 310 310 310 457 457 496 496 521 577 577 577 597 597 632 645 645 645 653 653>
LayerCount: 2
Fore
SplineSet
132 3 m 1
 132 18 l 1
 143 30 l 1
 242 30 l 1
 254 43 l 1
 254 69 l 1
 249 73 l 1
 254 80 l 1
 254 310 l 1
 249 322 l 1
 249 344 l 1
 255 355 l 1
 248 389 l 1
 237 395 l 1
 143 399 l 1
 132 411 l 1
 132 426 l 1
 157 432 l 1
 242 432 l 1
 249 441 l 1
 249 450 l 1
 254 457 l 1
 249 457 l 1
 254 496 l 1
 249 517 l 1
 254 521 l 1
 254 577 l 1
 249 586 l 1
 254 597 l 1
 249 620 l 1
 254 632 l 1
 254 645 l 1
 249 645 l 1
 249 648 l 1
 254 653 l 1
 249 669 l 1
 237 675 l 1
 75 675 l 1
 67 632 l 1
 67 623 l 1
 63 602 l 1
 63 593 l 1
 56 568 l 1
 56 535 l 1
 51 526 l 1
 51 513 l 1
 38 501 l 1
 23 501 l 1
 17 538 l 1
 21 556 l 1
 21 568 l 1
 26 572 l 1
 26 593 l 1
 29 606 l 1
 29 615 l 1
 33 632 l 1
 33 675 l 1
 48 703 l 1
 203 708 l 1
 483 708 l 1
 498 693 l 1
 508 632 l 1
 508 611 l 1
 513 593 l 1
 513 586 l 1
 520 551 l 1
 520 510 l 1
 513 501 l 1
 500 501 l 1
 492 513 l 1
 479 593 l 1
 479 597 l 1
 464 668 l 1
 458 675 l 1
 288 675 l 1
 288 438 l 1
 304 432 l 1
 394 432 l 1
 407 420 l 1
 407 404 l 1
 389 399 l 1
 294 393 l 1
 288 377 l 1
 288 36 l 1
 301 30 l 1
 394 30 l 1
 409 15 l 1
 400 -4 l 1
 143 -4 l 1
 132 3 l 1
EndSplineSet
EndChar

StartChar: Uacute
Encoding: 218 218 167
Width: 753
Flags: MW
HStem: -19 21G<374 374> 675 28<22 133 22 22 167 167 167 206 477 587> 934 20G<468 487 487 487>
VStem: 137 30 587 33<212 673 209 675 209 675>
LayerCount: 2
Fore
SplineSet
268 -6 m 1
 213 21 l 1
 180 55 l 1
 152 110 l 1
 141 174 l 1
 133 675 l 1
 22 675 l 1
 9 688 l 1
 16 703 l 1
 282 703 l 1
 290 696 l 1
 290 679 l 1
 206 675 l 1
 167 675 l 1
 167 250 l 1
 177 133 l 1
 211 64 l 1
 252 36 l 1
 307 18 l 1
 451 18 l 1
 504 36 l 1
 548 69 l 1
 575 122 l 1
 587 212 l 1
 587 675 l 1
 477 675 l 1
 468 682 l 1
 468 696 l 1
 477 703 l 1
 737 703 l 1
 745 688 l 1
 734 678 l 1
 620 673 l 1
 620 209 l 1
 605 113 l 1
 572 48 l 1
 523 9 l 1
 463 -10 l 1
 374 -19 l 1
 268 -6 l 1
366 755 m 1
 366 776 l 1
 468 954 l 1
 487 954 l 1
 493 937 l 1
 387 755 l 1
 366 755 l 1
EndSplineSet
EndChar

StartChar: Ugrave
Encoding: 217 217 168
Width: 742
Flags: MW
HStem: -12 30<310 429 302 454 310 310> 675 31 940 20G<276 276>
VStem: 134 33 578 33<221 653 221 675 221 675>
LayerCount: 2
Fore
SplineSet
246 3 m 1
 192 36 l 1
 158 89 l 1
 137 168 l 1
 132 530 l 1
 132 675 l 1
 22 675 l 1
 9 687 l 1
 9 696 l 1
 18 703 l 1
 140 708 l 1
 277 703 l 1
 284 696 l 1
 284 687 l 1
 277 678 l 1
 167 673 l 1
 167 165 l 1
 191 94 l 1
 213 60 l 1
 250 34 l 1
 302 18 l 1
 429 18 l 1
 506 39 l 1
 551 85 l 1
 578 161 l 1
 578 675 l 1
 471 675 l 1
 459 687 l 1
 459 703 l 1
 591 709 l 1
 725 703 l 1
 734 696 l 1
 734 687 l 1
 725 678 l 1
 617 673 l 1
 611 653 l 1
 611 221 l 1
 606 170 l 1
 606 165 l 1
 603 149 l 1
 603 145 l 1
 582 80 l 1
 548 33 l 1
 500 3 l 1
 471 -4 l 1
 454 -12 l 1
 310 -12 l 1
 246 3 l 1
363 755 m 1
 259 936 l 1
 259 952 l 1
 276 960 l 1
 284 949 l 1
 383 781 l 1
 383 755 l 1
 363 755 l 1
EndSplineSet
EndChar

StartChar: Ucircumflex
Encoding: 219 219 169
Width: 748
Flags: MW
HStem: -12 30<317 427 317 427 310 427> 675 33<480 581 480 480> 938 20G<362 381 381 381>
VStem: 128 33 581 34<229 673 229 675 229 675>
LayerCount: 2
Fore
SplineSet
246 4 m 1
 211 21 l 1
 170 64 l 1
 140 122 l 1
 131 195 l 1
 126 673 l 1
 9 679 l 1
 9 703 l 1
 39 708 l 1
 271 708 l 1
 286 694 l 1
 278 679 l 1
 161 673 l 1
 161 204 l 1
 180 107 l 1
 210 63 l 1
 253 33 l 1
 317 18 l 1
 427 18 l 1
 487 34 l 1
 535 64 l 1
 556 98 l 1
 572 145 l 1
 581 225 l 1
 581 675 l 1
 480 675 l 1
 457 685 l 1
 457 702 l 1
 471 708 l 1
 725 708 l 1
 740 693 l 1
 725 678 l 1
 615 673 l 1
 615 229 l 1
 611 186 l 1
 611 183 l 1
 602 131 l 1
 575 63 l 1
 542 30 l 1
 506 6 l 1
 427 -12 l 1
 310 -12 l 1
 246 4 l 1
234 761 m 1
 234 776 l 1
 362 958 l 1
 381 958 l 1
 457 852 l 1
 466 843 l 1
 471 836 l 1
 508 781 l 1
 508 763 l 1
 500 755 l 1
 489 755 l 1
 395 887 l 1
 372 907 l 1
 365 907 l 1
 253 755 l 1
 246 755 l 1
 234 761 l 1
EndSplineSet
EndChar

StartChar: Udieresis
Encoding: 220 220 170
Width: 745
Flags: MW
HStem: -12 30<323 410 323 426 316 410> 676 32 843 26<270 329 270 270 419 477>
VStem: 134 32 580 32<238 670 238 673 238 673>
LayerCount: 2
Fore
SplineSet
231 12 m 1
 183 46 l 1
 159 89 l 1
 143 145 l 1
 134 234 l 1
 134 666 l 1
 125 675 l 1
 18 678 l 1
 9 697 l 1
 19 708 l 1
 280 708 l 1
 289 690 l 1
 279 678 l 1
 168 673 l 1
 168 505 l 1
 164 432 l 1
 168 191 l 1
 168 165 l 1
 192 94 l 1
 213 63 l 1
 250 37 l 1
 323 18 l 1
 410 18 l 1
 489 33 l 1
 529 60 l 1
 559 106 l 1
 580 186 l 1
 580 673 l 1
 469 679 l 1
 460 687 l 1
 460 700 l 1
 469 708 l 1
 730 708 l 1
 737 693 l 1
 730 678 l 1
 621 678 l 1
 612 670 l 1
 612 238 l 1
 609 179 l 1
 609 174 l 1
 605 153 l 1
 605 140 l 1
 600 131 l 1
 584 85 l 1
 559 46 l 1
 512 9 l 1
 426 -12 l 1
 316 -12 l 1
 231 12 l 1
261 852 m 1
 261 869 l 1
 329 869 l 1
 338 861 l 1
 338 852 l 1
 329 843 l 1
 270 843 l 1
 261 852 l 1
410 852 m 1
 410 861 l 1
 419 869 l 1
 486 869 l 1
 486 852 l 1
 477 843 l 1
 419 843 l 1
 410 852 l 1
EndSplineSet
EndChar

StartChar: Utilde
Encoding: 360 360 171
Width: 749
Flags: MW
HStem: -15 21G<377 377> -4 21G<470 477 470 470> 678 30<24 134 24 24 176 176 176 270 474 576 628 628 628 728> 678 216<24 343 176 343 176 343 283 471 491 516 283 576>
VStem: 134 35<259 670 225 678 225 678> 587 35<319 666 319 672 319 672>
LayerCount: 2
Fore
SplineSet
304 -9 m 1x9c
 237 10 l 1
 196 39 l 1
 163 83 l 1
 146 131 l 1
 143 161 l 1
 139 179 l 1
 139 183 l 1
 134 259 l 1
 134 678 l 1
 24 678 l 1
 9 693 l 1
 18 708 l 1
 279 708 l 1
 286 700 l 1
 286 684 l 1
 270 678 l 1
 176 678 l 1
 169 670 l 1
 169 225 l 1
 173 186 l 1
 173 155 l 1
 196 95 l 1
 218 63 l 1
 260 34 l 1
 316 21 l 1
 440 21 l 1
 486 34 l 1
 520 51 l 1
 550 80 l 1
 576 131 l 1
 576 145 l 1
 587 209 l 1
 587 672 l 1
 576 678 l 1
 471 678 l 1
 462 697 l 1
 474 708 l 1
 732 708 l 1xac
 741 700 l 1
 741 685 l 1
 728 678 l 1
 628 678 l 1
 622 666 l 1
 622 319 l 1
 617 241 l 1
 617 212 l 1
 605 124 l 1
 596 101 l 1
 596 98 l 1
 568 46 l 1
 525 18 l 1
 477 -4 l 1
 470 -4 l 1x5c
 377 -15 l 1
 304 -9 l 1x9c
240 827 m 1
 240 852 l 1
 283 894 l 1
 343 894 l 1
 422 852 l 1
 456 852 l 1
 482 878 l 1
 491 894 l 1
 516 894 l 1x9c
 516 878 l 1
 503 852 l 1
 476 825 l 1
 443 817 l 1
 415 822 l 1
 330 866 l 1
 304 866 l 1
 286 857 l 1
 261 822 l 1
 249 818 l 1
 240 827 l 1
EndSplineSet
EndChar

StartChar: Umacron
Encoding: 362 362 172
Width: 741
Flags: MW
HStem: -25 21G<331 331> -12 33<319 416 319 416 345 416 345 407> 0 21G 678 32 692 20G<23 23 471 722 722 722> 841 32
VStem: 129 32<267 666 238 675 238 675> 581 35<250 390 390 390 399 662 234 666 234 666>
LayerCount: 2
Fore
SplineSet
327 -12 m 1x57
 319 -12 l 1x57
 264 0 l 1
 255 0 l 1
 251 4 l 1
 209 25 l 1
 172 63 l 1
 149 101 l 1
 149 110 l 1
 145 115 l 1
 145 128 l 1
 136 145 l 1
 136 156 l 1
 129 267 l 1
 129 675 l 1
 124 675 l 1
 115 678 l 1
 18 678 l 1xb7
 9 687 l 1
 9 700 l 1
 23 712 l 1x4f
 276 708 l 1
 288 697 l 1
 279 678 l 1
 175 678 l 1
 161 666 l 1
 161 238 l 1
 166 216 l 1
 166 183 l 1
 175 140 l 1
 184 124 l 1
 184 110 l 1
 191 98 l 1
 196 85 l 1
 230 51 l 1
 255 39 l 1
 260 39 l 1
 266 33 l 1
 330 19 l 1
 340 30 l 1
 345 51 l 1
 345 21 l 1
 416 21 l 1
 441 25 l 1
 446 25 l 1
 501 42 l 1
 513 55 l 1
 517 55 l 1
 543 80 l 1
 556 106 l 1
 556 110 l 1
 565 128 l 1
 565 136 l 1
 568 140 l 1
 568 149 l 1
 573 156 l 1
 573 170 l 1
 577 186 l 1
 577 234 l 1
 581 250 l 1
 581 390 l 1
 577 395 l 1
 581 399 l 1
 581 666 l 1
 568 678 l 1
 467 678 l 1x57
 458 687 l 1
 458 700 l 1
 471 712 l 1
 722 712 l 1x4f
 733 700 l 1
 733 685 l 1
 722 678 l 1
 622 678 l 1
 616 662 l 1
 616 234 l 1
 611 209 l 1
 611 186 l 1
 607 156 l 1
 607 153 l 1
 598 119 l 1
 595 115 l 1
 595 106 l 1
 565 51 l 1
 543 34 l 1
 535 25 l 1
 485 0 l 1xb7
 407 -12 l 1
 345 -12 l 1x57
 331 -25 l 1xb7
 327 -12 l 1x57
260 843 m 1
 260 869 l 1
 285 873 l 1
 477 873 l 1
 486 855 l 1
 476 843 l 1
 437 839 l 1
 260 843 l 1
EndSplineSet
EndChar

StartChar: Ubreve
Encoding: 364 364 173
Width: 741
Flags: MW
HStem: -15 21G<359 359> -12 33 -9 21G<441 450 441 441> 678 30<26 120 26 26 172 172 172 276 18 279> 938 20G<234 258 258 258 488 510 510 510>
VStem: 131 35<238 666 209 666> 577 34<200 620 200 648>
LayerCount: 2
Fore
SplineSet
257 1 m 1x9e
 204 28 l 1
 163 77 l 1
 139 149 l 1
 131 238 l 1
 131 666 l 1
 120 678 l 1
 26 678 l 1
 9 687 l 1
 9 700 l 1
 18 708 l 1
 276 708 l 1
 288 697 l 1
 279 678 l 1
 172 678 l 1
 166 666 l 1
 166 209 l 1
 170 179 l 1
 170 174 l 1
 175 161 l 1
 175 149 l 1
 179 140 l 1
 196 86 l 1
 230 51 l 1
 269 31 l 1
 319 21 l 1
 425 21 l 1x5e
 441 25 l 1
 446 25 l 1
 498 42 l 1
 525 63 l 1
 531 73 l 1
 535 73 l 1
 565 121 l 1
 577 195 l 1
 577 673 l 1
 556 678 l 1
 467 678 l 1
 458 687 l 1
 458 700 l 1
 467 708 l 1
 721 712 l 1
 733 700 l 1
 733 691 l 1
 721 678 l 1
 617 678 l 1
 611 662 l 1
 616 657 l 1
 611 648 l 1
 616 623 l 1
 611 620 l 1
 611 200 l 1
 607 170 l 1
 607 165 l 1
 602 153 l 1
 602 136 l 1
 598 128 l 1
 590 97 l 1
 553 40 l 1
 517 18 l 1
 513 13 l 1
 458 -4 l 1
 450 -9 l 1
 441 -9 l 1x3e
 359 -15 l 1
 257 1 l 1x9e
333 761 m 1
 288 791 l 1
 246 852 l 1
 246 857 l 1
 234 903 l 1
 234 958 l 1
 258 958 l 1
 272 887 l 1
 297 831 l 1
 322 806 l 1
 331 802 l 1
 345 788 l 1
 395 788 l 1
 432 814 l 1
 462 858 l 1
 462 869 l 1
 471 887 l 1
 480 951 l 1
 488 958 l 1
 510 958 l 1
 510 898 l 1
 501 882 l 1
 501 860 l 1
 467 806 l 1
 437 776 l 1
 403 758 l 1
 400 758 l 1
 383 751 l 1
 333 761 l 1
EndSplineSet
EndChar

StartChar: Uring
Encoding: 366 366 174
Width: 738
Flags: MW
HStem: -12 33<316 316 316 423> 678 32 688 20G<17 271 271 271 462 462 723 723> 944 20G<373 373>
VStem: 127 34<225 670 670 670> 577 34<267 648 255 675 255 675>
LayerCount: 2
Fore
SplineSet
316 -12 m 1xdc
 219 15 l 1
 169 64 l 1
 142 127 l 1
 127 225 l 1
 127 670 l 1
 122 675 l 1
 122 678 l 1
 17 678 l 1xdc
 9 687 l 1
 9 700 l 1
 17 708 l 1
 271 708 l 1xbc
 280 700 l 1
 280 684 l 1
 258 678 l 1
 161 678 l 1
 161 216 l 1
 166 183 l 1
 166 161 l 1
 187 98 l 1
 191 94 l 1
 209 63 l 1
 225 55 l 1
 242 39 l 1
 310 21 l 1
 437 21 l 1
 492 40 l 1
 535 72 l 1
 552 101 l 1
 568 156 l 1
 568 170 l 1
 572 179 l 1
 572 204 l 1
 577 267 l 1
 577 675 l 1
 572 675 l 1
 556 678 l 1
 467 678 l 1xdc
 458 687 l 1
 453 700 l 1
 462 708 l 1
 513 712 l 1
 723 708 l 1xbc
 730 693 l 1
 717 678 l 1
 616 678 l 1
 611 648 l 1
 611 255 l 1
 607 209 l 1
 607 195 l 1
 602 161 l 1
 602 140 l 1
 593 124 l 1
 593 119 l 1
 589 110 l 1
 586 98 l 1
 581 89 l 1
 581 85 l 1
 555 45 l 1
 507 10 l 1
 423 -12 l 1
 316 -12 l 1xdc
321 766 m 1
 286 794 l 1
 267 831 l 1
 267 887 l 1
 291 928 l 1
 333 958 l 1
 340 958 l 1
 373 964 l 1
 407 954 l 1
 441 934 l 1
 453 916 l 1
 458 912 l 1
 473 851 l 1
 458 806 l 1
 420 767 l 1
 371 751 l 1
 321 766 l 1
331 797 m 1
 356 788 l 1
 382 788 l 1
 409 797 l 1
 420 814 l 1
 428 822 l 1
 437 839 l 1
 437 878 l 1
 422 907 l 1
 391 928 l 1
 356 928 l 1
 331 921 l 1
 310 898 l 1
 306 887 l 1
 301 878 l 1
 301 848 l 1
 310 822 l 1
 310 818 l 1
 331 797 l 1
EndSplineSet
EndChar

StartChar: Uhungarumlaut
Encoding: 368 368 175
Width: 741
Flags: MW
HStem: -12 33<314 420 310 424> 0 21G 678 34<466 712 471 480 621 621 621 712 471 721> 938 20G<416 432 432 432 509 527 527 527>
VStem: 128 35 576 35<212 411 484 657>
LayerCount: 2
Fore
SplineSet
237 9 m 1xbc
 195 34 l 1
 179 51 l 1
 179 55 l 1
 159 85 l 1
 140 136 l 1
 140 140 l 1
 135 149 l 1
 135 165 l 1
 131 195 l 1
 131 212 l 1
 128 221 l 1
 128 673 l 1
 76 678 l 1
 18 678 l 1
 9 687 l 1
 9 708 l 1
 144 715 l 1
 275 708 l 1
 284 700 l 1
 284 687 l 1
 275 678 l 1
 216 678 l 1
 170 675 l 1
 165 675 l 1
 165 586 l 1
 158 504 l 1
 165 496 l 1
 161 471 l 1
 168 358 l 1
 161 337 l 1
 165 238 l 1
 165 191 l 1
 174 149 l 1
 174 145 l 1
 183 119 l 1
 183 115 l 1
 210 66 l 1
 252 37 l 1
 293 25 l 1
 301 25 l 1
 314 21 l 1
 424 21 l 1
 484 33 l 1
 512 55 l 1
 527 63 l 1
 547 89 l 1
 565 136 l 1
 576 204 l 1
 576 673 l 1
 480 678 l 1
 466 678 l 1
 457 687 l 1
 457 700 l 1
 471 712 l 1
 712 712 l 1
 733 702 l 1
 733 685 l 1
 721 678 l 1
 621 678 l 1
 611 657 l 1
 611 484 l 1
 615 432 l 1
 611 411 l 1
 611 212 l 1
 606 179 l 1
 606 161 l 1
 582 79 l 1
 539 30 l 1
 487 0 l 1
 471 0 l 1x7c
 420 -12 l 1
 310 -12 l 1
 237 9 l 1xbc
310 763 m 1
 310 781 l 1
 335 831 l 1
 344 843 l 1
 344 851 l 1
 365 882 l 1
 374 898 l 1
 377 903 l 1
 401 951 l 1
 416 958 l 1
 432 958 l 1
 432 937 l 1
 429 928 l 1
 429 924 l 1
 399 873 l 1
 399 869 l 1
 390 861 l 1
 369 818 l 1
 365 814 l 1
 344 776 l 1
 340 772 l 1
 335 763 l 1
 320 752 l 1
 310 763 l 1
407 760 m 1
 407 776 l 1
 429 818 l 1
 429 822 l 1
 509 958 l 1
 527 958 l 1
 536 942 l 1
 526 921 l 1
 505 887 l 1
 496 869 l 1
 492 866 l 1
 480 839 l 1
 471 827 l 1
 441 770 l 1
 424 755 l 1
 407 760 l 1
EndSplineSet
EndChar

StartChar: Uogonek
Encoding: 370 370 176
Width: 748
Flags: MW
HStem: -161 182<351 411 351 351> -12 21G<310 314 310 310 371 371 371 420> 678 32 692 20G<271 271 576 576>
VStem: 126 35<264 526 568 645> 581 34<225 662 216 678 216 678>
LayerCount: 2
Fore
SplineSet
317 -148 m 1xac
 295 -103 l 1
 301 -55 l 1
 310 -25 l 1
 310 -21 l 1
 314 -12 l 1
 310 -12 l 1
 301 -9 l 1
 238 7 l 1
 188 43 l 1
 158 85 l 1
 140 140 l 1
 131 209 l 1
 131 234 l 1
 126 264 l 1
 126 670 l 1
 110 678 l 1
 16 678 l 1x6c
 9 687 l 1
 9 700 l 1
 16 708 l 1
 271 712 l 1x9c
 287 697 l 1
 277 678 l 1
 167 678 l 1
 161 645 l 1
 161 568 l 1
 165 542 l 1
 161 526 l 1
 161 250 l 1
 165 216 l 1
 165 167 l 1
 198 82 l 1
 229 51 l 1
 275 30 l 1
 326 21 l 1
 427 21 l 1
 493 37 l 1
 533 64 l 1
 560 104 l 1
 560 115 l 1
 570 136 l 1
 576 174 l 1
 576 221 l 1
 581 225 l 1
 581 678 l 1
 471 678 l 1xac
 457 691 l 1
 457 700 l 1
 466 708 l 1
 576 712 l 1x9c
 728 708 l 1
 740 697 l 1
 731 678 l 1
 620 678 l 1
 615 662 l 1
 615 216 l 1
 611 183 l 1
 611 165 l 1
 606 156 l 1
 597 110 l 1
 593 106 l 1
 572 60 l 1
 517 13 l 1
 420 -12 l 1
 371 -12 l 1x6c
 341 -31 l 1
 331 -76 l 1
 331 -101 l 1
 341 -124 l 1
 375 -134 l 1
 424 -118 l 1
 445 -118 l 1
 445 -139 l 1
 411 -161 l 1
 351 -161 l 1
 317 -148 l 1xac
EndSplineSet
EndChar

StartChar: Wcircumflex
Encoding: 372 372 177
Width: 1097
Flags: MW
HStem: -3 21G<745 745> 0 21G<344 351 344 344> 680 28 692 20G<822 1077 1077 1077> 938 20G<538 557 557 557>
LayerCount: 2
Fore
SplineSet
331 13 m 1x68
 250 289 l 1
 246 297 l 1
 246 301 l 1
 179 530 l 1
 174 538 l 1
 170 560 l 1
 134 678 l 1
 18 678 l 1
 9 687 l 1
 9 708 l 1
 276 708 l 1
 284 700 l 1
 284 691 l 1
 271 678 l 1
 168 678 l 1
 259 377 l 1
 259 370 l 1
 344 86 l 1
 351 94 l 1
 509 611 l 1
 509 615 l 1
 526 678 l 1
 411 682 l 1
 411 708 l 1
 678 708 l 1x68
 690 697 l 1
 682 682 l 1
 572 678 l 1
 590 615 l 1
 590 611 l 1
 742 89 l 1
 751 80 l 1
 928 678 l 1
 831 678 l 1
 813 687 l 1
 809 699 l 1
 822 712 l 1
 1077 712 l 1
 1089 700 l 1
 1089 691 l 1
 1082 682 l 1
 964 678 l 1
 763 6 l 1
 745 -3 l 1x98
 731 12 l 1
 553 620 l 1
 544 620 l 1
 436 259 l 1
 436 255 l 1
 363 10 l 1
 351 0 l 1
 344 0 l 1
 331 13 l 1x68
411 758 m 1
 411 781 l 1
 538 958 l 1
 557 958 l 1
 682 788 l 1
 687 785 l 1
 687 767 l 1
 678 758 l 1
 664 758 l 1
 554 912 l 1
 542 912 l 1
 432 758 l 1
 411 758 l 1
EndSplineSet
EndChar

StartChar: Yacute
Encoding: 221 221 178
Width: 743
Flags: MW
HStem: -10 21G<296 296> -7 30 675 28<16 277 273 273 468 468 617 617 617 718> 934 20G<416 433 433 433>
VStem: 357 35<34 255 255 255>
LayerCount: 2
Fore
SplineSet
235 -3 m 1x78
 235 13 l 1
 243 21 l 1
 350 25 l 1
 357 34 l 1
 357 255 l 1
 149 659 l 1
 137 670 l 1
 16 675 l 1
 9 690 l 1
 22 703 l 1
 277 703 l 1
 286 696 l 1
 286 681 l 1
 273 675 l 1
 182 670 l 1
 188 648 l 1
 243 542 l 1
 252 530 l 1
 368 305 l 1
 378 305 l 1
 568 670 l 1
 468 675 l 1
 459 691 l 1
 466 703 l 1
 727 703 l 1
 734 696 l 1
 734 679 l 1
 718 675 l 1
 617 675 l 1
 603 662 l 1
 392 259 l 1
 392 34 l 1
 401 25 l 1
 502 21 l 1
 511 13 l 1
 511 -4 l 1
 296 -10 l 1xb8
 235 -3 l 1x78
311 758 m 1
 311 772 l 1
 416 954 l 1
 433 954 l 1
 433 928 l 1
 334 751 l 1
 320 751 l 1
 311 758 l 1
EndSplineSet
EndChar

StartChar: Ydieresis
Encoding: 376 376 179
Width: 754
Flags: MW
HStem: -4 31 675 33<138 138 188 188 188 278 613 613 613 719> 675 194<138 334 188 334 264 278>
VStem: 363 32<34 255 30 255>
LayerCount: 2
Fore
SplineSet
239 1 m 1xd0
 239 19 l 1
 252 25 l 1
 354 25 l 1
 363 34 l 1
 363 255 l 1
 260 450 l 1
 252 457 l 1
 252 462 l 1
 145 666 l 1
 138 675 l 1
 17 678 l 1
 9 694 l 1
 23 708 l 1
 278 708 l 1
 290 696 l 1
 290 687 l 1
 278 675 l 1
 188 675 l 1
 188 657 l 1
 209 615 l 1
 218 606 l 1
 234 565 l 1
 239 560 l 1
 278 487 l 1
 287 475 l 1
 287 471 l 1
 333 381 l 1
 342 370 l 1
 358 335 l 1
 367 322 l 1
 367 314 l 1
 383 314 l 1
 571 673 l 1
 473 678 l 1
 464 687 l 1
 464 703 l 1
 553 708 l 1
 731 708 l 1
 745 694 l 1
 738 681 l 1
 719 675 l 1
 613 675 l 1
 588 623 l 1
 579 611 l 1
 514 487 l 1
 510 484 l 1
 455 377 l 1
 450 365 l 1
 407 288 l 1
 395 255 l 1
 395 30 l 1
 509 25 l 1
 517 7 l 1
 506 -4 l 1
 257 -4 l 1
 239 1 l 1xd0
264 845 m 1
 264 869 l 1
 334 869 l 1xb0
 343 854 l 1
 328 839 l 1
 294 839 l 1
 264 845 l 1
422 843 m 1
 412 854 l 1
 419 869 l 1
 483 869 l 1
 494 848 l 1
 455 837 l 1
 422 843 l 1
EndSplineSet
EndChar

StartChar: Ycircumflex
Encoding: 374 374 180
Width: 745
Flags: MW
HStem: -4 29<304 359 393 503> 677 26 934 20G<366 387 387 387>
VStem: 359 34<25 255 25 259 25 259>
LayerCount: 2
Fore
SplineSet
240 -4 m 1
 240 21 l 1
 304 25 l 1
 359 25 l 1
 359 259 l 1
 147 662 l 1
 143 666 l 1
 143 675 l 1
 18 675 l 1
 9 693 l 1
 19 703 l 1
 287 703 l 1
 287 679 l 1
 258 675 l 1
 185 675 l 1
 185 662 l 1
 261 513 l 1
 279 487 l 1
 279 484 l 1
 343 361 l 1
 350 347 l 1
 363 322 l 1
 368 319 l 1
 368 310 l 1
 381 310 l 1
 566 666 l 1
 566 675 l 1
 466 678 l 1
 459 694 l 1
 469 703 l 1
 736 703 l 1
 736 679 l 1
 611 675 l 1
 571 597 l 1
 562 586 l 1
 393 255 l 1
 393 25 l 1
 503 25 l 1
 511 18 l 1
 511 -4 l 1
 240 -4 l 1
240 755 m 1
 240 779 l 1
 366 954 l 1
 387 954 l 1
 435 887 l 1
 439 882 l 1
 511 776 l 1
 511 755 l 1
 489 755 l 1
 426 843 l 1
 423 848 l 1
 378 910 l 1
 368 898 l 1
 350 873 l 1
 338 861 l 1
 329 843 l 1
 316 831 l 1
 262 755 l 1
 240 755 l 1
EndSplineSet
EndChar

StartChar: Zcaron
Encoding: 381 381 181
Width: 573
Flags: MW
HStem: -4 34<91 473 66 482> 675 33<231 461> 940 20G<416 416>
LayerCount: 2
Fore
SplineSet
42 1 m 1
 36 18 l 1
 41 21 l 1
 41 25 l 1
 62 55 l 1
 66 64 l 1
 142 183 l 1
 164 204 l 1
 185 246 l 1
 194 255 l 1
 197 264 l 1
 202 267 l 1
 220 297 l 1
 227 305 l 1
 342 480 l 1
 346 487 l 1
 351 492 l 1
 385 542 l 1
 397 556 l 1
 418 597 l 1
 427 606 l 1
 448 641 l 1
 452 645 l 1
 465 670 l 1
 461 675 l 1
 97 675 l 1
 87 641 l 1
 87 636 l 1
 84 597 l 1
 84 593 l 1
 79 572 l 1
 79 568 l 1
 75 556 l 1
 75 526 l 1
 65 505 l 1
 41 505 l 1
 41 547 l 1
 50 602 l 1
 50 620 l 1
 54 636 l 1
 54 641 l 1
 59 666 l 1
 59 675 l 1
 68 702 l 1
 90 714 l 1
 231 708 l 1
 507 708 l 1
 521 696 l 1
 521 687 l 1
 516 682 l 1
 503 657 l 1
 498 653 l 1
 482 627 l 1
 477 623 l 1
 443 572 l 1
 440 565 l 1
 406 513 l 1
 401 505 l 1
 321 381 l 1
 300 361 l 1
 278 319 l 1
 261 301 l 1
 245 267 l 1
 236 259 l 1
 231 250 l 1
 167 156 l 1
 164 149 l 1
 160 145 l 1
 160 140 l 1
 147 124 l 1
 114 69 l 1
 105 60 l 1
 96 43 l 1
 91 39 l 1
 91 30 l 1
 482 30 l 1
 495 43 l 1
 495 80 l 1
 498 98 l 1
 512 198 l 1
 529 207 l 1
 541 195 l 1
 541 149 l 1
 537 131 l 1
 537 128 l 1
 528 64 l 1
 524 51 l 1
 524 34 l 1
 515 0 l 1
 473 -4 l 1
 66 -4 l 1
 42 1 l 1
266 776 m 1
 150 943 l 1
 157 958 l 1
 172 958 l 1
 190 942 l 1
 227 887 l 1
 236 878 l 1
 249 852 l 1
 270 831 l 1
 270 827 l 1
 282 811 l 1
 302 811 l 1
 307 822 l 1
 316 831 l 1
 401 952 l 1
 416 960 l 1
 427 954 l 1
 427 933 l 1
 392 882 l 1
 388 878 l 1
 346 818 l 1
 346 814 l 1
 337 806 l 1
 316 776 l 1
 316 767 l 1
 288 754 l 1
 266 776 l 1
EndSplineSet
EndChar

StartChar: Zacute
Encoding: 377 377 182
Width: 570
Flags: MW
HStem: -4 34<95 481 95 490> 675 33<88 456 88 88> 938 20G<328 344 344 344>
LayerCount: 2
Fore
SplineSet
36 1 m 1
 36 21 l 1
 66 69 l 1
 70 76 l 1
 83 94 l 1
 88 101 l 1
 91 106 l 1
 224 305 l 1
 226 314 l 1
 231 319 l 1
 249 352 l 1
 265 370 l 1
 300 420 l 1
 304 429 l 1
 308 432 l 1
 355 505 l 1
 359 513 l 1
 364 517 l 1
 396 568 l 1
 401 572 l 1
 405 581 l 1
 462 669 l 1
 456 675 l 1
 88 675 l 1
 88 662 l 1
 83 641 l 1
 83 623 l 1
 79 606 l 1
 79 602 l 1
 70 568 l 1
 70 526 l 1
 60 505 l 1
 36 505 l 1
 36 547 l 1
 49 632 l 1
 49 645 l 1
 54 653 l 1
 54 678 l 1
 63 702 l 1
 75 708 l 1
 505 708 l 1
 514 691 l 1
 456 597 l 1
 451 590 l 1
 447 586 l 1
 444 577 l 1
 431 560 l 1
 422 542 l 1
 417 538 l 1
 346 429 l 1
 341 425 l 1
 337 416 l 1
 325 399 l 1
 308 370 l 1
 300 361 l 1
 282 326 l 1
 265 310 l 1
 235 264 l 1
 231 259 l 1
 206 216 l 1
 201 212 l 1
 194 200 l 1
 189 195 l 1
 185 186 l 1
 88 34 l 1
 95 30 l 1
 481 30 l 1
 490 73 l 1
 490 110 l 1
 508 192 l 1
 516 200 l 1
 530 204 l 1
 538 188 l 1
 532 145 l 1
 532 136 l 1
 527 115 l 1
 527 101 l 1
 524 76 l 1
 524 46 l 1
 508 0 l 1
 490 -4 l 1
 54 -4 l 1
 36 1 l 1
224 763 m 1
 224 776 l 1
 256 839 l 1
 265 852 l 1
 286 894 l 1
 291 898 l 1
 328 958 l 1
 344 958 l 1
 350 946 l 1
 341 921 l 1
 334 907 l 1
 311 866 l 1
 308 861 l 1
 300 843 l 1
 295 839 l 1
 246 755 l 1
 231 755 l 1
 224 763 l 1
EndSplineSet
EndChar

StartChar: Zdotaccent
Encoding: 379 379 183
Width: 576
Flags: MW
HStem: -15 21G<258 258> -4 34<94 247 268 268 268 466> 678 32 678 191<255 323 255 455 107 323>
LayerCount: 2
Fore
SplineSet
247 -4 m 1x60
 52 -4 l 1
 36 12 l 1
 60 55 l 1
 73 73 l 1
 78 80 l 1
 82 85 l 1
 145 183 l 1
 149 186 l 1
 158 204 l 1
 170 216 l 1
 183 241 l 1
 188 246 l 1
 192 255 l 1
 204 267 l 1
 218 292 l 1
 225 301 l 1
 315 437 l 1
 319 446 l 1
 335 462 l 1
 358 505 l 1
 365 513 l 1
 365 517 l 1
 383 538 l 1
 395 560 l 1
 408 577 l 1
 411 586 l 1
 416 590 l 1
 450 645 l 1
 455 648 l 1
 455 653 l 1
 466 666 l 1
 455 678 l 1
 107 678 l 1
 94 666 l 1
 82 586 l 1
 82 572 l 1
 78 542 l 1
 78 535 l 1
 67 505 l 1
 48 505 l 1
 37 514 l 1
 43 551 l 1
 43 572 l 1
 52 590 l 1
 52 641 l 1
 60 670 l 1
 64 696 l 1
 78 708 l 1
 505 712 l 1
 519 700 l 1
 519 678 l 1
 434 551 l 1
 425 542 l 1
 416 526 l 1
 399 501 l 1
 395 492 l 1
 328 390 l 1
 323 386 l 1
 319 377 l 1
 285 326 l 1
 280 319 l 1
 259 297 l 1
 239 255 l 1
 230 246 l 1
 218 221 l 1
 209 212 l 1
 119 80 l 1
 115 73 l 1
 104 61 l 1
 94 30 l 1
 487 30 l 1
 493 51 l 1
 493 64 l 1
 496 89 l 1
 496 94 l 1
 501 106 l 1
 510 161 l 1
 510 186 l 1
 528 206 l 1
 544 197 l 1
 544 153 l 1
 531 60 l 1
 531 36 l 1
 516 0 l 1
 466 -4 l 1
 268 -4 l 1x60
 258 -15 l 1xa0
 247 -4 l 1x60
255 845 m 1
 255 869 l 1
 323 869 l 1x50
 332 860 l 1
 325 845 l 1
 298 839 l 1
 255 845 l 1
EndSplineSet
EndChar

StartChar: Eth
Encoding: 208 208 184
Width: 689
Flags: MW
HStem: -9 30<37 120 160 388 37 120> 331 30<37 62 35 120 219 219 219 374> 666 34<126 126 160 160 160 278 41 393>
VStem: 126 34<46 326 381 666> 622 35<310 423 310 432 310 432>
LayerCount: 2
Fore
SplineSet
28 0 m 1
 28 13 l 1
 37 21 l 1
 120 21 l 1
 126 46 l 1
 126 326 l 1
 62 331 l 1
 35 331 l 1
 26 349 l 1
 37 361 l 1
 120 361 l 1
 126 381 l 1
 126 666 l 1
 35 670 l 1
 26 685 l 1
 41 700 l 1
 278 700 l 1
 402 696 l 1
 423 696 l 1
 505 678 l 1
 554 653 l 1
 605 602 l 1
 633 548 l 1
 657 423 l 1
 657 310 l 1
 639 209 l 1
 613 136 l 1
 579 85 l 1
 554 60 l 1
 493 15 l 1
 408 -9 l 1
 37 -9 l 1
 28 0 l 1
160 21 m 1
 388 21 l 1
 463 36 l 1
 536 80 l 1
 584 149 l 1
 605 189 l 1
 622 285 l 1
 622 432 l 1
 606 527 l 1
 575 590 l 1
 542 623 l 1
 473 657 l 1
 457 657 l 1
 393 666 l 1
 160 666 l 1
 160 370 l 1
 168 361 l 1
 374 361 l 1
 381 346 l 1
 374 331 l 1
 219 331 l 1
 160 326 l 1
 160 21 l 1
EndSplineSet
EndChar

StartChar: Thorn
Encoding: 222 222 185
Width: 544
Flags: MW
HStem: -4 34<58 113 161 292 58 58> 149 34<168 296 308 368 167 296> 526 34<173 326 168 347 173 347> 675 35 692 20G<147 147>
VStem: 122 39<46 136 259 517 566 666> 495 35
LayerCount: 2
Fore
SplineSet
31 0 m 1xf6
 24 16 l 1
 37 30 l 1
 113 30 l 1
 122 46 l 1
 122 666 l 1
 113 675 l 1xf6
 30 679 l 1
 25 696 l 1
 37 708 l 1
 147 712 l 1xee
 298 708 l 1
 304 696 l 1
 299 678 l 1
 267 678 l 1
 258 675 l 1
 168 675 l 1
 161 666 l 1
 161 566 l 1
 173 560 l 1
 347 560 l 1
 407 551 l 1
 414 551 l 1
 465 526 l 1
 499 492 l 1
 527 432 l 1
 533 353 l 1
 529 319 l 1
 529 301 l 1
 517 255 l 1
 492 212 l 1
 453 179 l 1
 448 174 l 1
 436 170 l 1
 419 161 l 1
 381 153 l 1
 368 149 l 1
 167 149 l 1
 161 136 l 1
 161 30 l 1
 292 30 l 1
 304 18 l 1
 304 9 l 1
 292 -4 l 1
 58 -4 l 1
 31 0 l 1xf6
161 191 m 1
 168 183 l 1
 296 183 l 1
 301 186 l 1
 308 183 l 1
 368 183 l 1
 398 191 l 1
 402 191 l 1
 410 195 l 1
 417 195 l 1
 457 222 l 1
 483 267 l 1
 495 319 l 1
 495 347 l 1
 499 356 l 1
 495 361 l 1
 495 399 l 1
 487 432 l 1
 487 437 l 1
 483 446 l 1
 483 456 l 1
 453 495 l 1
 425 513 l 1
 414 513 l 1
 398 521 l 1
 368 521 l 1
 347 526 l 1
 334 517 l 1
 326 526 l 1
 168 526 l 1
 161 517 l 1
 161 259 l 1
 156 234 l 1
 161 191 l 1
EndSplineSet
EndChar

StartChar: aacute
Encoding: 225 225 186
Width: 401
Flags: MW
HStem: -10 21G<332 332> -9 21G<168 236 168 168> 637 20G<279 279>
VStem: 312 29<37 37 124 195 195 195 255 322 0 322>
LayerCount: 2
Fore
SplineSet
133 -1 m 1x70
 88 21 l 1
 46 61 l 1
 40 94 l 1
 40 136 l 1
 60 189 l 1
 109 238 l 1
 174 268 l 1
 250 277 l 1
 286 267 l 1
 312 255 l 1
 312 322 l 1
 292 362 l 1
 256 386 l 1
 197 386 l 1
 164 370 l 1
 143 347 l 1
 110 292 l 1
 91 292 l 1
 91 329 l 1
 113 361 l 1
 151 399 l 1
 194 420 l 1
 244 420 l 1
 279 408 l 1
 313 386 l 1
 334 352 l 1
 341 322 l 1
 341 0 l 1
 332 -10 l 1xb0
 317 -3 l 1
 312 37 l 1
 286 18 l 1
 236 -9 l 1
 168 -9 l 1
 133 -1 l 1x70
142 28 m 1
 192 18 l 1
 261 34 l 1
 295 69 l 1
 312 124 l 1
 312 195 l 1
 295 229 l 1
 270 241 l 1
 215 241 l 1
 163 231 l 1
 107 200 l 1
 76 153 l 1
 70 106 l 1
 76 74 l 1
 104 46 l 1
 142 28 l 1
168 462 m 1
 168 475 l 1
 265 648 l 1
 279 657 l 1
 291 653 l 1
 291 632 l 1
 192 459 l 1
 177 453 l 1
 168 462 l 1
EndSplineSet
Substitution2: "'smcp' Lowercase to Small Capitals in Latin lookup 1 subtable" Aacutesmall
EndChar

StartChar: agrave
Encoding: 224 224 187
Width: 406
Flags: MW
HStem: -9 21G<185 185> -4 21G<231 231 317 334 317 317> 637 20G<143 161 161 161>
VStem: 313 33<122 195 195 195 259 292 3 314 3 314>
LayerCount: 2
Fore
SplineSet
121 3 m 1xb0
 73 36 l 1
 48 74 l 1
 40 113 l 1
 49 161 l 1
 73 207 l 1
 125 252 l 1
 191 276 l 1
 265 276 l 1
 313 259 l 1
 313 314 l 1
 300 352 l 1
 271 380 l 1
 240 390 l 1
 194 390 l 1
 154 364 l 1
 130 331 l 1
 116 298 l 1
 98 292 l 1
 89 310 l 1
 98 340 l 1
 130 386 l 1
 171 413 l 1
 198 420 l 1
 258 420 l 1
 316 387 l 1
 340 338 l 1
 346 292 l 1
 346 3 l 1
 334 -4 l 1
 317 -4 l 1
 311 42 l 1
 274 10 l 1
 231 -4 l 1x70
 185 -9 l 1
 121 3 l 1xb0
113 43 m 1
 164 25 l 1
 228 25 l 1
 270 46 l 1
 292 70 l 1
 313 122 l 1
 313 195 l 1
 291 238 l 1
 243 250 l 1
 176 238 l 1
 131 218 l 1
 92 179 l 1
 75 145 l 1
 75 98 l 1
 81 74 l 1
 113 43 l 1
231 475 m 1
 143 636 l 1
 143 657 l 1
 161 657 l 1
 268 475 l 1
 259 457 l 1
 249 457 l 1
 231 475 l 1
EndSplineSet
Substitution2: "'smcp' Lowercase to Small Capitals in Latin lookup 1 subtable" Agravesmall
EndChar

StartChar: acircumflex
Encoding: 226 226 188
Width: 408
Flags: MW
HStem: -6 21G<323 323> -4 21G<175 235 175 175> 642 20G<199 213 213 213>
VStem: 311 34<40 40 119 195 195 195 259 305 1 322 1 322>
LayerCount: 2
Fore
SplineSet
134 1 m 1x70
 86 25 l 1
 52 60 l 1
 40 98 l 1
 40 145 l 1
 59 194 l 1
 114 249 l 1
 157 267 l 1
 236 282 l 1
 272 276 l 1
 306 264 l 1
 311 259 l 1
 311 322 l 1
 293 370 l 1
 254 389 l 1
 219 396 l 1
 172 383 l 1
 137 347 l 1
 111 297 l 1
 90 297 l 1
 90 322 l 1
 107 361 l 1
 150 402 l 1
 192 425 l 1
 235 425 l 1
 281 414 l 1
 318 384 l 1
 339 341 l 1
 345 305 l 1
 345 1 l 1
 323 -6 l 1xb0
 315 9 l 1
 311 40 l 1
 293 30 l 1
 286 21 l 1
 235 -4 l 1
 175 -4 l 1
 134 1 l 1x70
171 24 m 1
 238 33 l 1
 268 46 l 1
 296 74 l 1
 311 119 l 1
 311 195 l 1
 302 221 l 1
 277 246 l 1
 205 246 l 1
 169 238 l 1
 125 216 l 1
 84 176 l 1
 68 130 l 1
 74 94 l 1
 86 69 l 1
 107 48 l 1
 171 24 l 1
74 462 m 1
 74 484 l 1
 199 662 l 1
 213 662 l 1
 235 641 l 1
 298 551 l 1
 302 547 l 1
 348 480 l 1
 348 462 l 1
 327 462 l 1
 211 617 l 1
 196 602 l 1
 96 462 l 1
 74 462 l 1
EndSplineSet
Substitution2: "'smcp' Lowercase to Small Capitals in Latin lookup 1 subtable" Acircumflexsmall
EndChar

StartChar: adieresis
Encoding: 228 228 189
Width: 401
Flags: MW
HStem: -4 21G<154 234 154 154 316 332 316 316> 542 30<121 162 112 167 261 261 261 316>
VStem: 308 33
LayerCount: 2
Fore
SplineSet
104 10 m 1
 60 45 l 1
 40 85 l 1
 40 148 l 1
 60 194 l 1
 107 241 l 1
 162 270 l 1
 244 280 l 1
 277 271 l 1
 311 256 l 1
 306 335 l 1
 282 370 l 1
 252 390 l 1
 197 390 l 1
 152 368 l 1
 125 326 l 1
 116 310 l 1
 103 297 l 1
 86 297 l 1
 86 326 l 1
 112 365 l 1
 151 402 l 1
 188 420 l 1
 247 420 l 1
 273 411 l 1
 303 395 l 1
 323 365 l 1
 341 325 l 1
 341 4 l 1
 332 -4 l 1
 316 -4 l 1
 311 21 l 1
 311 39 l 1
 303 39 l 1
 286 21 l 1
 234 -4 l 1
 154 -4 l 1
 104 10 l 1
115 39 m 1
 162 25 l 1
 218 25 l 1
 274 48 l 1
 295 80 l 1
 307 115 l 1
 307 200 l 1
 291 231 l 1
 261 246 l 1
 213 246 l 1
 171 238 l 1
 127 219 l 1
 81 173 l 1
 70 131 l 1
 70 98 l 1
 76 79 l 1
 115 39 l 1
98 550 m 1
 98 568 l 1
 121 572 l 1
 167 572 l 1
 176 565 l 1
 176 550 l 1
 162 542 l 1
 112 542 l 1
 98 550 l 1
247 556 m 1
 253 572 l 1
 316 572 l 1
 323 565 l 1
 323 551 l 1
 316 542 l 1
 261 542 l 1
 247 556 l 1
EndSplineSet
Substitution2: "'smcp' Lowercase to Small Capitals in Latin lookup 1 subtable" Adieresissmall
EndChar

StartChar: atilde
Encoding: 227 227 190
Width: 409
Flags: MW
HStem: -9 21G<171 235 171 171 323 332 323 323> 575 20G<338 338>
VStem: 311 35<36 36 119 183 183 183 255 280 4 310 4 310>
LayerCount: 2
Fore
SplineSet
116 3 m 1
 70 34 l 1
 40 79 l 1
 40 149 l 1
 66 200 l 1
 103 238 l 1
 152 262 l 1
 232 279 l 1
 286 267 l 1
 311 255 l 1
 311 310 l 1
 302 340 l 1
 286 365 l 1
 261 381 l 1
 215 392 l 1
 174 378 l 1
 142 352 l 1
 112 297 l 1
 95 292 l 1
 83 304 l 1
 101 350 l 1
 150 399 l 1
 192 420 l 1
 243 420 l 1
 277 408 l 1
 308 387 l 1
 334 349 l 1
 346 280 l 1
 346 4 l 1
 332 -9 l 1
 323 -9 l 1
 316 0 l 1
 311 36 l 1
 298 30 l 1
 286 18 l 1
 235 -9 l 1
 171 -9 l 1
 116 3 l 1
125 33 m 1
 186 19 l 1
 243 28 l 1
 277 51 l 1
 298 79 l 1
 311 119 l 1
 311 183 l 1
 302 212 l 1
 291 231 l 1
 268 241 l 1
 210 241 l 1
 174 237 l 1
 125 212 l 1
 86 174 l 1
 70 134 l 1
 70 94 l 1
 85 63 l 1
 125 33 l 1
77 517 m 1
 77 545 l 1
 100 577 l 1
 133 593 l 1
 177 593 l 1
 255 551 l 1
 294 551 l 1
 311 565 l 1
 322 587 l 1
 338 595 l 1
 349 590 l 1
 349 566 l 1
 337 547 l 1
 297 517 l 1
 256 517 l 1
 162 565 l 1
 137 565 l 1
 112 538 l 1
 98 517 l 1
 77 517 l 1
EndSplineSet
Substitution2: "'smcp' Lowercase to Small Capitals in Latin lookup 1 subtable" Atildesmall
EndChar

StartChar: aring
Encoding: 229 229 191
Width: 404
Flags: MW
HStem: -9 21G<175 219 175 175 318 336 318 318> 637 20G<193 235 235 235>
VStem: 308 32
LayerCount: 2
Fore
SplineSet
110 6 m 1
 61 42 l 1
 40 80 l 1
 40 153 l 1
 62 195 l 1
 110 243 l 1
 180 271 l 1
 244 279 l 1
 283 267 l 1
 308 258 l 1
 308 326 l 1
 290 361 l 1
 260 381 l 1
 222 392 l 1
 180 383 l 1
 147 359 l 1
 125 326 l 1
 113 301 l 1
 104 292 l 1
 95 292 l 1
 83 304 l 1
 102 355 l 1
 147 399 l 1
 189 420 l 1
 244 420 l 1
 274 410 l 1
 312 384 l 1
 336 335 l 1
 344 91 l 1
 336 -9 l 1
 318 -9 l 1
 308 13 l 1
 308 37 l 1
 269 9 l 1
 219 -9 l 1
 175 -9 l 1
 110 6 l 1
135 28 m 1
 193 21 l 1
 242 30 l 1
 287 63 l 1
 308 112 l 1
 308 186 l 1
 299 216 l 1
 278 238 l 1
 236 247 l 1
 202 241 l 1
 184 241 l 1
 128 219 l 1
 81 173 l 1
 70 131 l 1
 70 89 l 1
 84 61 l 1
 135 28 l 1
177 459 m 1
 144 477 l 1
 113 524 l 1
 113 586 l 1
 129 620 l 1
 154 645 l 1
 193 657 l 1
 235 657 l 1
 269 641 l 1
 295 615 l 1
 312 581 l 1
 312 535 l 1
 299 501 l 1
 262 463 l 1
 216 451 l 1
 177 459 l 1
166 498 m 1
 198 487 l 1
 230 487 l 1
 266 505 l 1
 283 542 l 1
 283 568 l 1
 274 593 l 1
 250 617 l 1
 214 627 l 1
 198 627 l 1
 160 609 l 1
 143 572 l 1
 143 535 l 1
 166 498 l 1
EndSplineSet
Substitution2: "'smcp' Lowercase to Small Capitals in Latin lookup 1 subtable" Aringsmall
EndChar

StartChar: ae
Encoding: 230 230 192
Width: 693
Flags: MW
HStem: -9 30<175 208 175 213 157 208 479 534> 241 30<230 230 230 302 177 311 357 603> 271 115<192 238 192 302 192 302 479 561> 402 20G
VStem: 311 33<174 234 174 241 174 241>
LayerCount: 2
Fore
SplineSet
110 3 m 1xd8
 71 30 l 1
 40 73 l 1
 40 145 l 1
 58 192 l 1
 105 241 l 1xd8
 177 271 l 1
 302 271 l 1
 311 280 l 1
 299 338 l 1
 277 374 l 1
 238 386 l 1
 192 386 l 1xb8
 157 370 l 1
 137 347 l 1
 110 298 l 1
 92 289 l 1
 83 307 l 1
 95 340 l 1
 123 383 l 1
 171 414 l 1
 238 420 l 1
 286 402 l 1
 318 370 l 1
 323 361 l 1
 332 347 l 1
 336 328 l 1
 348 340 l 1
 379 378 l 1
 451 414 l 1
 509 422 l 1
 572 414 l 1
 612 395 l 1
 637 370 l 1
 654 335 l 1
 663 292 l 1
 663 249 l 1
 649 241 l 1
 353 241 l 1
 344 234 l 1
 344 174 l 1
 357 128 l 1
 373 94 l 1
 378 89 l 1
 396 69 l 1
 439 36 l 1
 479 21 l 1
 534 21 l 1
 587 39 l 1
 613 67 l 1
 642 128 l 1
 663 128 l 1
 663 101 l 1
 637 48 l 1
 598 9 l 1
 548 -9 l 1
 476 -9 l 1
 430 6 l 1
 375 40 l 1
 335 97 l 1
 311 46 l 1
 281 18 l 1
 263 9 l 1
 256 0 l 1
 213 -9 l 1
 157 -9 l 1
 110 3 l 1xd8
129 30 m 1
 175 21 l 1
 208 21 l 1
 265 40 l 1
 294 80 l 1
 311 134 l 1
 311 241 l 1
 230 241 l 1
 174 237 l 1
 122 215 l 1
 90 183 l 1
 69 140 l 1
 69 94 l 1
 77 73 l 1
 102 46 l 1
 129 30 l 1
357 271 m 1
 603 271 l 1
 633 276 l 1
 628 305 l 1
 616 344 l 1
 598 368 l 1
 561 386 l 1
 479 386 l 1xb8
 430 371 l 1
 391 346 l 1
 357 289 l 1
 357 271 l 1
EndSplineSet
Substitution2: "'smcp' Lowercase to Small Capitals in Latin lookup 1 subtable" AEsmall
EndChar

StartChar: amacron
Encoding: 257 257 193
Width: 401
Flags: MW
HStem: -9 21G<175 213 175 175 326 326> 542 30<107 315 105 323 107 107>
VStem: 307 34<39 39 115 195 195 195 258 292 -1 331>
LayerCount: 2
Fore
SplineSet
125 1 m 1
 76 27 l 1
 40 74 l 1
 40 145 l 1
 59 194 l 1
 104 240 l 1
 168 267 l 1
 175 267 l 1
 208 276 l 1
 257 276 l 1
 307 258 l 1
 307 331 l 1
 281 370 l 1
 247 386 l 1
 192 386 l 1
 149 362 l 1
 128 335 l 1
 107 292 l 1
 86 298 l 1
 86 314 l 1
 107 359 l 1
 141 395 l 1
 192 420 l 1
 233 420 l 1
 281 404 l 1
 307 387 l 1
 333 347 l 1
 341 292 l 1
 341 -1 l 1
 326 -9 l 1
 311 -3 l 1
 307 39 l 1
 260 3 l 1
 213 -9 l 1
 175 -9 l 1
 125 1 l 1
137 30 m 1
 183 19 l 1
 239 28 l 1
 275 52 l 1
 295 80 l 1
 307 115 l 1
 307 195 l 1
 293 221 l 1
 272 241 l 1
 205 241 l 1
 162 235 l 1
 113 206 l 1
 90 183 l 1
 70 140 l 1
 70 94 l 1
 76 74 l 1
 102 46 l 1
 137 30 l 1
96 554 m 1
 105 572 l 1
 315 572 l 1
 323 565 l 1
 323 542 l 1
 107 542 l 1
 96 554 l 1
EndSplineSet
Substitution2: "'smcp' Lowercase to Small Capitals in Latin lookup 1 subtable" Amacronsmall
EndChar

StartChar: abreve
Encoding: 259 259 194
Width: 410
Flags: MW
HStem: -9 21G<171 222 171 171 326 326> 639 20G<89 89>
LayerCount: 2
Fore
SplineSet
118 3 m 1
 71 33 l 1
 46 67 l 1
 40 85 l 1
 40 145 l 1
 49 170 l 1
 70 204 l 1
 104 238 l 1
 162 267 l 1
 241 279 l 1
 286 267 l 1
 302 259 l 1
 311 264 l 1
 311 314 l 1
 285 367 l 1
 261 383 l 1
 210 392 l 1
 167 377 l 1
 137 347 l 1
 110 297 l 1
 86 297 l 1
 86 314 l 1
 101 355 l 1
 146 399 l 1
 188 420 l 1
 252 420 l 1
 299 396 l 1
 328 359 l 1
 341 319 l 1
 341 -1 l 1
 326 -9 l 1
 313 -3 l 1
 307 37 l 1
 265 6 l 1
 222 -9 l 1
 171 -9 l 1
 118 3 l 1
128 31 m 1
 159 25 l 1
 222 25 l 1
 256 39 l 1
 277 52 l 1
 298 85 l 1
 314 145 l 1
 307 197 l 1
 291 229 l 1
 253 247 l 1
 201 241 l 1
 185 241 l 1
 137 221 l 1
 94 188 l 1
 70 140 l 1
 70 94 l 1
 86 60 l 1
 128 31 l 1
170 462 m 1
 128 490 l 1
 92 542 l 1
 74 608 l 1
 74 651 l 1
 89 659 l 1
 104 645 l 1
 104 615 l 1
 112 581 l 1
 139 523 l 1
 174 493 l 1
 192 487 l 1
 240 487 l 1
 280 514 l 1
 313 572 l 1
 325 648 l 1
 332 657 l 1
 343 657 l 1
 350 645 l 1
 350 587 l 1
 317 516 l 1
 277 475 l 1
 246 459 l 1
 212 453 l 1
 170 462 l 1
EndSplineSet
Substitution2: "'smcp' Lowercase to Small Capitals in Latin lookup 1 subtable" Abrevesmall
EndChar

StartChar: aogonek
Encoding: 261 261 195
Width: 407
Flags: MW
HStem: -165 21G<257 303 257 257> 391 20G<193 248 248 248>
VStem: 317 30<10 25 25 25 119 183 183 183 246 301>
LayerCount: 2
Fore
SplineSet
232 -156 m 1
 216 -140 l 1
 202 -115 l 1
 202 -66 l 1
 236 -25 l 1
 250 -10 l 1
 193 -19 l 1
 132 -7 l 1
 92 13 l 1
 53 51 l 1
 46 76 l 1
 40 125 l 1
 64 185 l 1
 108 229 l 1
 171 261 l 1
 247 270 l 1
 292 259 l 1
 317 246 l 1
 317 301 l 1
 303 340 l 1
 271 374 l 1
 226 384 l 1
 187 375 l 1
 153 352 l 1
 135 326 l 1
 116 289 l 1
 92 289 l 1
 92 310 l 1
 113 352 l 1
 151 390 l 1
 193 411 l 1
 248 411 l 1
 283 401 l 1
 315 378 l 1
 338 340 l 1
 347 301 l 1
 347 -13 l 1
 286 -30 l 1
 245 -57 l 1
 229 -91 l 1
 238 -122 l 1
 272 -139 l 1
 308 -131 l 1
 321 -122 l 1
 347 -122 l 1
 347 -145 l 1
 303 -165 l 1
 257 -165 l 1
 232 -156 l 1
308 25 m 1
 287 4 l 1
 317 10 l 1
 317 25 l 1
 308 25 l 1
149 19 m 1
 189 13 l 1
 241 19 l 1
 278 39 l 1
 300 73 l 1
 317 119 l 1
 317 183 l 1
 296 225 l 1
 253 238 l 1
 202 234 l 1
 198 234 l 1
 147 216 l 1
 105 185 l 1
 75 140 l 1
 75 89 l 1
 81 67 l 1
 108 39 l 1
 149 19 l 1
EndSplineSet
Substitution2: "'smcp' Lowercase to Small Capitals in Latin lookup 1 subtable" Aogoneksmall
EndChar

StartChar: dcaron
Encoding: 271 271 196
Width: 556
Flags: MW
HStem: -12 21G -4 29<416 497 416 506> 391 20G<173 264 264 264> 672 31
VStem: 30 30<170 238 170 246 170 246> 375 32<145 225 225 225 340 670 670 670>
LayerCount: 2
Fore
SplineSet
141 0 m 1xbc
 85 40 l 1
 65 73 l 1
 30 140 l 1
 30 246 l 1
 53 310 l 1
 78 344 l 1
 111 377 l 1
 173 411 l 1
 264 411 l 1
 324 381 l 1
 370 335 l 1
 375 340 l 1
 375 670 l 1
 290 675 l 1
 281 682 l 1
 281 697 l 1
 294 703 l 1
 395 703 l 1
 407 691 l 1
 407 43 l 1
 416 25 l 1
 497 25 l 1
 506 18 l 1
 506 -4 l 1
 385 -4 l 1x7c
 379 9 l 1
 379 69 l 1
 370 69 l 1
 340 31 l 1
 294 0 l 1
 260 -12 l 1
 184 -12 l 1
 141 0 l 1xbc
141 36 m 1
 188 18 l 1
 255 18 l 1
 310 45 l 1
 349 94 l 1
 375 145 l 1
 375 225 l 1
 366 267 l 1
 346 311 l 1
 293 365 l 1
 239 381 l 1
 196 381 l 1
 167 375 l 1
 117 346 l 1
 80 297 l 1
 60 238 l 1
 60 170 l 1
 69 131 l 1
 94 80 l 1
 141 36 l 1
474 575 m 1
 486 587 l 1
 522 599 l 1
 528 618 l 1
 522 654 l 1
 498 688 l 1
 510 700 l 1
 522 700 l 1
 544 678 l 1
 556 636 l 1
 556 602 l 1
 544 577 l 1
 518 565 l 1
 485 565 l 1
 474 575 l 1
EndSplineSet
Substitution2: "'smcp' Lowercase to Small Capitals in Latin lookup 1 subtable" Dcaronsmall
EndChar

StartChar: dcroat
Encoding: 273 273 197
Width: 507
Flags: MW
HStem: -18 21G<227 227> -4 29<413 498> 391 20G<182 260 260 260> 528 32 672 29 683 20G<376 376>
VStem: 379 34<76 76 326 526 25 526>
LayerCount: 2
Fore
SplineSet
167 -10 m 1xba
 111 24 l 1
 73 60 l 1
 39 137 l 1
 30 197 l 1
 41 271 l 1
 70 331 l 1
 130 390 l 1
 182 411 l 1
 260 411 l 1
 309 390 l 1
 337 370 l 1
 379 326 l 1
 379 526 l 1
 288 530 l 1
 281 545 l 1
 295 560 l 1
 379 560 l 1
 379 670 l 1
 291 675 l 1
 281 684 l 1
 288 699 l 1
 376 703 l 1x76
 401 700 l 1
 409 691 l 1
 413 560 l 1
 498 560 l 1
 507 551 l 1
 507 538 l 1
 498 530 l 1
 413 526 l 1
 413 25 l 1
 498 25 l 1
 507 18 l 1
 507 -4 l 1
 392 -4 l 1x7a
 383 4 l 1
 379 76 l 1
 346 33 l 1
 279 -9 l 1
 227 -18 l 1
 167 -10 l 1xba
154 31 m 1
 193 18 l 1
 248 18 l 1
 282 25 l 1
 331 63 l 1
 367 121 l 1
 382 195 l 1
 373 259 l 1
 340 326 l 1
 295 362 l 1
 251 381 l 1
 197 381 l 1
 146 365 l 1
 105 322 l 1
 82 294 l 1
 66 238 l 1
 66 161 l 1
 78 113 l 1
 112 61 l 1
 154 31 l 1
EndSplineSet
Substitution2: "'smcp' Lowercase to Small Capitals in Latin lookup 1 subtable" Dcroatsmall
EndChar

StartChar: eacute
Encoding: 233 233 198
Width: 416
Flags: MW
HStem: -16 29<205 266 205 205> 234 33<73 354 73 374 73 354> 234 177<196 281 196 374 73 281> 628 20G<273 298 298 298>
VStem: 33 32
LayerCount: 2
Fore
SplineSet
173 -12 m 1xd8
 115 18 l 1
 79 54 l 1
 39 127 l 1
 30 183 l 1
 36 259 l 1
 69 331 l 1
 120 381 l 1
 154 399 l 1
 196 411 l 1
 281 411 l 1xb8
 315 401 l 1
 336 386 l 1
 369 355 l 1
 386 297 l 1
 386 246 l 1
 374 234 l 1
 73 234 l 1
 65 225 l 1
 65 156 l 1
 82 104 l 1
 115 60 l 1
 149 34 l 1
 197 13 l 1
 267 13 l 1
 321 37 l 1
 336 60 l 1
 364 119 l 1
 386 119 l 1
 386 101 l 1
 366 42 l 1
 322 0 l 1
 266 -16 l 1
 205 -16 l 1
 173 -12 l 1xd8
90 305 m 1
 73 267 l 1
 354 267 l 1xd8
 354 305 l 1
 328 356 l 1
 288 375 l 1
 240 386 l 1
 169 374 l 1
 120 344 l 1
 90 305 l 1
167 460 m 1
 273 648 l 1
 298 648 l 1
 298 636 l 1
 196 450 l 1
 179 450 l 1
 167 460 l 1
EndSplineSet
Substitution2: "'smcp' Lowercase to Small Capitals in Latin lookup 1 subtable" Eacutesmall
EndChar

StartChar: egrave
Encoding: 232 232 199
Width: 407
Flags: MW
HStem: -16 21G<218 218> 236 31 267 114<182 276 182 347 182 347> 634 20G<181 181>
VStem: 30 30<170 234 170 250 170 250>
LayerCount: 2
Fore
SplineSet
169 -10 m 1
 111 21 l 1
 67 64 l 1
 38 125 l 1
 30 170 l 1
 30 250 l 1
 49 308 l 1
 97 372 l 1
 161 408 l 1
 225 419 l 1
 297 408 l 1
 343 377 l 1
 370 338 l 1
 377 292 l 1
 377 246 l 1
 368 238 l 1
 60 234 l 1
 60 170 l 1
 79 106 l 1
 112 61 l 1
 157 28 l 1
 196 18 l 1
 251 18 l 1
 300 28 l 1
 327 57 l 1
 358 124 l 1
 377 124 l 1
 377 89 l 1
 352 39 l 1
 321 7 l 1
 277 -10 l 1
 218 -16 l 1
 169 -10 l 1
72 276 m 1
 72 267 l 1
 347 267 l 1
 347 297 l 1
 336 335 l 1
 318 361 l 1
 276 381 l 1
 182 381 l 1
 131 356 l 1
 100 331 l 1
 72 276 l 1
269 454 m 1
 166 630 l 1
 166 647 l 1
 181 654 l 1
 196 641 l 1
 288 475 l 1
 288 454 l 1
 269 454 l 1
EndSplineSet
Substitution2: "Single Substitution lookup 12 subtable" egravesuperior
Substitution2: "'sups' Superscript in Latin lookup 4 subtable" egravesuperior
Substitution2: "'smcp' Lowercase to Small Capitals in Latin lookup 1 subtable" Egravesmall
EndChar

StartChar: ecircumflex
Encoding: 234 234 200
Width: 412
Flags: MW
HStem: -12 21G<208 261 208 208> 18 220<120 120 199 261 261 261> 238 33<76 355 76 370 60 355> 633 20G<218 242 242 242>
LayerCount: 2
Fore
SplineSet
167 -6 m 1xd0
 120 18 l 1
 69 69 l 1
 36 131 l 1
 30 170 l 1
 30 246 l 1
 50 308 l 1
 84 361 l 1
 129 396 l 1
 175 411 l 1
 233 420 l 1
 295 411 l 1
 336 390 l 1
 362 362 l 1
 382 305 l 1
 382 250 l 1
 370 238 l 1
 60 238 l 1
 60 183 l 1
 75 116 l 1
 117 58 l 1
 152 34 l 1
 199 18 l 1
 261 18 l 1
 313 40 l 1
 336 69 l 1
 361 124 l 1
 382 124 l 1
 382 98 l 1
 362 48 l 1
 318 3 l 1
 261 -12 l 1
 208 -12 l 1
 167 -6 l 1xd0
70 277 m 1
 76 271 l 1
 355 271 l 1xb0
 337 343 l 1
 307 371 l 1
 263 386 l 1
 205 386 l 1
 161 374 l 1
 127 356 l 1
 94 322 l 1
 70 277 l 1
90 469 m 1
 218 653 l 1
 242 653 l 1
 370 474 l 1
 370 462 l 1
 361 454 l 1
 348 454 l 1
 230 615 l 1
 118 460 l 1
 100 450 l 1
 90 469 l 1
EndSplineSet
Substitution2: "'smcp' Lowercase to Small Capitals in Latin lookup 1 subtable" Ecircumflexsmall
EndChar

StartChar: edieresis
Encoding: 235 235 201
Width: 415
Flags: MW
HStem: -9 30<203 269 203 270 190 269> 239 32 542 30<135 185 135 194 135 185 284 334>
LayerCount: 2
Fore
SplineSet
148 6 m 1
 118 25 l 1
 69 74 l 1
 38 145 l 1
 30 212 l 1
 38 255 l 1
 42 267 l 1
 50 305 l 1
 102 377 l 1
 166 413 l 1
 230 423 l 1
 296 414 l 1
 334 395 l 1
 366 362 l 1
 385 305 l 1
 385 250 l 1
 376 241 l 1
 63 238 l 1
 63 180 l 1
 79 124 l 1
 100 85 l 1
 148 37 l 1
 203 21 l 1
 269 21 l 1
 325 45 l 1
 351 98 l 1
 358 116 l 1
 369 128 l 1
 376 128 l 1
 385 119 l 1
 385 94 l 1
 360 43 l 1
 325 7 l 1
 270 -9 l 1
 190 -9 l 1
 148 6 l 1
79 295 m 1
 79 271 l 1
 351 271 l 1
 357 297 l 1
 333 356 l 1
 297 383 l 1
 227 392 l 1
 169 377 l 1
 135 361 l 1
 100 326 l 1
 79 295 l 1
123 550 m 1
 123 566 l 1
 135 572 l 1
 185 572 l 1
 194 565 l 1
 194 542 l 1
 135 542 l 1
 123 550 l 1
270 550 m 1
 270 566 l 1
 284 572 l 1
 334 572 l 1
 348 559 l 1
 340 542 l 1
 284 542 l 1
 270 550 l 1
EndSplineSet
Substitution2: "'smcp' Lowercase to Small Capitals in Latin lookup 1 subtable" Edieresissmall
EndChar

StartChar: emacron
Encoding: 275 275 202
Width: 418
Flags: MW
HStem: -12 21G<199 254 199 199> 238 29<155 351 155 373> 238 178<194 275 194 373 75 275> 538 30<130 334 130 340>
LayerCount: 2
Fore
SplineSet
158 -4 m 1xd0
 114 25 l 1
 69 70 l 1
 38 140 l 1
 30 213 l 1
 42 276 l 1
 71 338 l 1
 105 374 l 1
 144 399 l 1
 194 416 l 1
 275 416 l 1xb0
 300 407 l 1
 339 386 l 1
 366 359 l 1
 385 301 l 1
 385 244 l 1
 373 238 l 1
 75 238 l 1
 63 225 l 1
 63 176 l 1
 84 107 l 1
 124 54 l 1
 176 22 l 1
 224 15 l 1
 288 25 l 1
 319 42 l 1
 343 76 l 1
 361 124 l 1
 376 124 l 1
 388 112 l 1
 364 48 l 1
 330 13 l 1
 296 -4 l 1
 254 -12 l 1
 199 -12 l 1
 158 -4 l 1xd0
74 273 m 1
 155 267 l 1
 351 267 l 1xd0
 351 310 l 1
 325 361 l 1
 288 380 l 1
 228 389 l 1
 164 374 l 1
 130 356 l 1
 94 320 l 1
 74 273 l 1
123 547 m 1
 123 560 l 1
 130 568 l 1
 340 568 l 1
 348 553 l 1
 334 538 l 1
 130 538 l 1
 123 547 l 1
EndSplineSet
Substitution2: "'smcp' Lowercase to Small Capitals in Latin lookup 1 subtable" Emacronsmall
EndChar

StartChar: ebreve
Encoding: 277 277 203
Width: 419
Flags: MW
HStem: -18 21G<232 232> -12 21G<182 194 182 182> 18 218 267 114<118 118 118 198 198 282> 636 20G<107 107>
LayerCount: 2
Fore
SplineSet
194 -12 m 1x78
 182 -12 l 1x78
 128 10 l 1
 68 70 l 1
 40 131 l 1
 30 192 l 1
 42 274 l 1
 68 334 l 1
 118 381 l 1
 174 410 l 1
 232 417 l 1
 296 410 l 1
 352 378 l 1
 375 335 l 1
 384 289 l 1
 384 246 l 1
 375 238 l 1
 66 234 l 1
 66 170 l 1
 77 119 l 1
 109 73 l 1
 152 34 l 1
 201 18 l 1
 274 18 l 1
 320 40 l 1
 347 80 l 1
 359 118 l 1
 374 125 l 1
 389 109 l 1
 374 64 l 1
 344 19 l 1
 304 -4 l 1
 232 -18 l 1xb8
 194 -12 l 1x78
74 282 m 1
 74 267 l 1
 355 267 l 1
 355 285 l 1
 341 335 l 1
 322 362 l 1
 282 381 l 1
 198 381 l 1
 152 367 l 1
 110 335 l 1
 74 282 l 1
189 457 m 1
 143 493 l 1
 104 562 l 1
 95 615 l 1
 95 645 l 1
 107 656 l 1
 124 648 l 1
 133 575 l 1
 150 538 l 1
 179 501 l 1
 215 484 l 1
 256 484 l 1
 282 496 l 1
 304 517 l 1
 334 572 l 1
 341 611 l 1
 341 641 l 1
 355 653 l 1
 364 653 l 1
 371 645 l 1
 371 587 l 1
 341 513 l 1
 299 471 l 1
 268 456 l 1
 235 448 l 1
 189 457 l 1
EndSplineSet
Substitution2: "'smcp' Lowercase to Small Capitals in Latin lookup 1 subtable" Ebrevesmall
EndChar

StartChar: edotaccent
Encoding: 279 279 204
Width: 412
Flags: MW
HStem: -12 30<196 260 196 196> 236 31 236 180 548 20G<208 260 260 260>
LayerCount: 2
Fore
SplineSet
166 -7 m 1xb0
 115 21 l 1
 69 69 l 1
 36 134 l 1
 30 183 l 1
 30 238 l 1
 50 307 l 1
 91 367 l 1
 147 401 l 1
 191 416 l 1
 272 416 l 1
 322 399 l 1
 366 356 l 1
 382 305 l 1
 382 246 l 1
 373 238 l 1
 60 234 l 1
 60 191 l 1
 75 124 l 1
 94 85 l 1
 138 42 l 1
 193 18 l 1
 263 18 l 1
 297 28 l 1
 321 45 l 1
 340 73 l 1
 360 124 l 1
 382 124 l 1
 382 89 l 1
 357 39 l 1
 331 13 l 1
 294 -6 l 1
 260 -12 l 1
 196 -12 l 1
 166 -7 l 1xb0
71 273 m 1
 85 267 l 1
 343 267 l 1xd0
 355 273 l 1
 342 329 l 1
 321 362 l 1
 282 380 l 1
 228 386 l 1
 170 378 l 1
 114 346 l 1
 97 322 l 1
 94 319 l 1
 71 273 l 1
196 545 m 1
 196 562 l 1
 208 568 l 1
 260 568 l 1
 267 560 l 1
 267 547 l 1
 260 538 l 1
 208 538 l 1
 196 545 l 1
EndSplineSet
Substitution2: "'smcp' Lowercase to Small Capitals in Latin lookup 1 subtable" Edotaccentsmall
EndChar

StartChar: eogonek
Encoding: 281 281 205
Width: 417
Flags: MW
HStem: -162 21G<225 225> 241 35<73 353 73 374 65 353> 390 30<209 277 209 209>
LayerCount: 2
Fore
SplineSet
182 -150 m 1
 156 -124 l 1
 149 -80 l 1
 153 -46 l 1
 171 -3 l 1
 121 25 l 1
 73 73 l 1
 37 145 l 1
 30 201 l 1
 37 270 l 1
 57 319 l 1
 65 331 l 1
 70 340 l 1
 73 344 l 1
 98 375 l 1
 153 407 l 1
 197 420 l 1
 292 420 l 1
 337 395 l 1
 368 362 l 1
 387 305 l 1
 387 255 l 1
 374 241 l 1
 65 241 l 1
 65 159 l 1
 94 94 l 1
 141 46 l 1
 198 21 l 1
 253 21 l 1
 310 37 l 1
 328 55 l 1
 337 69 l 1
 341 73 l 1
 360 128 l 1
 387 128 l 1
 387 98 l 1
 362 46 l 1
 322 7 l 1
 261 -9 l 1
 213 -12 l 1
 186 -39 l 1
 177 -83 l 1
 186 -115 l 1
 209 -127 l 1
 247 -127 l 1
 273 -115 l 1
 293 -115 l 1
 293 -136 l 1
 265 -155 l 1
 225 -162 l 1
 182 -150 l 1
82 301 m 1
 73 276 l 1
 353 276 l 1
 353 301 l 1
 340 349 l 1
 319 370 l 1
 277 390 l 1
 209 390 l 1
 146 371 l 1
 107 340 l 1
 82 301 l 1
EndSplineSet
Substitution2: "'smcp' Lowercase to Small Capitals in Latin lookup 1 subtable" Eogoneksmall
EndChar

StartChar: ecaron
Encoding: 283 283 206
Width: 416
Flags: MW
HStem: -18 21G<229 229> 236 31 396 20G<207 262 262 262> 633 20G<101 116 116 116 347 363 363 363>
LayerCount: 2
Fore
SplineSet
171 -10 m 1
 121 18 l 1
 70 69 l 1
 37 133 l 1
 30 197 l 1
 36 246 l 1
 48 292 l 1
 73 340 l 1
 112 377 l 1
 146 399 l 1
 207 416 l 1
 262 416 l 1
 307 402 l 1
 341 383 l 1
 369 346 l 1
 383 305 l 1
 383 238 l 1
 65 234 l 1
 65 161 l 1
 88 91 l 1
 144 36 l 1
 209 10 l 1
 280 19 l 1
 319 39 l 1
 347 79 l 1
 355 112 l 1
 366 124 l 1
 374 124 l 1
 386 112 l 1
 374 64 l 1
 347 24 l 1
 304 -6 l 1
 229 -18 l 1
 171 -10 l 1
91 314 m 1
 73 267 l 1
 349 267 l 1
 355 273 l 1
 344 319 l 1
 332 344 l 1
 307 370 l 1
 264 381 l 1
 209 381 l 1
 174 375 l 1
 128 352 l 1
 91 314 l 1
225 450 m 1
 92 636 l 1
 101 653 l 1
 116 653 l 1
 217 513 l 1
 222 510 l 1
 228 496 l 1
 235 496 l 1
 273 547 l 1
 277 556 l 1
 347 653 l 1
 363 653 l 1
 372 636 l 1
 243 450 l 1
 225 450 l 1
EndSplineSet
Substitution2: "'smcp' Lowercase to Small Capitals in Latin lookup 1 subtable" Ecaronsmall
EndChar

StartChar: gcircumflex
Encoding: 285 285 207
Width: 452
Flags: MW
HStem: -292 30<193 264 188 269> 633 20G<214 232 232 232>
LayerCount: 2
Fore
SplineSet
136 -285 m 1
 59 -250 l 1
 23 -207 l 1
 10 -182 l 1
 10 -127 l 1
 27 -110 l 1
 44 -101 l 1
 62 -107 l 1
 62 -122 l 1
 39 -145 l 1
 39 -176 l 1
 62 -207 l 1
 94 -232 l 1
 145 -255 l 1
 193 -262 l 1
 269 -262 l 1
 351 -235 l 1
 384 -203 l 1
 403 -162 l 1
 409 -110 l 1
 400 -63 l 1
 384 -25 l 1
 351 -3 l 1
 319 4 l 1
 278 4 l 1
 227 -9 l 1
 175 -30 l 1
 167 -37 l 1
 138 -37 l 1
 138 -16 l 1
 191 58 l 1
 136 80 l 1
 102 106 l 1
 66 149 l 1
 48 209 l 1
 48 267 l 1
 57 301 l 1
 84 349 l 1
 120 386 l 1
 164 408 l 1
 223 417 l 1
 285 407 l 1
 395 402 l 1
 404 395 l 1
 404 378 l 1
 342 372 l 1
 382 322 l 1
 400 267 l 1
 400 216 l 1
 386 164 l 1
 358 124 l 1
 328 94 l 1
 281 67 l 1
 243 60 l 1
 235 60 l 1
 209 34 l 1
 209 21 l 1
 269 34 l 1
 319 34 l 1
 364 24 l 1
 398 1 l 1
 428 -37 l 1
 442 -118 l 1
 425 -191 l 1
 395 -238 l 1
 340 -276 l 1
 264 -292 l 1
 188 -292 l 1
 136 -285 l 1
181 95 m 1
 223 89 l 1
 264 95 l 1
 311 119 l 1
 346 153 l 1
 373 225 l 1
 366 264 l 1
 366 276 l 1
 337 335 l 1
 290 371 l 1
 240 387 l 1
 179 380 l 1
 142 361 l 1
 94 314 l 1
 78 264 l 1
 78 210 l 1
 100 152 l 1
 133 119 l 1
 181 95 l 1
87 456 m 1
 87 477 l 1
 129 535 l 1
 133 538 l 1
 214 653 l 1
 232 653 l 1
 358 475 l 1
 358 454 l 1
 337 454 l 1
 308 496 l 1
 303 501 l 1
 223 614 l 1
 103 447 l 1
 87 456 l 1
EndSplineSet
Substitution2: "'smcp' Lowercase to Small Capitals in Latin lookup 1 subtable" Gcircumflexsmall
EndChar

StartChar: gbreve
Encoding: 287 287 208
Width: 452
Flags: MW
HStem: -301 21G<221 221> 0 30<276 330 267 336> 377 23 391 20G<196 242 242 242> 628 20G<95 111 111 111 345 360 360 360>
VStem: 47 34<204 264 264 264>
LayerCount: 2
Fore
SplineSet
142 -291 m 1xec
 66 -256 l 1
 26 -216 l 1
 10 -182 l 1
 10 -136 l 1
 32 -112 l 1
 54 -104 l 1
 66 -121 l 1
 39 -148 l 1
 39 -180 l 1
 77 -226 l 1
 148 -259 l 1
 196 -267 l 1
 255 -267 l 1
 330 -250 l 1
 378 -219 l 1
 402 -183 l 1
 412 -115 l 1
 407 -80 l 1
 393 -40 l 1
 370 -16 l 1
 330 0 l 1
 267 0 l 1
 205 -21 l 1
 162 -42 l 1
 142 -42 l 1
 135 -27 l 1
 196 55 l 1
 148 72 l 1
 92 112 l 1
 65 153 l 1
 47 204 l 1
 47 264 l 1
 63 310 l 1
 98 362 l 1
 150 396 l 1
 196 411 l 1
 242 411 l 1xdc
 285 402 l 1
 399 399 l 1
 407 390 l 1
 407 377 l 1
 399 370 l 1
 352 370 l 1
 352 361 l 1
 384 322 l 1
 403 264 l 1
 403 204 l 1
 391 165 l 1
 366 124 l 1
 327 85 l 1
 282 63 l 1
 235 52 l 1
 206 15 l 1
 276 30 l 1
 336 30 l 1
 381 15 l 1
 424 -28 l 1
 442 -91 l 1
 442 -158 l 1
 419 -216 l 1
 372 -265 l 1
 312 -291 l 1
 221 -301 l 1
 142 -291 l 1xec
175 92 m 1
 238 83 l 1
 296 103 l 1
 330 128 l 1
 357 164 l 1
 375 228 l 1
 361 294 l 1
 331 340 l 1
 285 370 l 1
 255 377 l 1
 193 377 l 1xec
 138 353 l 1
 106 322 l 1
 81 271 l 1
 81 195 l 1
 106 145 l 1
 135 116 l 1
 175 92 l 1
174 457 m 1
 133 489 l 1
 96 554 l 1
 83 638 l 1
 95 648 l 1
 111 648 l 1
 121 580 l 1
 142 529 l 1
 182 487 l 1
 208 480 l 1
 251 480 l 1
 276 496 l 1
 302 521 l 1
 329 577 l 1
 336 641 l 1
 345 648 l 1
 360 648 l 1
 366 624 l 1
 358 574 l 1
 336 514 l 1
 300 472 l 1
 247 446 l 1
 217 446 l 1
 174 457 l 1
EndSplineSet
Substitution2: "'smcp' Lowercase to Small Capitals in Latin lookup 1 subtable" Gbrevesmall
EndChar

StartChar: gdotaccent
Encoding: 289 289 209
Width: 449
Flags: MW
HStem: -297 30<183 263 183 183> 0 30<268 332 268 268> 377 22 535 25<192 259 192 192>
VStem: 52 30<204 271 204 285 204 285>
LayerCount: 2
Fore
SplineSet
120 -283 m 1
 68 -258 l 1
 21 -210 l 1
 10 -177 l 1
 10 -136 l 1
 34 -112 l 1
 56 -106 l 1
 61 -115 l 1
 61 -127 l 1
 40 -148 l 1
 40 -173 l 1
 56 -207 l 1
 104 -243 l 1
 175 -267 l 1
 272 -267 l 1
 338 -244 l 1
 383 -212 l 1
 399 -180 l 1
 411 -107 l 1
 397 -57 l 1
 374 -21 l 1
 332 0 l 1
 268 0 l 1
 204 -21 l 1
 147 -49 l 1
 137 -37 l 1
 137 -25 l 1
 192 55 l 1
 149 70 l 1
 98 106 l 1
 86 124 l 1
 77 131 l 1
 52 183 l 1
 52 285 l 1
 77 335 l 1
 117 375 l 1
 168 405 l 1
 240 413 l 1
 302 399 l 1
 395 399 l 1
 409 384 l 1
 395 370 l 1
 348 370 l 1
 348 361 l 1
 366 343 l 1
 399 271 l 1
 399 198 l 1
 378 142 l 1
 336 91 l 1
 275 61 l 1
 247 55 l 1
 238 55 l 1
 217 34 l 1
 213 25 l 1
 208 21 l 1
 208 15 l 1
 256 30 l 1
 341 30 l 1
 383 9 l 1
 412 -21 l 1
 429 -51 l 1
 439 -116 l 1
 432 -185 l 1
 399 -238 l 1
 330 -285 l 1
 263 -297 l 1
 183 -297 l 1
 120 -283 l 1
171 95 m 1
 222 85 l 1
 237 85 l 1
 299 103 l 1
 353 156 l 1
 369 221 l 1
 366 264 l 1
 356 297 l 1
 327 340 l 1
 281 370 l 1
 247 377 l 1
 187 377 l 1
 137 352 l 1
 107 322 l 1
 82 271 l 1
 82 204 l 1
 95 165 l 1
 123 122 l 1
 171 95 l 1
181 544 m 1
 190 560 l 1
 259 560 l 1
 259 535 l 1
 192 535 l 1
 181 544 l 1
EndSplineSet
Substitution2: "'smcp' Lowercase to Small Capitals in Latin lookup 1 subtable" Gdotaccentsmall
EndChar

StartChar: gcommaaccent
Encoding: 291 291 210
Width: 452
Flags: MW
HStem: -292 30<180 269 171 289 180 180> 0 21G<260 332 260 260> 372 28 391 20G<178 256 256 256> 600 20G<226 256 256 256>
LayerCount: 2
Fore
SplineSet
129 -283 m 1xe8
 70 -255 l 1
 28 -212 l 1
 10 -177 l 1
 10 -148 l 1
 22 -115 l 1
 40 -106 l 1
 56 -106 l 1
 65 -115 l 1
 61 -127 l 1
 40 -148 l 1
 40 -173 l 1
 62 -207 l 1
 108 -241 l 1
 171 -262 l 1
 269 -262 l 1
 320 -250 l 1
 357 -228 l 1
 387 -200 l 1
 400 -173 l 1
 409 -118 l 1
 403 -64 l 1
 387 -34 l 1
 365 -10 l 1
 332 0 l 1
 260 0 l 1
 210 -16 l 1
 149 -45 l 1
 137 -34 l 1
 141 -16 l 1
 195 58 l 1
 150 73 l 1
 98 107 l 1
 62 164 l 1
 47 219 l 1
 55 288 l 1
 83 344 l 1
 116 377 l 1
 178 411 l 1
 256 411 l 1xd8
 290 402 l 1
 400 399 l 1
 411 389 l 1
 402 374 l 1
 341 370 l 1
 366 344 l 1
 393 302 l 1
 405 231 l 1
 390 164 l 1
 362 124 l 1
 332 94 l 1
 292 69 l 1
 231 54 l 1
 204 16 l 1
 260 30 l 1
 265 30 l 1
 305 39 l 1
 378 18 l 1
 412 -16 l 1
 430 -51 l 1
 442 -106 l 1
 433 -174 l 1
 409 -225 l 1
 391 -241 l 1
 345 -276 l 1
 289 -292 l 1
 180 -292 l 1
 129 -283 l 1xe8
175 98 m 1
 220 86 l 1
 277 98 l 1
 311 115 l 1
 345 149 l 1
 365 186 l 1
 374 244 l 1
 354 307 l 1
 311 356 l 1
 254 381 l 1
 201 381 l 1
 150 365 l 1
 101 316 l 1
 83 270 l 1
 83 194 l 1
 108 149 l 1
 141 115 l 1
 175 98 l 1
201 501 m 1
 184 539 l 1
 184 577 l 1
 198 605 l 1
 226 620 l 1
 256 620 l 1
 265 611 l 1
 265 602 l 1
 256 593 l 1
 222 584 l 1
 211 554 l 1
 226 517 l 1
 241 496 l 1
 235 484 l 1
 219 484 l 1
 201 501 l 1
EndSplineSet
Substitution2: "'smcp' Lowercase to Small Capitals in Latin lookup 1 subtable" Gcommaaccentsmall
EndChar

